<?xml version="1.0" encoding="UTF-8"?>
<svg width="441px" height="304px" viewBox="0 0 441 304" version="1.1" xmlns="http://www.w3.org/2000/svg" xmlns:xlink="http://www.w3.org/1999/xlink">
    <!-- Generator: sketchtool 51.1 (57501) - http://www.bohemiancoding.com/sketch -->
    <title>BCE7B72A-D580-479F-8115-782274B181AC-45571-0001AD1ABA9BEF3D</title>
    <desc>Created with sketchtool.</desc>
    <defs>
        <linearGradient x1="50%" y1="0%" x2="50%" y2="83.2912808%" id="linearGradient-1">
            <stop stop-color="#FFFFFF" offset="0%"></stop>
            <stop stop-color="#FFFFFF" stop-opacity="0" offset="100%"></stop>
        </linearGradient>
    </defs>
    <g id="Design" stroke="none" stroke-width="1" fill="none" fill-rule="evenodd">
        <g id="1a2-Home" transform="translate(-141.000000, -6840.000000)">
            <g id="Section-Call-to-Action" transform="translate(0.000000, 6690.000000)">
                <g id="Section-10">
                    <g id="Illu_réduisez" transform="translate(141.000000, 150.000000)">
                        <g id="nuage" transform="translate(26.169121, 32.438356)">
                            <path d="M42.521638,261.577263 C42.521638,261.577263 -5.55613056,190.7169 0.62174401,105.004749 C6.79961858,19.2925976 77.661479,5.22248238 106.809969,9.72559896 C135.958458,14.2287155 158.363851,17.0382071 201.072013,74.4401989 C243.780174,131.842191 279.72263,87.3831189 325.929514,73.8737691 C360.82631,63.6780335 408.3219,84.035519 413.940205,135.274755 C419.71112,187.952723 367.891583,244.295491 367.891583,244.295491 L42.521638,261.577263 Z" id="Shape" fill="url(#linearGradient-1)" fill-rule="nonzero" opacity="0.049999997"></path>
                            <path d="M28.3910924,0.390836534 C28.3910924,0.390836534 94.5785683,-3.53452169 121.358778,36.8405915 C148.138989,77.2157047 167.141746,162.520026 250.540227,155.756855 C333.938708,148.993684 327.783442,60.3927409 290.851848,44.691308 C253.920254,28.9898751 220.374338,73.3356609 242.463207,111.473377 C264.552076,149.611092 330.02172,160.752766 370.870302,118.712349" id="Shape" stroke="#FFFFFF" stroke-width="0.807500013" opacity="0.599999964"></path>
                            <path d="M214.055158,86.9413037 L163.55824,86.9413037 C162.62175,86.9413037 161.862575,87.7021014 161.862575,88.6405929 L161.862575,105.327614 C161.862575,106.266105 162.62175,107.026903 163.55824,107.026903 L189.756272,107.026903 L196.827197,112.526936 L196.827197,107.026903 L214.077767,107.026903 C215.014257,107.026903 215.773432,106.266105 215.773432,105.327614 L215.773432,88.6405929 C215.773473,88.1859602 215.591723,87.7502699 215.268817,87.430932 C214.945911,87.111594 214.508781,86.9352419 214.055158,86.9413037 Z" id="Shape" fill="#FFFFFF" fill-rule="nonzero"></path>
                        </g>
                        <g id="Calque_13" transform="translate(284.529633, 0.536052)" fill-rule="nonzero">
                            <path d="M29.4480572,9.32343383 C29.3007774,9.22309503 29.1386439,9.14663384 28.9676186,9.09686192 L9.31485571,0 L0.344785314,19.7400771 C0.243194726,19.8860796 0.168535792,20.0491455 0.124348802,20.2215424 C0.029332372,20.5612159 0.0451763177,20.9224359 0.169566548,21.2524445 L6.34744112,37.8884866 C6.67301056,38.7666862 7.64641431,39.2151555 8.52354515,38.8910672 L35.2754942,28.950225 C35.6977382,28.7935767 36.0404777,28.4750686 36.2281491,28.0649219 C36.4158204,27.6547753 36.4330132,27.1866689 36.2759369,26.7638061 L30.0867578,10.1334284 C29.9628304,9.80358584 29.7396267,9.52052084 29.4480572,9.32343383 Z" id="Shape" fill="#DBDCDD"></path>
                            <path d="M18.0644896,23.6427781 L29.8493647,9.70294177 C29.7371689,9.55533016 29.6016053,9.42713057 29.4480572,9.32343383 L29.3971872,9.28944804 L0.13000102,20.1648994 L0.13000102,20.2215424 C0.091408547,20.3752308 0.0724163759,20.5332027 0.0734788375,20.6916791 L18.0644896,23.6427781 Z" id="Shape" fill="#FFFFFF"></path>
                        </g>
                        <g id="ombre" transform="translate(42.560554, 261.842408)" fill="#11ABEC" fill-rule="nonzero">
                            <path d="M198.308078,0.266221987 C108.516939,0.266221987 35.7276717,8.19623861 35.7276717,17.9728162 C35.7276717,19.6721055 37.988559,21.3713948 42.1994616,22.9347409 C19.0931933,22.9347409 0.373046406,27.0696782 0.373046406,32.1448888 C0.373046406,37.2200994 19.1666722,41.3493724 42.3464193,41.3493724 C65.5261664,41.3493724 84.3480532,37.231428 84.3480532,32.1732103 C84.3220146,31.5764356 84.0925905,31.0066479 83.6980481,30.5588855 C113.089583,33.747885 153.599031,35.7133963 198.325035,35.7133963 C288.116174,35.7133963 360.911093,27.7833797 360.911093,18.0011377 C360.911093,8.2188958 288.099217,0.266221987 198.308078,0.266221987 Z" id="Shape"></path>
                        </g>
                        <g id="canapé" transform="translate(67.430314, 155.353614)" fill-rule="nonzero">
                            <path d="M16.2275187,0.169928928 L86.5128528,0.169928928 L156.600359,53.5446051 L220.063466,53.5446051 C220.063466,53.5446051 260.951613,66.1136814 265.038167,115.789571 L230.333547,124.943076 L74.3323225,79.6853385 L16.2275187,0.169928928 Z" id="Shape" fill="#B4D4E1"></path>
                            <path d="M16.2275187,0.169928928 C-8.38865881,31.1356201 -4.29624326,76.0379842 25.5103794,102.022341 C55.3170022,128.006698 100.258637,125.850481 127.45187,97.131375 L16.2275187,0.169928928 Z" id="Shape" fill="#FFFFFF"></path>
                            <path d="M25.9888996,102.455815 C50.080652,123.088759 84.6274417,126.004588 111.823486,109.700451 C98.5690344,90.7193902 60.0322102,74.8933427 46.9190639,68.1811501 C32.4437329,60.7722488 25.0506314,44.102221 26.282815,24.8266163 C26.6618434,19.0247711 26.1316447,13.1992339 24.7114983,7.56183728 L16.2331709,0.169928928 C-8.54688813,31.3302237 -4.23263642,76.5638572 25.9888996,102.455815 Z" id="Shape" fill="#EDF8FC"></path>
                            <path d="M63.0504948,34.1443859 L71.4892567,41.7628661 L64.1413729,41.9101378 L31.6919878,13.6226357 C31.5337257,18.7205035 32.189383,34.6881584 45.6925325,44.4137574 C52.9895463,49.6702255 71.9923041,48.7526093 71.9923041,48.7526093 L79.2610568,48.7526093 C86.258503,55.0683011 93.0129038,61.157421 93.6459523,61.7181865 C95.0081369,62.907689 102.480369,71.2511993 114.197418,70.5658193 C125.914466,69.8804393 140.875888,55.5554307 140.875888,55.5554307 L63.0504948,34.1443859 Z" id="Shape" fill="#000000" opacity="0.1"></path>
                            <path d="M230.333547,124.943076 C228.984553,85.3652435 196.758044,53.8799967 157.24309,53.5338189 C117.728136,53.1876411 84.9572799,84.1034669 82.918042,123.651616 L230.333547,124.943076 Z" id="Shape" fill="#FFFFFF"></path>
                            <path d="M82.918042,123.651616 L214.959513,124.784476 C205.605092,116.667537 187.783648,116.004815 181.600121,116.004815 C175.015286,116.004815 142.825903,120.066116 128.0397,102.036657 C119.928767,92.1411288 113.677414,81.5885424 98.7499054,81.5885424 C89.224332,93.6117964 83.6887501,108.319073 82.918042,123.651616 Z" id="Shape" fill="#EDF8FC"></path>
                            <path d="M249.669785,103.197838 C262.952498,102.631408 261.991621,102.631408 262.183797,101.538199 C262.375972,100.444989 240.948413,94.4351694 238.218391,92.7981874 C235.48837,91.1612054 213.405153,65.7455021 213.405153,65.7455021 L198.438079,53.5446051 L174.48963,53.5446051 C181.62273,55.464802 189.988013,58.3875795 196.228062,62.5565026 C209.589906,71.4834355 213.580372,76.9494827 224.398718,90.6117685 C235.217063,104.274054 236.392725,103.735946 249.669785,103.197838 Z" id="Shape" fill="#000000" opacity="0.1"></path>
                        </g>
                        <g id="phone" transform="translate(137.517821, 107.773514)" fill-rule="nonzero">
                            <rect id="Rectangle-path" fill="#095B7F" transform="translate(10.035397, 14.301798) rotate(-19.100000) translate(-10.035397, -14.301798) " x="4.05252373" y="1.81768596" width="11.9657461" height="24.9682238" rx="1.69575"></rect>
                            <rect id="Rectangle-path" fill="#FFFFFF" transform="translate(10.032726, 14.302725) rotate(-19.100000) translate(-10.032726, -14.302725) " x="4.86094652" y="3.51223767" width="10.3435594" height="21.5809738" rx="1.69575"></rect>
                            <polyline id="Shape" fill="#11ABEC" points="60.3430822 77.7198272 60.3430822 74.7517353 91.0628885 62.7151029 109.003029 30.587207 112.433926 29.2617613 136.314548 27.4152003 117.9731 58.0873718 60.3430822 77.7198272"></polyline>
                            <rect id="Rectangle-path" fill="#063E5D" style="mix-blend-mode: multiply;" transform="translate(10.035397, 14.301798) rotate(-19.100000) translate(-10.035397, -14.301798) " x="4.05252373" y="1.81768596" width="11.9657461" height="24.9682238" rx="1.69575"></rect>
                            <rect id="Rectangle-path" fill="#063E5D" transform="translate(10.032726, 14.302725) rotate(-19.100000) translate(-10.032726, -14.302725) " x="4.86094652" y="3.51223767" width="10.3435594" height="21.5809738" rx="1.69575"></rect>
                            <path d="M122.856616,41.4286726 C120.595729,46.9853485 114.542203,51.2109145 107.154754,51.3468576 C99.7673047,51.4828008 95.6750986,60.6023199 92.6398574,62.109023 C92.1452858,62.3573123 91.6236936,62.5473876 91.0854974,62.6754528 L91.0854974,62.7207672 L60.3713433,74.7630639 L60.3713433,77.7311558 L118.02397,58.0930361 L136.359766,27.4208646 C129.452755,28.3384808 125.094895,35.8776609 122.856616,41.4286726 Z" id="Shape" fill="#000000" opacity="0.1" style="mix-blend-mode: multiply;"></path>
                        </g>
                        <g id="peau" transform="translate(97.952293, 101.542787)" fill="#98685F" fill-rule="nonzero">
                            <path d="M43.6068639,0.396500831 C43.6068639,0.396500831 47.5295034,2.53760532 47.3486324,8.43413911 C47.1677615,14.3306729 45.0425274,16.1092623 47.3486324,20.3914713 C49.6547375,24.6736803 33.0880857,27.8910013 33.0880857,27.8910013 C33.0880857,27.8910013 33.4498277,33.9631283 35.5863662,34.8580874 C35.5863662,34.8580874 41.639892,32.1788746 50.0164795,35.9286396 C58.3930669,39.6784046 62.8696238,45.0311658 62.8696238,45.0311658 L55.391739,31.6407663 L58.0595861,30.5702141 C58.0595861,30.5702141 59.4895973,30.0377701 58.4156758,27.3585573 C57.3417543,24.6793446 53.0743295,12.0026466 53.0743295,12.0026466 C53.0743295,12.0026466 58.7717656,16.1092623 59.2917696,17.8935161 C59.8117737,19.6777698 59.8569915,29.6752551 60.1848201,30.5702141 C60.5126488,31.4651731 62.6774484,33.7818708 65.7070374,35.3905313 C68.7366264,36.9991918 80.4932404,46.8210839 83.8789191,58.4215653 C87.2645979,70.0220468 82.9858686,76.8135396 82.9858686,76.8135396 L85.1845815,80.9201553 C85.1845815,80.9201553 89.2259176,81.4865851 92.6059441,79.4927523 C95.9859706,77.4989196 100.287309,73.4206253 102.146889,73.4206253 C104.006468,73.4206253 113.276106,75.7429873 113.276106,75.7429873 L99.9142623,80.9881269 L99.9142623,83.9562188 L140.180665,69.8521178 C140.180665,69.8521178 147.839421,66.2779461 150.354658,70.0277111 C152.869895,73.7774761 198.104598,133.235608 199.885047,134.663011 C201.665496,136.090414 230.531374,149.480813 230.531374,149.480813 C230.531374,149.480813 234.092272,151.089474 228.745273,151.621918 C223.398275,152.154362 210.573392,150.551366 206.656404,149.837664 C202.739417,149.123963 200.241137,146.087899 198.816778,143.233093 C197.392419,140.378287 192.034116,132.878757 188.303652,129.638779 C184.573188,126.398801 168.17045,113.569167 159.443425,105.355935 C150.7164,97.1427036 144.261567,86.9922823 144.261567,86.9922823 C144.261567,86.9922823 102.576457,108.771507 98.2977279,111.093869 C94.0189987,113.416231 81.5502052,124.688183 65.1587722,112.878122 C48.7673392,101.068062 41.639892,95.5623646 41.639892,95.5623646 C41.639892,95.5623646 26.4975992,96.2760661 20.8001632,95.0242563 C15.1027272,93.7724466 13.130103,91.0819052 10.4679082,88.0628346 C7.80571343,85.043764 -2.35697502,69.4952671 0.859137177,54.6718003 C4.07524937,39.8483335 15.6453402,34.8467588 24.7341071,35.5717888 C26.162426,34.1634817 26.9372306,32.2202765 26.8706457,30.2133633 C26.8706457,26.6448558 28.8319654,23.4162062 26.8706457,22.0001318 C24.9093259,20.5840574 19.2005855,16.7379994 23.1175727,13.3450851 L27.7636961,0.396500831 L43.6068639,0.396500831 Z" id="Shape"></path>
                            <path d="M131.866252,90.7137259 L157.374713,94.4804838 L171.505259,98.1509486 L227.660047,123.073858 C227.660047,123.073858 229.412235,125.339577 237.161426,123.073858 C244.910618,120.808139 264.173377,114.299861 266.671658,113.801403 C269.169938,113.302945 270.424731,114.050632 267.92645,116.809145 C265.42817,119.567658 246.448021,132.595542 242.666687,133.348894 C238.885353,134.102245 235.69185,132.346313 231.673122,129.089342 C227.654395,125.832371 212.156013,122.5754 204.904217,121.572819 C197.652421,120.570238 183.646224,118.565077 180.644896,117.307603 C177.643568,116.050129 149.133779,106.783338 147.381591,106.545438 C145.629404,106.307537 94.1150864,110.804989 94.1150864,110.804989 L131.866252,90.7137259 Z" id="Shape"></path>
                            <path d="M41.27815,7.92435232 C40.5037961,12.0139752 40.7129282,13.894522 42.1598961,14.6705308 C43.6068639,15.4465395 44.2399124,16.3188413 43.1999042,17.5933083 C42.702509,18.2107167 42.7590312,21.6376168 42.9568588,25.0418596 C45.9921001,23.7843856 48.320814,22.1813894 47.3542847,20.3914713 C45.0425274,16.1092623 47.1734137,14.3250086 47.3542847,8.43413911 C47.5351556,2.54326962 43.6125162,0.396500831 43.6125162,0.396500831 L39.9950965,0.396500831 C40.8655381,2.80382731 41.6738053,5.80590503 41.27815,7.92435232 Z" id="Shape" style="mix-blend-mode: multiply;"></path>
                            <g id="Group" style="mix-blend-mode: multiply;" transform="translate(53.696074, 14.727174)">
                                <path d="M4.73655891,15.5371683 C4.63160072,15.6699984 4.49575152,15.7750203 4.34090363,15.8430404 L1.67305661,16.9135926 L3.93394392,20.9635654 C5.88961144,21.3713948 7.39875371,21.2581088 6.14396126,19.3605692 C5.43422814,18.1884747 4.95639202,16.8903676 4.73655891,15.5371683 Z" id="Shape"></path>
                                <path d="M0.344785314,0.192586118 C1.47522897,3.48920731 3.26698216,8.75133977 4.24481592,11.4305525 C4.05829272,8.63238952 4.02437941,6.01548404 3.36872209,4.701367 C2.48062595,3.12108819 1.4695103,1.61348429 0.344785314,0.192586118 Z" id="Shape"></path>
                            </g>
                            <path d="M99.9086101,80.9881269 L110.348257,76.9211612 C107.719976,76.4963389 102.949504,76.060188 101.186011,78.0823422 C98.6933832,80.914491 90.0963592,84.3130696 90.0963592,84.3130696 L90.7746254,86.6920746 L99.9255668,83.9958689 L99.9086101,80.9881269 Z" id="Shape" style="mix-blend-mode: multiply;"></path>
                        </g>
                        <g id="chaussures" transform="translate(291.823380, 214.828738)" fill="#063E5D" fill-rule="nonzero">
                            <path d="M36.6320266,36.1948616 C36.6320266,36.1948616 7.7661479,22.8044621 5.98569915,21.3770591 C5.51164309,20.8898329 5.06625064,20.3754022 4.65177564,19.8363701 L0.00565221827,22.611876 C1.83748981,24.9303017 3.48005743,27.3927888 4.91742989,29.9754628 C6.3417889,32.8076116 8.83441715,35.8663323 12.7570566,36.5800338 C16.6796961,37.2937353 29.5045794,38.9023958 34.8459256,38.3642876 C40.1872719,37.8261793 36.6320266,36.1948616 36.6320266,36.1948616 Z" id="Shape"></path>
                            <path d="M74.0440593,3.49487161 C76.5423398,0.736358686 75.2931996,-0.0169928928 72.7892669,0.487129592 C70.2853342,0.991252078 51.0338788,7.5051943 43.2790353,9.75958474 C38.6329119,11.1133519 36.1459358,10.8414656 34.8967956,10.410979 L32.6359083,13.2431278 C34.8967956,14.0531223 36.745071,14.9084312 37.7907313,15.7580759 C41.8094585,19.015047 45.0312229,20.7709793 48.7842959,20.0176277 C52.5373688,19.2642761 71.5401266,6.25338454 74.0440593,3.49487161 Z" id="Shape"></path>
                            <path d="M74.0440593,3.49487161 C74.9031965,2.54326962 75.3101562,1.84089672 75.3836351,1.33677423 C72.2353495,3.03606351 53.2325917,13.3847352 49.9034351,15.2709463 C47.9350106,16.3963675 46.2973778,18.0218703 45.1555718,19.9836419 C46.3478094,20.2586814 47.5848333,20.2760599 48.7842959,20.0346206 C52.5373688,19.281269 71.5401266,6.25338454 74.0440593,3.49487161 Z" id="Shape" style="mix-blend-mode: multiply;"></path>
                        </g>
                        <g id="pantalon" transform="translate(156.170141, 169.514358)" fill-rule="nonzero">
                            <path d="M172.703529,56.0708818 C170.154379,55.9972459 169.430895,55.0739654 169.430895,55.0739654 L113.276106,30.1510561 L99.1455607,26.4805912 L73.6370996,22.7194976 L39.2885692,40.9585359 L39.6446589,42.4425818 C51.5482306,41.4116797 87.6885142,38.3019803 89.1411343,38.5115593 C90.893322,38.7607884 119.403111,48.0332435 122.404439,49.2737247 C125.405767,50.5142059 139.411964,52.5363601 146.66376,53.5389408 C152.734242,54.3772568 164.586944,56.7959119 170.64047,59.4751247 C171.605946,58.5347386 172.316029,57.363035 172.703529,56.0708818 Z" id="Shape" fill="#DBDCDD"></path>
                            <path d="M92.1085489,2.05614002 C89.6159207,-1.69362498 81.934556,1.8805468 81.934556,1.8805468 L41.6681531,15.9846478 L15.9618644,20.4651072 L0.469134116,40.2448344 C2.43610607,41.6722373 4.58771716,43.226143 6.92396738,44.9065513 C23.3154004,56.6939545 35.7898461,45.4446595 40.0629231,43.1222975 C44.3360001,40.7999355 86.0437187,19.0207113 86.0437187,19.0207113 C86.0437187,19.0207113 92.4589864,29.216447 101.191664,37.4070213 C109.924341,45.5975956 126.310122,58.4782083 130.05189,61.689865 C132.131906,63.4741188 134.698014,66.5781538 136.834552,69.4782742 C141.701112,69.2517023 141.64459,66.6914398 141.64459,66.6914398 C139.858489,65.2640368 94.6068294,5.80590503 92.1085489,2.05614002 Z" id="Shape" fill="#FFFFFF"></path>
                        </g>
                        <g id="pull" transform="translate(97.952293, 133.262853)" fill="#063E5D" fill-rule="nonzero">
                            <path d="M91.6111537,48.271144 C89.5716498,49.0978286 87.3630304,49.4184617 85.1732771,49.2057531 L82.9745642,45.0991374 C82.9745642,45.0991374 87.2532934,38.3019803 83.8676147,26.7071631 C80.4819359,15.112346 68.7309742,5.27912535 65.6957329,3.67046484 C63.9233144,2.73826241 62.3278175,1.50169792 60.9817829,0.0169928928 L56.4939216,1.94851837 L62.8696238,13.3110993 C62.8696238,13.3110993 58.4156758,7.95833811 50.0447406,4.20857311 C41.6738053,0.458808105 35.6146273,3.13802086 35.6146273,3.13802086 C37.141716,4.5280655 38.8307763,5.72814949 40.6451016,6.71219264 C40.6451016,6.71219264 49.7677819,12.94292 38.6950863,14.4779446 C27.6223907,16.0129693 24.1236676,5.85121941 24.1236676,5.85121941 C24.5277899,5.23578734 24.763622,4.52482597 24.807586,3.78941509 L24.7454116,3.85172236 C15.6566446,3.13802086 4.08090159,8.13393133 0.870441613,22.9517338 C-2.34001836,37.7695363 7.82267008,53.3067046 10.4792127,56.3427681 C13.1357553,59.3788316 15.1140317,62.0523801 20.8171199,63.3041898 C26.5202081,64.5559996 41.6568486,63.8422981 41.6568486,63.8422981 C41.6568486,63.8422981 48.4960327,69.1497449 64.1583296,80.4273614 C64.4337528,71.9877803 68.8065196,64.2154535 75.8697258,59.6110678 C78.5827906,59.27121 92.7642062,53.4822978 92.7642062,53.4822978 C90.7350599,51.4828008 91.6111537,48.271144 91.6111537,48.271144 Z" id="Shape"></path>
                            <path d="M44.4716533,57.9684215 C33.223739,58.0930361 24.7623682,61.8484654 14.9614218,53.8504772 C5.16047528,45.852489 1.1756614,21.8471958 1.14740031,21.6942598 C1.04000816,22.1077535 0.943920451,22.5269115 0.84783274,22.9517338 C-2.35697502,37.7752006 7.80006121,53.3067046 10.4566038,56.3427681 C13.1131464,59.3788316 15.0914228,62.0523801 20.794511,63.3041898 C26.4975992,64.5559996 41.6342398,63.8422981 41.6342398,63.8422981 C41.6342398,63.8422981 48.4734239,69.1497449 64.1357207,80.4273614 C64.2673905,77.2006035 64.9876857,74.0252995 66.2609548,71.0586132 L55.5217401,62.69811 C62.3285132,62.6251288 69.0952812,61.6441363 75.6436371,59.7809967 L75.9205958,59.6110678 C77.698104,59.2094015 79.4422258,58.6716017 81.1375933,58.0024073 C81.1375933,58.0024073 55.7195677,57.8494713 44.4716533,57.9684215 Z" id="Shape" style="mix-blend-mode: multiply;"></path>
                            <path d="M35.5920184,3.13802086 C53.9447712,0.685380008 70.8618604,22.5155829 73.0888344,25.1494813 C80.1597595,33.7762065 82.4149946,43.9719422 82.4149946,43.9719422 L83.1328263,44.8215868 C83.7799292,43.568037 84.2606755,42.2350662 84.5628375,40.8565785 C84.1728345,36.6480054 82.0702093,31.6634235 77.661479,24.7699733 C71.3196901,14.8687812 66.7922633,11.4645383 64.2261562,8.59273944 C62.2817931,6.41198487 59.9587314,2.60557689 58.9526365,0.900623316 L56.4995738,1.95418267 L62.383533,12.4841119 C59.1932582,9.67841337 55.712376,7.22310617 52.0004081,5.1601751 C42.080765,-0.0906287614 35.6089751,3.14368516 35.6089751,3.14368516" id="Shape" style="mix-blend-mode: multiply;"></path>
                            <path d="M28.9563142,26.248355 C28.9563142,26.248355 34.156355,38.3472947 34.8628823,39.3158896 C35.5694096,40.2844844 58.4835024,44.7083009 66.6848711,46.9173769 C66.6679145,46.900384 36.6998532,40.0239267 28.9563142,26.248355 Z" id="Shape" style="mix-blend-mode: multiply;"></path>
                        </g>
                        <g id="cheveux" transform="translate(109.256729, 89.081332)" fill-rule="nonzero">
                            <path d="M14.7466375,45.5352883 C14.7931287,45.0913217 14.8082389,44.6446166 14.7918552,44.1985141 C14.7493712,44.64275 14.73427,45.089189 14.7466375,45.5352883 Z" id="Shape" fill="#063E5D"></path>
                            <path d="M46.9981949,7.63547315 C46.3199287,3.54018599 40.0742275,-1.92019688 35.9820215,1.37642431 C31.8898155,4.67304551 25.9888996,4.90528171 23.151486,4.4521379 C20.3140725,3.9989941 10.8861724,1.83523242 7.54571139,7.06904339 C5.56353912,10.1600037 5.15891528,14.0089936 6.45483326,17.4460366 C6.45483326,17.4460366 2.82610913,17.7915587 0.893050487,21.9774746 C-1.04000816,26.1633906 2.14219072,29.8281911 3.95655279,31.6520949 C5.77091485,33.4759987 9.86312088,35.0506735 12.5874901,38.1377157 C14.3679388,40.142877 15.1931627,41.9101378 15.4135992,44.1985141 C16.3462152,40.1655342 17.4936155,41.8534949 19.8505906,42.5728607 C22.4619154,43.3715266 27.6902173,46.3339543 32.2289486,44.8385797 C36.7676798,43.3432051 37.5702948,36.9878632 37.5702948,35.8493394 C37.5702948,34.7108156 36.202458,30.5022425 31.9180766,30.0434344 C27.6336951,29.5846263 23.513228,34.4842437 22.3771321,35.1696237 C21.2410363,35.8550037 19.2458032,35.2432596 17.0244814,32.1618817 C13.2374952,32.6943257 10.1400796,27.9363157 11.6322652,26.7014988 C12.5366201,25.9538115 13.7970648,26.3559767 14.6448975,26.7864633 C14.4847323,26.0250637 14.4126621,25.2477027 14.4301132,24.4697656 C20.4497257,23.9033358 18.516667,17.5253367 18.8558001,16.7323351 C19.1949332,15.9393334 20.4497257,14.5685734 23.7393167,13.9001863 C27.0289078,13.2317992 30.2167589,19.1396615 38.1637778,18.7941394 C46.1107966,18.4486172 47.6821133,11.7364246 46.9981949,7.63547315 Z" id="Shape" fill="#FFFFFF"></path>
                        </g>
                        <g id="plante" transform="translate(23.343012, 133.829283)" fill-rule="nonzero">
                            <path d="M71.6305621,128.279347 C71.6305621,128.279347 88.3215627,128.403962 87.3154678,121.357576 C86.309373,114.31119 83.5510905,108.782835 89.8250527,106.267887 C96.099015,103.752939 98.5746866,102.144278 95.9577096,92.1071431 C93.3407325,82.0700077 89.3276575,81.3449776 95.0985724,78.0710136 C100.869487,74.7970496 102.926895,70.084354 93.5950823,65.4906087 C84.26327,60.8968634 92.2215933,44.7932653 84.3028355,44.2324999 C76.3840777,43.6717344 84.1954433,56.6939545 74.8410221,65.7568307 C65.4866009,74.8197068 81.1771588,75.2445291 79.2271435,79.8042887 C77.2771282,84.3640483 62.2139665,84.3357268 66.9844387,95.1828567 C71.7549109,106.029987 71.8170853,102.580429 65.1361633,106.511452 C58.4552413,110.442474 58.1330649,118.593399 68.9570629,128.273683 L71.6305621,128.279347 Z" id="Shape" fill="#B4D4E1"></path>
                            <path d="M71.1444714,127.990468 C73.7520414,123.307879 76.0060426,118.436178 77.8875677,113.416231 C78.3453974,112.153092 78.8314882,110.901282 79.266709,109.63248 L80.5328059,105.803415 C81.2958554,103.226159 82.0758615,100.654568 82.6806488,98.0319983 L83.1667396,96.0778157 C83.3250017,95.4207572 83.4380461,94.7580343 83.5793515,94.1009758 C83.8393536,92.7868588 84.1445734,91.4670774 84.3706621,90.1359675 C84.7550129,87.4737476 85.2637126,84.8285207 85.5011058,82.1436436 C86.0680826,76.7844709 86.256959,71.3918814 86.0663276,66.0060598 C86.3489352,71.395102 86.2469355,76.7974934 85.7611078,82.1719651 C85.5971935,84.8681707 85.1337116,87.5303906 84.7945785,90.2039391 C84.5684897,91.535049 84.3084877,92.8604946 84.0710945,94.1689474 C83.9410935,94.8316702 83.8337014,95.5000573 83.6867437,96.1571158 L83.2345662,98.1282914 C82.6693444,100.773518 81.934556,103.373431 81.2167243,105.979008 L80.0128018,109.847723 C79.5945377,111.133519 79.1254035,112.402321 78.6845305,113.676788 C76.8701912,118.786454 74.6766519,123.752819 72.1223051,128.534241 L71.1444714,127.990468 Z" id="Shape" fill="#FCFCFC"></path>
                            <path d="M54.1595555,128.279347 C54.1595555,128.279347 53.3908538,122.728336 41.0238002,122.473442 C28.6567466,122.218549 19.7205895,119.720594 26.2489016,110.765339 C32.7772137,101.810085 37.9320368,95.6190076 28.1423948,92.1298003 C18.3527527,88.6405929 15.0009873,86.8280177 18.0927507,79.8609317 C21.1845141,72.8938456 25.8193331,69.9654038 14.2266334,64.1991489 C2.63393371,58.4328939 -3.29524325,54.1506849 3.14828558,46.3509472 C9.5918144,38.5512094 17.3183968,36.9991918 17.3183968,23.8296999 C17.3183968,10.6602081 22.970615,6.70652834 24.7906293,12.94292 C26.6106436,19.1793116 25.3049812,29.5109904 35.3546253,32.8642546 C45.4042694,36.2175188 50.6890934,40.7942712 45.342095,51.6697226 C39.9950965,62.545174 53.526507,64.4257208 58.4835024,70.5941408 C63.4404979,76.7625609 46.8794983,86.5844529 53.0969384,92.1184717 C59.3143785,97.6524904 69.1096728,94.8146773 69.3696748,105.146356 C69.6296769,115.478035 58.4835024,128.262355 58.4835024,128.262355 L54.1595555,128.279347 Z" id="Shape" fill="#B4D4E1"></path>
                            <path d="M55.6121755,132.346313 C53.9560756,124.206717 52.0682347,116.089779 50.056045,107.989833 C48.0438553,99.8898879 45.8677513,91.8749069 43.5164285,83.8882473 C41.1651057,75.9015877 38.5933463,67.9772353 35.7841939,60.1378475 C32.9750414,52.2984596 29.8154514,44.634665 26.2432494,37.0898206 C29.9454524,44.5553648 33.1841735,52.2418166 36.1798491,60.0188972 C39.1755248,67.7959778 41.8320674,75.7203301 44.3303479,83.6673397 C46.8286284,91.6143492 49.1290812,99.6406589 51.2882286,107.69529 C53.447376,115.749921 55.4708701,123.838538 57.2739277,132.000791 L55.6121755,132.346313 Z" id="Shape" fill="#FFFFFF"></path>
                            <path d="M77.5653913,128.279347 C77.5653913,126.812294 70.1044632,125.622792 60.8969996,125.622792 C51.6895361,125.622792 44.2229557,126.812294 44.2229557,128.279347 C44.2233941,128.333974 44.2349332,128.387938 44.256869,128.437948 L50.4347436,158.487046 C50.4347436,159.410327 55.1260848,160.186336 60.9196085,160.186336 C66.7131322,160.186336 71.3988212,159.438648 71.3988212,158.487046 L77.5653913,128.466269 C77.5766333,128.404471 77.5766333,128.341145 77.5653913,128.279347 Z" id="Shape" fill="#FFFFFF"></path>
                            <path d="M67.1540053,150.330458 C65.904865,142.258834 60.0096014,141.012688 53.888249,140.55388 C50.1973504,140.281994 47.1677615,136.588872 45.342095,133.688752 L50.4290914,158.498375 C50.4290914,159.421656 55.1204326,160.197664 60.9139563,160.197664 C66.70748,160.197664 71.393169,159.449977 71.393169,158.498375 L71.6362143,157.314537 C70.0648977,156.827407 67.9170547,155.247068 67.1540053,150.330458 Z" id="Shape" fill="#EDF8FC"></path>
                            <path d="M80.7701991,81.7018284 C82.7767366,78.6091219 82.0702093,77.2043761 78.9106193,74.2532771 C75.7510292,71.302178 74.3888446,70.4921835 76.0053791,67.7846492 C77.4127814,65.4622872 78.4075718,63.7290122 78.3171363,60.8005703 C77.4905965,62.666525 76.3099967,64.3536774 74.8410221,65.7681593 C65.4809486,74.8310354 81.1771588,75.2558577 79.2271435,79.8156173 C78.2323531,82.1493079 73.8123184,83.293496 70.358813,85.2929931 C73.5636208,84.9021565 79.3345356,83.9052402 80.7701991,81.7018284 Z" id="Shape" fill="#B3C4C3"></path>
                            <ellipse id="Oval" fill="#B3C4C3" cx="61.0213484" cy="128.658855" rx="14.9783784" ry="1.92586118"></ellipse>
                            <path d="M58.4835024,128.279347 C58.4835024,128.279347 46.8512372,119.595979 43.0303377,117.40956 C39.2094381,115.223142 40.526405,109.604158 44.2342602,105.163349 C47.9421154,100.72254 56.1039185,93.8857325 45.3647038,87.3208116 C34.6254891,80.7558907 22.3036533,76.0998381 27.4923897,66.8047257 C32.681126,57.5096134 44.4490445,49.7495257 42.3859848,43.779356 C40.3229251,37.8091864 32.3815585,35.6171032 33.4780888,30.1453918 C34.5746192,24.6736803 41.4307599,23.3085846 42.3690281,16.4717774 C43.3072964,9.6349702 43.5786029,0.181257523 49.0386457,0.118950249 C54.4986886,0.0566429759 51.4973606,13.1864848 51.7686671,16.1942268 C52.0399736,19.2019688 60.2469945,22.8837623 60.9139563,26.514577 C61.580918,30.1453918 52.8595453,35.4868244 54.769995,39.6557474 C56.6804448,43.8246704 77.4240859,56.9545122 79.3345356,67.6203846 C81.2449854,78.2862569 59.6817727,84.9078208 68.6914086,92.1298003 C77.7010445,99.3517797 93.561169,102.767351 68.9627151,128.279347 L58.4835024,128.279347 Z" id="Shape" fill="#C0E0ED"></path>
                            <path d="M53.0969384,92.1298003 C50.9660521,84.7662134 30.5502397,79.8496031 26.6445569,68.6569511 C23.9993188,76.7512323 35.2020154,81.2033702 45.1216584,87.3491331 C55.7704377,93.914054 47.6934178,100.750861 44.0251281,105.19167 C40.3568384,109.63248 39.0568282,115.245799 42.83251,117.437882 C43.6916472,117.930676 44.9520919,118.768992 46.3821031,119.75458 C45.0425274,117.806061 44.1946946,115.585657 45.1216584,113.608817 C47.4221113,108.641228 55.5217401,100.501632 53.0969384,92.1298003 Z" id="Shape" fill="#EDF8FC"></path>
                            <path d="M79.3288834,67.6203846 C77.4184336,56.9545122 56.6747926,43.8303347 54.7643428,39.6557474 C52.853893,35.4811601 61.5865703,30.1453918 60.9083041,26.514577 C60.8574939,26.2644932 60.7778275,26.0211814 60.6709109,25.7895469 C58.9187232,30.3719637 53.1986783,32.8246045 51.3673596,36.030597 C48.7899481,40.562035 55.5839145,46.0110893 64.5935504,55.5894165 C73.6031863,65.1677437 74.9653709,66.2552889 68.9570629,75.0689359 C62.9487549,83.882583 61.9143989,88.3517138 63.2257136,92.1298003 C65.2096422,97.8394122 74.2249303,99.4027584 79.0519247,99.833245 C76.2258156,96.9274603 72.014913,94.7863558 68.7027131,92.1298003 C59.6761205,84.9078208 81.2449854,78.2919212 79.3288834,67.6203846 Z" id="Shape" fill="#EDF8FC"></path>
                            <path d="M62.2478798,131.360725 C59.9869925,121.635126 57.9748028,111.869877 56.1434841,102.070643 C54.3121653,92.2714077 52.6956309,82.4268585 51.350403,72.5539878 C50.9943132,70.084354 50.7230067,67.609056 50.4008303,65.133758 L49.9373484,61.4293073 L49.5529976,57.7078638 C49.3043,55.2269015 48.9877757,52.7516034 48.8069048,50.2706411 L48.2416829,42.8164255 C47.5372554,32.8744155 47.4089229,22.8998257 47.8573321,12.94292 C47.5499717,22.8986065 47.8198485,32.8637797 48.6655993,42.788104 L49.3551699,50.2196624 C49.5925631,52.6949605 49.9203918,55.1645942 50.1973504,57.6342279 L50.6382235,61.3443429 L51.1525753,65.0431292 C51.5086651,67.5014343 51.8138849,69.9710681 52.2095402,72.4067161 C53.6904213,82.2512653 55.4708701,92.0448358 57.409581,101.804421 C59.3482918,111.564005 61.4961348,121.289604 63.909632,130.924574 L62.2478798,131.360725 Z" id="Shape" fill="#F8FDFF"></path>
                            <path d="M24.5645406,64.1991489 C21.6593004,61.593572 7.74919125,55.9575959 5.23960634,51.6697226 C3.88872617,49.3643535 5.51091281,45.3313736 7.302666,42.0857311 C5.81630691,43.4044329 4.4278351,44.829948 3.14828558,46.3509472 C-3.29524325,54.1506849 2.6282815,58.4328939 14.2266334,64.1991489 C22.139739,68.1641572 22.4901765,70.7640698 20.9188598,74.2532771 C23.6319246,70.1240041 26.0567262,65.5359231 24.5645406,64.1991489 Z" id="Shape" fill="#EDF8FC"></path>
                            <path d="M87.3154678,121.357576 C86.3150252,114.316854 83.5510905,108.782835 89.8250527,106.267887 C95.2907478,104.075804 97.8681593,102.574765 96.720759,95.6190076 C95.115529,101.64582 88.6776524,102.325536 85.2071904,104.177761 C81.1545499,106.341523 82.9123898,114.328182 84.1276167,119.726258 C84.695344,122.06806 84.2871991,124.540569 82.9971731,126.574394 C85.6706723,125.55482 87.682862,123.934831 87.3154678,121.357576 Z" id="Shape" fill="#EDF8FC"></path>
                        </g>
                        <g id="patterns" transform="translate(0.000000, 9.365220)" stroke="#0ED094" stroke-width="0.565249999">
                            <polygon id="Stroke-103" points="155.136045 9.08553333 146.064235 17.0382071 138.12852 7.95267381 147.200331 0"></polygon>
                            <polygon id="Shape" points="0.299567568 206.531196 0.706527284 223.484439 13.4070617 217.259376"></polygon>
                            <circle id="Oval" fill-rule="nonzero" cx="407" cy="191" r="5"></circle>
                        </g>
                    </g>
                </g>
            </g>
        </g>
    </g>
</svg>