<svg width="152" height="39" xmlns="http://www.w3.org/2000/svg"><g fill="none" fill-rule="evenodd"><path d="M55 30.7c-2.4 0-4.2-1-5.5-2.7-1.4-1.8-2-4.3-2-7.5s.6-5.8 2-7.6a6.6 6.6 0 0 1 5.6-2.7c2.5 0 4.4 1 5.7 3h.1a22 22 0 0 1-.4-4V2.9H66v27.4h-4.1l-1-2.5h-.3c-1.2 1.9-3 2.9-5.6 2.9zm1.8-4.3c1.4 0 2.4-.4 3-1.2.7-.8 1-2.2 1.1-4v-.7c0-2-.3-3.6-1-4.5-.6-1-1.7-1.4-3.2-1.4-1.2 0-2.1.5-2.8 1.5-.6 1-1 2.5-1 4.5 0 1.9.4 3.4 1 4.3.7 1 1.7 1.5 3 1.5zm19-6c0 2 .4 3.4 1 4.4.7 1 1.7 1.5 3.2 1.5 1.4 0 2.4-.4 3-1.4.7-1 1-2.5 1-4.5s-.3-3.4-1-4.4c-.6-1-1.6-1.4-3-1.4-1.5 0-2.5.4-3.2 1.4-.6 1-1 2.5-1 4.4zm13.7 0c0 3.2-.8 5.7-2.5 7.6a9.2 9.2 0 0 1-7.1 2.7 10 10 0 0 1-5-1.3c-1.5-.8-2.6-2-3.4-3.5a12 12 0 0 1-1.1-5.5c0-3.2.8-5.7 2.5-7.5 1.7-1.8 4-2.7 7.1-2.7 1.9 0 3.6.4 5 1.3 1.5.8 2.6 2 3.4 3.5.7 1.5 1.1 3.3 1.1 5.4zm18.5 10l-.7-2.6h-.3c-.6 1-1.4 1.6-2.5 2.1-1 .5-2.3.8-3.6.8-2.3 0-4-.6-5.3-1.9-1.1-1.2-1.7-3-1.7-5.3v-13h5.4v11.6c0 1.4.2 2.5.7 3.2.5.7 1.3 1 2.4 1 1.6 0 2.6-.4 3.3-1.4.7-1 1-2.7 1-5v-9.3h5.4v19.7H108zm27-19.8v2.7l-3.1.8c.5.9.8 1.9.8 3a6 6 0 0 1-2.2 5 9.6 9.6 0 0 1-6.2 1.7h-1l-.7-.1c-.6.4-.9.9-.9 1.4 0 .8 1 1.1 3 1.1h3.4c2.1 0 3.8.5 5 1.4 1 1 1.6 2.3 1.6 4.1 0 2.3-1 4.1-2.9 5.4a15 15 0 0 1-8.3 1.9c-2.7 0-4.8-.5-6.3-1.4a4.6 4.6 0 0 1-2.2-4c0-1.3.4-2.3 1.2-3 .7-.9 1.8-1.4 3.2-1.8-.5-.2-1-.6-1.4-1.1-.4-.6-.6-1.1-.6-1.7 0-.8.2-1.4.6-1.9.5-.5 1-1 2-1.5-1.1-.4-2-1.1-2.6-2.1-.6-1-.9-2.2-.9-3.5 0-2.2.7-3.8 2.1-5a9.1 9.1 0 0 1 6-1.8 15.4 15.4 0 0 1 3.5.4h6.9zM119.7 33c0 .7.4 1.3 1 1.8.8.4 1.8.6 3 .6 2 0 3.5-.3 4.6-.8 1.1-.5 1.7-1.3 1.7-2.2 0-.7-.4-1.2-1-1.5a8 8 0 0 0-3-.4h-2.8c-1 0-1.8.2-2.5.7-.7.4-1 1-1 1.8zm2-16c0 1 .2 1.9.7 2.5.5.6 1.2 1 2.2 1 1 0 1.8-.4 2.3-1 .4-.6.7-1.5.7-2.6 0-2.3-1-3.5-3-3.5s-3 1.2-3 3.5zm30.3 7.4c0 2-.7 3.5-2.1 4.6-1.4 1-3.5 1.6-6.3 1.6-1.5 0-2.7-.1-3.7-.3-1-.2-2-.5-2.9-.9v-4.4a18.8 18.8 0 0 0 6.7 1.6c2 0 3-.5 3-1.7 0-.4-.1-.7-.4-1a34 34 0 0 0-3.9-2 16 16 0 0 1-3.3-1.8 5 5 0 0 1-1.6-1.9c-.3-.7-.5-1.6-.5-2.6 0-1.7.7-3 2-4a10 10 0 0 1 5.8-1.5c2.4 0 4.7.5 7 1.6l-1.6 3.9c-1-.5-2-.8-2.8-1-.9-.4-1.8-.5-2.6-.5-1.6 0-2.4.4-2.4 1.3 0 .5.2.9.7 1.2.5.4 1.7 1 3.4 1.6 1.5.6 2.7 1.2 3.4 1.8.7.5 1.2 1.1 1.6 1.8.3.7.5 1.6.5 2.6z" fill="#FFF"/><path d="M31.6 6L18.5 19.3l-5.8-5.8c-.4-.3-.8-.5-1.3-.5s-1 .2-1.3.5l-2.4 2.4c-.3.4-.5.8-.5 1.3s.2 1 .5 1.3l9.5 9.4c.3.4.8.6 1.3.6.4 0 .9-.2 1.2-.6l15.5-15.4A18 18 0 0 1 18.1 36 18 18 0 1 1 31.6 6z" fill="#11ABEC"/></g></svg>