<?xml version="1.0" encoding="UTF-8"?>
<svg width="163px" height="119px" viewBox="0 0 163 119" version="1.1" xmlns="http://www.w3.org/2000/svg" xmlns:xlink="http://www.w3.org/1999/xlink">
    <!-- Generator: sketchtool 51.1 (57501) - http://www.bohemiancoding.com/sketch -->
    <title>3C78DC06-8A2C-4DB4-98F2-81EBEFFFBB21</title>
    <desc>Created with sketchtool.</desc>
    <defs></defs>
    <g id="Design" stroke="none" stroke-width="1" fill="none" fill-rule="evenodd">
        <g id="2a-Pricing" transform="translate(-633.000000, -398.000000)">
            <g id="Table" transform="translate(115.000000, 344.000000)">
                <g id="Pack-Liberté" transform="translate(437.000000, 48.000000)">
                    <g id="Illu_liberte" transform="translate(77.000000, 0.000000)">
                        <g id="_x32_a-Pricing">
                            <g id="PRICING_2">
                                <g id="Group-2" transform="translate(13.000000, 0.000000)" fill-rule="nonzero">
                                    <g id="Group-3" transform="translate(13.000000, 6.000000)">
                                        <path d="M39.2777778,27.2707147 C39.2777778,27.2707147 38.1831512,15.9250474 28.2027322,11.970272 C18.2223133,8.01549652 12.8135701,11.4516129 7.72677596,4.83870968 C7.72677596,4.83870968 5.85947177,30.4475016 39.2777778,27.2707147" id="Fill-1" fill="#D8F0F8" opacity="0.7"></path>
                                        <path d="M37.9899818,29.1508539 C37.9899818,29.1508539 34.1909836,18.0645161 23.7598361,16.5733713 C13.3286885,15.0822264 9.07896175,19.8149905 2.57559199,14.498735 C2.57559199,14.5635674 7.08287796,40.626186 37.9899818,29.1508539" id="Fill-3" fill="#D8F0F8" opacity="0.7"></path>
                                        <path d="M38.56949,29.4101834 C38.56949,29.4101834 31.5510018,20.2039848 21.0554645,22.084124 C10.5599271,23.9642631 7.85555556,29.7343454 0,26.7520557 C7.3202727e-14,26.7520557 12.1696721,49.8323846 38.56949,29.4101834" id="Fill-5" fill="#D8F0F8" opacity="0.7"></path>
                                        <path d="M19.2380952,25.5645161 C22.6849206,41.5322581 38.1555556,51.8548387 54.0269841,48.5483871 C69.8984127,45.3225806 80.2388889,29.7580645 77.2730159,13.6290323 L19.2380952,25.5645161 Z" id="Fill-10" fill="#013A51"></path>
                                        <path d="M75.3492063,30.6451613 C75.3492063,30.6451613 58.1952381,34.5967742 54.347619,36.6935484 C50.5,38.7903226 40.0793651,48.0645161 40.0793651,48.0645161 L41.1214286,48.3870968 C45.1293651,49.3548387 49.3777778,49.516129 53.6261905,48.6290323 C63.7261905,46.6129032 71.6619048,39.5967742 75.3492063,30.6451613" id="Fill-12" fill="#000000" opacity="0.100000001"></path>
                                        <path d="M54.6370811,27.2389284 C54.6370811,27.2389284 55.9285273,13.6194642 67.6161155,8.86550027 C79.368276,4.11153636 85.6963624,8.22307272 91.7015873,0.321213778 C91.7661596,0.321213778 93.9616182,31.029251 54.6370811,27.2389284" id="Fill-14" fill="#D8F0F8" opacity="0.7"></path>
                                        <path d="M54.5079365,28.0098414 C54.5079365,28.0098414 59.0925705,14.9685621 71.6841711,13.2340077 C84.2111993,11.4994533 89.3769841,17.1528157 97.1256614,10.9212685 C97.1256614,10.9212685 91.637015,41.5650629 54.5079365,28.0098414" id="Fill-17" fill="#D8F0F8"></path>
                                        <path d="M54.7016534,27.9455987 C54.7016534,27.9455987 63.0960538,17.0243302 75.623082,19.2728267 C88.1501102,21.4570804 91.3787257,28.3310552 100.741711,24.7977037 C100.741711,24.7977037 86.2129409,52.036632 54.7016534,27.9455987" id="Fill-19" fill="#D8F0F8" opacity="0.7"></path>
                                    </g>
                                </g>
                                <g id="shadow" transform="translate(25.000000, 91.000000)" fill="#0ED094" fill-rule="nonzero">
                                    <ellipse id="Oval-5" cx="45" cy="10.5" rx="45" ry="10.5"></ellipse>
                                    <ellipse id="Oval-6" cx="68" cy="19" rx="53" ry="15"></ellipse>
                                </g>
                                <g id="Group-7" transform="translate(0.000000, 35.000000)"></g>
                                <g id="Group-16" transform="translate(81.000000, 8.000000)">
                                    <g id="Group"></g>
                                </g>
                                <g id="Group-21" transform="translate(73.000000, 26.000000)"></g>
                                <g id="check" transform="translate(21.000000, 17.000000)">
                                    <path d="M127.45,5.65 C127.15,5.65 126.85,5.75 126.55,6.05 L125.45,7.15 C124.85,7.75 124.85,8.65 125.45,9.15 C125.45,9.15 125.55,9.25 125.55,9.25 C125.65,9.35 125.85,9.45 125.95,9.55 C127.85,11.45 129.75,13.35 131.55,15.15 C131.75,15.35 132.05,15.55 132.45,15.55 C132.75,15.55 133.05,15.45 133.35,15.15 L144.65,3.85 C144.85,3.65 145.05,3.35 145.05,2.95 C145.05,2.65 144.95,2.35 144.65,2.05 L143.05,0.45 C142.45,-0.15 141.65,-0.15 141.05,0.45 C140.35,1.15 137.35,4.15 132.05,9.45 L128.45,5.85 C128.15,5.75 127.75,5.65 127.45,5.65 Z" id="Path-5_1_" fill="#0ED094" fill-rule="nonzero"></path>
                                    <polygon id="Shape-2" stroke="#EBF1F4" stroke-width="0.88" points="136.3 59.8 132.3 47 124 54.6"></polygon>
                                    <polygon id="Stroke-103-2" stroke="#EBF1F4" stroke-width="0.88" points="12.3 43.5 5.8 49.3 0 42.7 6.5 37"></polygon>
                                </g>
                                <g id="cube" transform="translate(56.000000, 74.000000)" fill-rule="nonzero">
                                    <path d="M0.11038961,4.96153846 L0.11038961,31.2025641 C-0.11038961,32.1948718 0.441558442,33.1871795 1.32467532,33.6282051 C2.98051948,34.2897436 17.5519481,42.1179487 17.5519481,42.1179487 C17.5519481,42.1179487 19.2077922,43.1102564 21.8571429,42.4487179 C24.6168831,41.7871795 45.4805195,37.3769231 45.4805195,37.3769231 C45.4805195,37.3769231 47.2467532,37.2666667 47.2467532,35.6128205 C47.2467532,33.9589744 47.5779221,7.93846154 47.5779221,7.93846154 C47.5779221,7.93846154 47.9090909,5.62307692 44.2662338,4.85128205 C40.512987,3.96923077 26.3831169,0.661538462 26.3831169,0.661538462 C24.1753247,0.11025641 21.7467532,0.11025641 19.538961,0.551282051 C15.4545455,1.43333333 3.09090909,3.08717949 3.09090909,3.08717949 C3.09090909,3.08717949 0.11038961,2.97692308 0.11038961,4.96153846 Z" id="Shape" fill="#FFFFFF"></path>
                                    <path d="M22.6298701,8.93076923 C25.5,8.48974359 42.0584416,5.84358974 45.9220779,5.29230769 C45.3701299,5.07179487 44.8181818,4.85128205 44.2662338,4.74102564 C40.512987,3.85897436 26.3831169,0.551282051 26.3831169,0.551282051 C24.1753247,-6.64190924e-14 21.7467532,-6.64190924e-14 19.538961,0.441025641 C15.4545455,1.32307692 3.09090909,2.97692308 3.09090909,2.97692308 C3.09090909,2.97692308 0.220779221,3.08717949 0.11038961,4.96153846 L0.11038961,31.2025641 C-0.11038961,32.1948718 0.441558442,33.1871795 1.32467532,33.6282051 C2.98051948,34.2897436 17.5519481,42.1179487 17.5519481,42.1179487 C17.9935065,42.3384615 18.5454545,42.5589744 19.0974026,42.5589744 L19.0974026,11.3564103 C19.0974026,11.3564103 18.6558442,9.59230769 22.6298701,8.93076923 Z" id="Shape_1_" fill="#E9EFF2"></path>
                                    <path d="M45.5909091,37.2666667 C45.5909091,37.2666667 47.3571429,37.1564103 47.3571429,35.5025641 C47.3571429,34.4 47.4675325,23.925641 47.5779221,16.0974359 L38.1948052,18.0820513 C38.1948052,18.0820513 36.6493506,18.0820513 36.6493506,22.6025641 C36.6493506,26.4615385 36.7597403,37.4871795 36.7597403,39.2512821 L45.5909091,37.2666667 Z" id="Shape_2_" fill="#EDF8FC"></path>
                                    <path d="M84.7792208,20.7282051 L84.7792208,35.1717949 C84.7792208,35.1717949 85.1103896,36.0538462 83.6753247,36.4948718 C82.2402597,36.9358974 68.9935065,41.125641 68.9935065,41.125641 C67.6688312,41.4564103 66.3441558,41.5666667 65.0194805,41.3461538 C62.5909091,41.0153846 43.6038961,38.5897436 43.6038961,38.5897436 C43.6038961,38.5897436 41.9480519,38.5897436 41.9480519,37.5974359 C41.9480519,36.6051282 41.7272727,22.3820513 41.7272727,22.3820513 C41.7272727,22.3820513 41.3961039,21.1692308 44.8181818,20.6179487 C48.1298701,20.1769231 61.0454545,18.3025641 61.0454545,18.3025641 C63.1428571,17.9717949 65.2402597,17.9717949 67.2272727,18.1923077 C70.8701299,18.6333333 82.1298701,19.625641 82.1298701,19.625641 C82.1298701,19.625641 84.7792208,19.625641 84.7792208,20.7282051 Z" id="Shape_3_" fill="#FFFFFF"></path>
                                    <path d="M64.3571429,22.9333333 C61.8181818,22.7128205 46.8051948,21.2794872 43.2727273,20.9487179 C43.8246753,20.8384615 44.2662338,20.7282051 44.8181818,20.6179487 C48.1298701,20.1769231 61.0454545,18.3025641 61.0454545,18.3025641 C63.1428571,17.9717949 65.2402597,17.9717949 67.2272727,18.1923077 C70.8701299,18.6333333 82.1298701,19.625641 82.1298701,19.625641 C82.1298701,19.625641 84.7792208,19.625641 84.7792208,20.7282051 L84.7792208,35.1717949 C84.7792208,35.1717949 85.1103896,36.0538462 83.6753247,36.4948718 C82.2402597,36.9358974 68.9935065,41.125641 68.9935065,41.125641 C68.5519481,41.2358974 68.1103896,41.3461538 67.5584416,41.3461538 L67.5584416,24.2564103 C67.5584416,24.2564103 68,23.2641026 64.3571429,22.9333333 Z" id="Shape_4_" fill="#E9EFF2"></path>
                                </g>
                                <circle id="Oval" fill="#0ED094" fill-rule="nonzero" cx="7.7" cy="26.7" r="3.7"></circle>
                            </g>
                        </g>
                        <path d="M98,97.9111617 L98,96.8177677 C98,96.8177677 96.2222222,97.1457859 93.7777778,97.6924829 L93.7777778,84.7904328 C93.7777778,80.8542141 90.8888889,79.9794989 90.7777778,79.9794989 L79.7777778,77.3553531 C84.3333333,76.4806378 88.2222222,75.8246014 88.3333333,75.8246014 L86.3333333,75.3872437 C86,75.3872437 82.7777778,75.9339408 78.8888889,76.5899772 C78.7777778,75.715262 78.7777778,73.9658314 80.5555556,72.4350797 C81.7777778,71.3416856 83.1111111,71.6697039 84.7777778,71.8883827 C86.6666667,72.2164009 88.7777778,72.5444191 90.7777778,70.6856492 L90,69.9202733 C88.4444444,71.4510251 86.7777778,71.1230068 85,70.7949886 C83.2222222,70.4669704 81.4444444,70.1389522 79.8888889,71.5603645 C78.6666667,72.6537585 78.1111111,73.856492 77.8888889,74.8405467 C77.5555556,73.309795 76.5555556,71.8883827 74.3333333,71.4510251 C72,70.904328 70.4444444,69.9202733 69.7777778,68.7175399 C69.3333333,67.7334852 69.3333333,66.6400911 70,65.4373576 L69,65 C68.2222222,66.4214123 68.2222222,67.952164 68.7777778,69.1548975 C69.5555556,70.7949886 71.4444444,71.9977221 74.1111111,72.5444191 C76.7777778,73.0911162 77,75.6059226 76.8888889,76.6993166 L70.6666667,75.2779043 L67.8888889,75.715262 L74.6666667,77.3553531 C71.4444444,77.9020501 68.4444444,78.4487472 66.8888889,78.8861048 C62.3333333,80.0888383 62.5555556,83.5876993 62.5555556,83.5876993 L62.5555556,95.833713 L56,92.9908884 L56,94.1936219 L62.5555556,97.0364465 L62.5555556,110.157175 L63.6666667,110.703872 L63.6666667,97.4738041 L73.3333333,101.628702 C73.3333333,101.628702 74.4444444,102.175399 76.2222222,102.175399 C76.7777778,102.175399 77.4444444,102.175399 78.2222222,101.95672 C80.1111111,101.628702 87.4444444,100.207289 92.6666667,99.1138952 L92.6666667,113 L93.7777778,112.781321 L93.7777778,98.8952164 C96.1111111,98.3485194 97.7777778,98.0205011 98,97.9111617 Z M78,100.863326 C75.3333333,101.300683 73.7777778,100.644647 73.7777778,100.644647 L63.6666667,96.2710706 L63.6666667,83.5876993 C63.6666667,83.5876993 63.5555556,80.9635535 67.2222222,79.9794989 C69,79.5421412 73,78.7767654 77.1111111,78.0113895 L90.4444444,81.1822323 C90.5555556,81.1822323 92.5555556,81.8382688 92.5555556,84.8997722 L92.5555556,98.0205011 C87.3333333,99.0045558 79.8888889,100.535308 78,100.863326 Z" id="Shape" fill="#0B3E5D" fill-rule="nonzero"></path>
                        <path d="M141,102.604216 L141,101.508468 C140.780612,101.618043 137.928571,102.385067 134.857143,103.37124 C134.857143,100.960594 134.857143,98.7690968 134.857143,97.892498 C134.747449,95.7010012 132.553571,94.8244024 131.346939,94.7148276 L122.90051,93.9478037 C126.081633,93.3999294 128.714286,92.8520552 128.714286,92.8520552 L126.081633,92.5233307 C125.862245,92.5233307 123.887755,92.8520552 121.364796,93.2903546 C122.022959,92.1946062 123.668367,90.222259 128.494898,89.3456602 C131.346939,88.797786 132.882653,87.9211873 133.211735,86.6062892 C133.65051,85.0722414 132.22449,83.7573432 132.114796,83.6477684 L131.346939,84.4147923 C131.346939,84.4147923 132.334184,85.4009659 132.114796,86.2775646 C131.895408,87.1541634 130.469388,87.8116124 128.165816,88.2499118 C122.90051,89.2360854 120.92602,91.5371571 120.267857,92.8520552 C120.158163,91.5371571 119.609694,89.4552351 116.757653,88.4690615 C115.55102,88.0307621 114.892857,87.1541634 115.112245,86.0584149 C115.331633,84.5243671 117.086735,82.9903193 119.829082,83.0998942 L119.829082,82.0041457 C116.428571,81.8945709 114.344388,83.9764929 114.015306,85.9488401 C113.686224,87.5924627 114.673469,89.0169357 116.318878,89.6743848 C119.280612,90.6605584 119.170918,93.1807798 119.061224,93.8382288 L112.589286,93.1807798 L109.846939,93.6190791 L116.209184,94.386103 C114.344388,94.7148276 112.69898,94.9339773 111.821429,95.1531269 C108.75,95.810576 108.640306,97.6733483 108.640306,97.7829232 L108.640306,105.343587 L98,104.247839 L98,105.343587 L108.640306,106.439336 L108.640306,113.890425 L109.737245,114 L109.737245,106.439336 L120.92602,107.535084 C121.035714,107.535084 122.132653,107.754234 123.558673,107.754234 C124.655612,107.754234 125.862245,107.644659 126.959184,107.20636 C127.946429,106.76806 130.688776,105.891462 133.540816,105.014863 C133.540816,108.740408 133.540816,112.465952 133.540816,112.465952 L134.637755,112.137228 C134.637755,111.918078 134.637755,108.192533 134.637755,104.686138 C138.038265,103.480815 140.890306,102.604216 141,102.604216 Z M126.739796,106.110611 C124.545918,106.98721 121.47449,106.439336 121.364796,106.329761 L109.956633,105.124438 L109.956633,97.4541987 C109.956633,97.4541987 110.066327,96.3584502 112.260204,95.9201508 C113.357143,95.7010012 116.538265,95.0435521 119.829082,94.4956779 L131.127551,95.810576 C131.127551,95.810576 133.540816,96.1393005 133.65051,98.0020729 C133.65051,98.8786716 133.65051,101.179743 133.65051,103.80954 C130.798469,104.686138 127.836735,105.562737 126.739796,106.110611 Z" id="Shape" fill="#0B3E5D" fill-rule="nonzero"></path>
                    </g>
                </g>
            </g>
        </g>
    </g>
</svg>