<?xml version="1.0" encoding="UTF-8"?>
<svg width="159px" height="92px" viewBox="0 0 159 92" version="1.1" xmlns="http://www.w3.org/2000/svg" xmlns:xlink="http://www.w3.org/1999/xlink">
    <!-- Generator: sketchtool 51.1 (57501) - http://www.bohemiancoding.com/sketch -->
    <title>42BCBA05-BFF1-4F4E-A602-03527BD298BF</title>
    <desc>Created with sketchtool.</desc>
    <defs>
        <linearGradient x1="71.8823628%" y1="7.16881117%" x2="22.1460969%" y2="160.579012%" id="linearGradient-1">
            <stop stop-color="#D8F0F9" offset="0%"></stop>
            <stop stop-color="#FFFFFF" offset="100%"></stop>
        </linearGradient>
    </defs>
    <g id="Design" stroke="none" stroke-width="1" fill="none" fill-rule="evenodd">
        <g id="2a-Pricing" transform="translate(-1057.000000, -431.000000)">
            <g id="Table" transform="translate(115.000000, 344.000000)">
                <g id="Createur" transform="translate(870.000000, 16.000000)">
                    <g id="Illu_createur" transform="translate(72.000000, 71.000000)">
                        <g id="ombre" transform="translate(20.000000, 55.000000)" fill="#FD755F" fill-rule="nonzero">
                            <ellipse id="Oval-7" cx="52" cy="19.5" rx="52" ry="17.5"></ellipse>
                            <ellipse id="Oval-8" cx="71" cy="13" rx="63" ry="13"></ellipse>
                        </g>
                        <g id="pinceau" transform="translate(16.000000, 63.000000)">
                            <g id="Calque_5" transform="translate(122.932331, 0.000000)"></g>
                            <g id="Calque_4" transform="translate(0.000000, 4.363636)" fill="#0B3E5D" fill-rule="nonzero">
                                <path d="M109.8,11 C109.8,11 37.1,13.7 9.6,10.7 C-17.9,7.7 21.6,2.1 30.5,1 C39.4,-0.1 83.1,-0.2 104.4,2.5 L109.8,11 Z" id="Shape_2_"></path>
                            </g>
                        </g>
                        <g id="palette" transform="translate(30.000000, 3.000000)" fill-rule="nonzero">
                            <path d="M45.0353977,60 C45.0353977,60 43.1054249,62.8416667 44.1581373,64.95 C45.2108497,67.15 49.0707953,68.9833333 55.8257001,66.325 C62.5806049,63.6666667 51.4393983,71 51.4393983,71 L41.5263562,68.25 L41,61.375 L45.0353977,60 Z" id="Shape_4_" fill="#C0E0ED"></path>
                            <path d="M14.4073343,0 C-3.48836106,16.5711781 -4.92001669,44.5182461 11.2755876,62.880903 C27.471192,81.2435599 55.3884768,83.1246125 74,67.1804519 L14.4073343,0 Z M52.0777731,68.3449131 C47.8722847,69.5989482 43.7562748,68.3449131 42.86149,65.4785471 C42.0561837,62.7017551 44.8300165,59.3875195 49.0355049,58.1334844 C53.2409933,56.8794493 57.3570033,58.1334844 58.2517881,60.9998503 C59.1465728,63.7766424 56.2832616,67.090878 52.0777731,68.3449131 Z" id="Shape_5_" fill="url(#linearGradient-1)"></path>
                            <path d="M20.0311588,37.7922737 C20.0311588,37.7922737 15.7528824,35.5026027 12.8115675,38.7081421 C11.1180831,40.9978131 13.346352,43.5622446 10.5832985,47.0425444 C7.82024507,50.5228443 15.4854902,57.1170967 20.7442048,49.4238023 C24.3094351,44.3865261 23.3289968,40.448292 20.0311588,37.7922737 Z" id="Shape_6_" fill="#0B3E5D"></path>
                            <path d="M32.4552299,54.9861408 C32.4552299,54.9861408 27.7345462,51.9398803 24.7387277,56.5554266 C21.3797797,61.7248384 23.1954273,69.1097124 27.5529815,66.4326956 C31.9105357,63.7556788 31.7289709,62.7402586 35.9049603,63.478746 C40.0809498,64.4018552 37.5390432,58.2170232 32.4552299,54.9861408 Z" id="Shape_7_" fill="#FD755F"></path>
                            <path d="M11.5830618,20.8624988 C11.5830618,20.8624988 5.84384213,23.0187457 7.21032299,25.9512416 C8.94119876,29.6599864 14.2249248,24.8299932 16.5023929,28.7974876 C18.9620585,33.1962314 22.9704024,30.0049859 21.7861189,27.8487389 C19.5997495,24.0537443 21.2395266,22.9324959 19.3264534,21.2074983 C17.4133802,19.4825007 14.1338261,19.8275002 11.5830618,20.8624988 Z" id="Shape_8_" fill="#CADAE0"></path>
                        </g>
                        <path d="M119.732331,70.5 C121.632331,67.1 124.932331,64.6 128.832331,63.8 C135.532331,62.2 140.432331,65.4 144.432331,67.9 C148.432331,70.4 155.132331,72.6 158.532331,69.4 C158.532331,69.4 158.032331,75.8 149.132331,78.6 L114.232331,78.6 L119.732331,70.5 Z" id="Shape" fill="#FFFFFF" fill-rule="nonzero"></path>
                        <path d="M149.032331,78.6 C157.932331,75.8 158.432331,69.4 158.432331,69.4 C155.132331,72.6 148.332331,70.4 144.332331,67.9 C142.032331,66.4 139.332331,64.8 136.232331,63.9 C134.932331,64.7 133.832331,66.2 135.832331,69 C137.932331,71.8 138.232331,75.5 136.732331,78.6 L149.032331,78.6 Z" id="Shape_1_" fill="#013A51" fill-rule="nonzero"></path>
                        <g id="patterns">
                            <circle id="Oval" fill="#EBF1F4" fill-rule="nonzero" cx="4.3" cy="30.7" r="3.8"></circle>
                            <polygon id="Shape-3" stroke="#EBF1F4" stroke-width="0.88" points="136.9 27.8 133 15.2 125 22.7"></polygon>
                            <path d="M85.4,6.4 C85.1,6.4 84.8,6.5 84.5,6.8 L83.4,7.9 C82.8,8.5 82.8,9.4 83.4,9.9 C83.4,9.9 83.5,10 83.5,10 C83.6,10.1 83.8,10.2 83.9,10.3 C85.8,12.2 87.7,14.1 89.5,15.9 C89.7,16.1 90,16.3 90.4,16.3 C90.7,16.3 91,16.2 91.3,15.9 L102.6,4.6 C102.8,4.4 103,4.1 103,3.7 C103,3.4 102.9,3.1 102.6,2.8 L101,1.2 C100.4,0.6 99.6,0.6 99,1.2 C98.3,1.9 95.3,4.9 90,10.2 L86.4,6.6 C86.1,6.5 85.7,6.4 85.4,6.4 Z" id="Path-5" fill="#FD755F" fill-rule="nonzero"></path>
                        </g>
                    </g>
                </g>
            </g>
        </g>
    </g>
</svg>