<?xml version="1.0" encoding="UTF-8"?>
<svg width="157px" height="110px" viewBox="0 0 157 110" version="1.1" xmlns="http://www.w3.org/2000/svg" xmlns:xlink="http://www.w3.org/1999/xlink">
    <!-- Generator: sketchtool 51.1 (57501) - http://www.bohemiancoding.com/sketch -->
    <title>23830A22-9E62-4063-88C4-F42EBD2F9C4C</title>
    <desc>Created with sketchtool.</desc>
    <defs>
        <linearGradient x1="71.8823628%" y1="7.16881117%" x2="22.1460969%" y2="160.579012%" id="linearGradient-1">
            <stop stop-color="#D8F0F9" offset="0%"></stop>
            <stop stop-color="#FFFFFF" offset="100%"></stop>
        </linearGradient>
        <path d="M0.5,23.7 C7.2,43.6 28.6,54.4 48.5,47.9 C68.4,41.4 79.4,20.2 73.2,0.2 L0.5,23.7 Z" id="path-2"></path>
    </defs>
    <g id="Design" stroke="none" stroke-width="1" fill="none" fill-rule="evenodd">
        <g id="2a-Pricing" transform="translate(-193.000000, -407.000000)">
            <g id="Table" transform="translate(115.000000, 344.000000)">
                <g id="Pack-Essentiel" transform="translate(0.000000, 63.000000)">
                    <g id="Illu_essentiel" transform="translate(78.000000, 0.000000)">
                        <g id="shadow" transform="translate(10.000000, 81.000000)" fill="#11ABEC" fill-rule="nonzero">
                            <ellipse id="Oval-2" cx="63.5" cy="14.5" rx="63.5" ry="14.5"></ellipse>
                            <ellipse id="Oval-3" cx="113" cy="17.5" rx="31" ry="10.5"></ellipse>
                        </g>
                        <g id="bleu" transform="translate(82.000000, 47.000000)">
                            <g id="Fill-12">
                                <mask id="mask-3" fill="white">
                                    <use xlink:href="#path-2"></use>
                                </mask>
                                <use id="Mask" fill="url(#linearGradient-1)" fill-rule="nonzero" xlink:href="#path-2"></use>
                            </g>
                        </g>
                        <g id="colis" transform="translate(37.000000, 40.000000)" fill-rule="nonzero">
                            <path d="M0.1,7.9 L0.1,48 C-0.2,49.5 0.6,51 2,51.6 C4.4,52.7 26.7,64.5 26.7,64.5 C26.7,64.5 29.1,66 33.3,65 C37.5,64 69.3,57.2 69.3,57.2 C69.3,57.2 72.1,57.1 72.1,54.4 C72.1,51.7 72.5,12.1 72.5,12.1 C72.5,12.1 73.1,8.6 67.4,7.3 C61.7,6 40.1,1 40.1,1 C36.7,0.2 33.1,0.1 29.7,0.8 C23.5,2.2 4.6,4.8 4.6,4.8 C4.6,4.8 0.2,4.9 0.1,7.9 Z" id="Shape_1_" fill="#FFFFFF"></path>
                            <path d="M34.5,14 C38.8,13.3 64,9.4 69.9,8.4 C69.1,8 68.2,7.7 67.3,7.5 C61.8,6.2 40.1,1 40.1,1 C36.7,0.2 33.1,0.1 29.7,0.8 C23.5,2.2 4.6,4.8 4.6,4.8 C4.6,4.8 0.2,4.9 0.1,7.9 L0.1,48 C-0.2,49.5 0.6,51 2,51.6 C4.4,52.7 26.7,64.5 26.7,64.5 C27.4,64.9 28.2,65.1 29.1,65.2 L29.1,17.7 C29,17.7 28.3,15 34.5,14 Z" id="Shape_2_" fill="#E9EFF2"></path>
                        </g>
                        <g id="logo" transform="translate(0.000000, 54.000000)" fill-rule="nonzero">
                            <ellipse id="Oval" fill="#D9DADC" cx="87.6" cy="22.7" rx="13" ry="12.9"></ellipse>
                            <path d="M2.45,5.65 C2.15,5.65 1.85,5.75 1.55,6.05 L0.45,7.15 C-0.15,7.75 -0.15,8.65 0.45,9.15 C0.45,9.15 0.55,9.25 0.55,9.25 C0.65,9.35 0.85,9.45 0.95,9.55 C2.85,11.45 4.75,13.35 6.55,15.15 C6.75,15.35 7.05,15.55 7.45,15.55 C7.75,15.55 8.05,15.45 8.35,15.15 L19.65,3.85 C19.85,3.65 20.05,3.35 20.05,2.95 C20.05,2.65 19.95,2.35 19.65,2.05 L18.05,0.45 C17.45,-0.15 16.65,-0.15 16.05,0.45 C15.35,1.15 12.35,4.15 7.05,9.45 L3.45,5.85 C3.15,5.75 2.75,5.65 2.45,5.65 Z" id="Path-5" fill="#11ABEC"></path>
                        </g>
                        <g id="fils" transform="translate(37.000000, 31.000000)" fill="#013A51" fill-rule="nonzero">
                            <path d="M12,66 L10.3,64.9 L10.3,19.5 C10.3,19.4 10.7,17.1 12.8,16.6 C14.7,16.1 47,12.2 48.4,12 L51,13 C50.7,13 15.8,17.5 14,18 C12.3,18.4 12,20 12,20 L12,66 Z" id="Shape_4_"></path>
                            <path d="M30.7,14.4 L30.1,14.4 C30.1,14.4 30.2,11.3 28.3,9.7 C27.2,8.7 25.6,8.4 23.5,8.7 C16.6,9.9 13,10 9.9,5.1 C9.3,4.1 8.3,3.4 7.2,3.2 C4.7,2.8 2.1,4.8 2.1,4.8 L1.7,4.4 C1.8,4.3 4.5,2.2 7.3,2.6 C8.6,2.8 9.7,3.6 10.4,4.8 C13.2,9.1 16.2,9.4 23.5,8.2 C25.7,7.8 27.5,8.2 28.7,9.3 C30.8,11.1 30.7,14.3 30.7,14.4 Z" id="Shape_5_" stroke="#013A51"></path>
                            <path d="M31.1,14.6 C31,14.4 28.4,10.1 29.8,5.5 C30.3,3.7 31.7,2.3 33.5,1.8 C35.6,1.1 37.8,1.6 38.8,2.4 C39.8,3.2 41.2,3.3 42.4,2.7 C43.4,2.2 43.9,1.2 43.8,0.1 L44.4,0.1 C44.5,1.4 43.9,2.6 42.7,3.2 C41.3,3.8 39.7,3.7 38.5,2.8 C37.6,2.1 35.6,1.7 33.7,2.3 C32.1,2.8 30.9,4 30.4,5.6 C29,9.9 31.6,14.1 31.6,14.2 L31.1,14.6 Z" id="Shape_6_" stroke="#013A51"></path>
                            <path d="M53,70 L51,70 C51,69.5 51.1,23.9 51,21.8 C50.9,20.1 49.1,19.7 49,19.7 L20,12 L23,11 L48,18 L51,19 C51,19 52.8,19.7 53,21.8 C53.1,23.9 53,68.1 53,70 Z" id="Shape_7_"></path>
                            <path d="M29,48.3 C28.1,48.3 27.3,48.1 26.5,47.8 L0,38.4 L0,36.5 L25,45 C26,45.4 28.9,46.2 29.9,46 C31.7,45.7 71.6,38.5 72,38.4 L72,40.3 C70.4,40.6 31.8,48 29.9,48.2 C29.6,48.3 29.3,48.3 29,48.3 Z" id="Shape_8_"></path>
                        </g>
                        <g id="patterns" transform="translate(15.000000, 0.000000)">
                            <circle id="Oval_1_" fill="#11ABEC" fill-rule="nonzero" cx="100.9" cy="3.9" r="3.9"></circle>
                            <polygon id="Stroke-103-2" stroke="#EBF1F4" stroke-width="0.88" points="12.7 21 6.2 26.8 0.4 20.2 6.9 14.5"></polygon>
                            <polygon id="Shape-2" stroke="#EBF1F4" stroke-width="0.88" points="114.6 46.1 110.6 33.3 102.3 40.9"></polygon>
                        </g>
                    </g>
                </g>
            </g>
        </g>
    </g>
</svg>