<?xml version="1.0" encoding="UTF-8"?>
<svg width="38px" height="34px" viewBox="0 0 38 34" version="1.1" xmlns="http://www.w3.org/2000/svg" xmlns:xlink="http://www.w3.org/1999/xlink">
    <!-- Generator: sketchtool 51.1 (57501) - http://www.bohemiancoding.com/sketch -->
    <title>868EEA1E-B4AD-41BD-A83A-4242324AF0D6</title>
    <desc>Created with sketchtool.</desc>
    <defs></defs>
    <g id="Design" stroke="none" stroke-width="1" fill="none" fill-rule="evenodd">
        <g id="5a-Creation" transform="translate(-188.000000, -892.000000)">
            <g id="Section-1" transform="translate(0.000000, 589.000000)">
                <g id="Text" transform="translate(123.000000, 39.000000)">
                    <g id="Box">
                        <g id="1" transform="translate(65.000000, 264.000000)">
                            <path d="M18.7900026,2.02752291 C21.1700696,2.02752291 23.1083177,3.96042808 23.1083177,6.33600908 C23.1083177,8.71159009 21.1700696,10.6444953 18.7900026,10.6444953 C16.4099356,10.6444953 14.4733804,8.71159009 14.4733804,6.33600908 C14.4733804,3.96042808 16.4099356,2.02752291 18.7900026,2.02752291 M18.7900026,12.6720182 C22.2906986,12.6720182 25.1379765,9.83010689 25.1379765,6.33600908 C25.1379765,2.84191127 22.2906986,0 18.7900026,0 C15.2893067,0 12.4420288,2.84191127 12.4420288,6.33600908 C12.4420288,9.83010689 15.2893067,12.6720182 18.7900026,12.6720182" id="Give-money" fill="#0ED094"></path>
                            <path d="M36.3053321,12.5419188 C38.0032035,14.23659 38.0032035,16.9923316 36.3070249,18.6870028 L25.5781027,29.3940133 C23.2064997,31.7611463 20.0562118,33.0638298 16.7044816,33.0638298 C13.5846641,33.0638298 10.591806,31.9115209 8.27945071,29.8214827 L5.74026117,27.525313 L2.7931085,27.525313 C1.25266684,27.525313 0,26.2750073 0,24.7374691 L0,21.2720945 C0,19.7345563 1.25266684,18.4842505 2.7931085,18.4842505 L20.0409767,18.4842505 C21.1616057,18.4842505 22.1281905,19.1584019 22.5547743,20.1214752 L30.1486439,12.5419188 C31.8482081,10.8489371 34.6125391,10.8523164 36.3053321,12.5419188 Z M34.8698436,17.2542199 C35.7737951,16.3502826 35.7737951,14.8786389 34.8681508,13.9763912 C33.9658922,13.0724539 32.4897766,13.0724539 31.5841324,13.9763912 L22.3668743,23.1762764 C21.6186598,24.8303972 19.9512587,25.9843956 18.0163962,25.9843956 L12.4200225,25.9843956 C11.8580152,25.9843956 11.4043466,25.5315822 11.4043466,24.9706342 C11.4043466,24.4113758 11.8580152,23.9568727 12.4200225,23.9568727 L18.0163962,23.9568727 C19.1370252,23.9568727 20.1019172,23.2827214 20.5251155,22.3179584 C20.5437362,22.2605119 20.5657425,22.2030654 20.5928272,22.1489981 C20.6977804,21.8600761 20.7553354,21.5491893 20.7553354,21.2247856 C20.7553354,20.8311083 20.4353975,20.5117734 20.0409767,20.5117734 L2.7931085,20.5117734 C2.37329583,20.5117734 2.03135164,20.8530731 2.03135164,21.2720945 L2.03135164,24.7374691 C2.03135164,25.1564905 2.37329583,25.4977901 2.7931085,25.4977901 L6.13129636,25.4977901 C6.38352252,25.4977901 6.62728472,25.5907183 6.81349195,25.7596785 L9.6438419,28.3177366 C11.5820899,30.0698543 14.0891164,31.0346173 16.7044816,31.0346173 C19.5128253,31.0346173 22.1535824,29.9431341 24.1426142,27.9612305 L34.8698436,17.2542199 Z" id="Path" fill="#013A51"></path>
                        </g>
                    </g>
                </g>
            </g>
        </g>
    </g>
</svg>