<?xml version="1.0" encoding="UTF-8"?>
<svg width="33px" height="36px" viewBox="0 0 33 36" version="1.1" xmlns="http://www.w3.org/2000/svg" xmlns:xlink="http://www.w3.org/1999/xlink">
    <!-- Generator: sketchtool 51.1 (57501) - http://www.bohemiancoding.com/sketch -->
    <title>96FE7F40-4206-4016-9419-5444586495BB</title>
    <desc>Created with sketchtool.</desc>
    <defs></defs>
    <g id="Design" stroke="none" stroke-width="1" fill="none" fill-rule="evenodd">
        <g id="5a-Creation" transform="translate(-188.000000, -1056.000000)">
            <g id="Section-1" transform="translate(0.000000, 589.000000)">
                <g id="Text" transform="translate(123.000000, 39.000000)">
                    <g id="Box">
                        <g id="2" transform="translate(65.000000, 428.000000)">
                            <path d="M30.4923581,15.1924739 C30.4923581,21.4572007 27.2319808,27.2001511 21.7722123,30.5541842 L16.6801821,33.6831372 C16.4496859,33.8229597 16.1540877,33.8229597 15.9235915,33.6831372 L10.8315613,30.5541842 C5.37179281,27.2001511 2.11317496,21.4572007 2.11317496,15.1924739 L2.11317496,10.4214599 C2.11317496,10.1759181 2.24865746,9.94913295 2.46859656,9.82806719 L16.3018868,2.20092435 L30.1369365,9.82806719 C30.3551161,9.94913295 30.4923581,10.1759181 30.4923581,10.4214599 L30.4923581,15.1924739 Z M31.1803277,8.04959413 L16.8244621,0.134280684 C16.4989522,-0.0447602279 16.1048214,-0.0447602279 15.7793115,0.134280684 L1.42520543,8.04959413 C0.545448991,8.53385717 0,9.44099779 0,10.4214599 L0,15.1924739 C0,22.1614283 3.62811555,28.5506311 9.70019448,32.2832078 L14.7957438,35.4121609 C15.2532171,35.6935109 15.7757924,35.8333333 16.3018868,35.8333333 C16.8279811,35.8333333 17.3505565,35.6935109 17.8080298,35.4121609 L17.8097893,35.4121609 L22.9035791,32.2832078 C28.975658,28.5506311 32.6037736,22.1614283 32.6037736,15.1924739 L32.6037736,10.4214599 C32.6037736,9.44099779 32.0583246,8.53385717 31.1803277,8.04959413 Z" id="Secured" fill="#013A51"></path>
                            <path d="M23.5633964,13.1684591 C23.9751224,13.5674645 23.9751224,14.2154221 23.5633964,14.6161327 L14.9312263,22.9816062 C14.7253633,23.1811089 14.4543983,23.2817128 14.1851928,23.2817128 C13.9159873,23.2817128 13.6450224,23.1811089 13.4391593,22.9816062 L9.04037715,18.7187273 C8.62865114,18.3197219 8.62865114,17.6717643 9.04037715,17.2710537 C9.45210317,16.8720482 10.1189585,16.8720482 10.5324441,17.2710537 L14.1851928,20.8109483 L22.0713295,13.1684591 C22.484815,12.7694536 23.1516704,12.7694536 23.5633964,13.1684591 Z" id="Path" fill="#0ED094"></path>
                        </g>
                    </g>
                </g>
            </g>
        </g>
    </g>
</svg>