<?xml version="1.0" encoding="UTF-8"?>
<svg width="30px" height="36px" viewBox="0 0 30 36" version="1.1" xmlns="http://www.w3.org/2000/svg" xmlns:xlink="http://www.w3.org/1999/xlink">
    <!-- Generator: sketchtool 51.1 (57501) - http://www.bohemiancoding.com/sketch -->
    <title>E82ABC69-5826-4F4F-841B-2A7E5877BB3A</title>
    <desc>Created with sketchtool.</desc>
    <defs></defs>
    <g id="Design" stroke="none" stroke-width="1" fill="none" fill-rule="evenodd">
        <g id="5a-Creation" transform="translate(-188.000000, -1214.000000)">
            <g id="Section-1" transform="translate(0.000000, 589.000000)">
                <g id="Text" transform="translate(123.000000, 39.000000)">
                    <g id="Box">
                        <g id="3" transform="translate(65.000000, 586.000000)">
                            <path d="M27.6905028,25.7246141 C27.6905028,27.5792882 26.1787709,29.0861063 24.3234637,29.0861063 L9.74916201,29.0861063 C7.89217877,29.0861063 6.38212291,27.5792882 6.38212291,25.7246141 L6.38212291,5.36668096 C6.38212291,3.51367925 7.89217877,2.00686106 9.74916201,2.00686106 L19.8083799,2.00686106 C20.3162011,2.00686106 20.7972067,2.2042024 21.1575419,2.56543739 L27.1324022,8.52581475 C27.4910615,8.88370497 27.6905028,9.36367925 27.6905028,9.87208405 L27.6905028,25.7246141 Z M19.952514,33.4476844 L5.37653631,33.4476844 C3.52122905,33.4476844 2.01117318,31.9408662 2.01117318,30.0895369 L2.01117318,9.72825901 C2.01117318,8.22813036 3.00837989,6.96882504 4.3726257,6.54069468 L4.3726257,25.7246141 C4.3726257,28.6847341 6.78268156,31.091295 9.74916201,31.091295 L23.1486034,31.091295 C22.7178771,32.4526158 21.4558659,33.4476844 19.952514,33.4476844 Z M28.5536313,7.10596055 L22.5787709,1.14558319 C21.8396648,0.406389365 20.8558659,0 19.8083799,0 L9.74916201,0 C7.09608939,0 4.90055866,1.92993139 4.46312849,4.45523156 C1.93407821,4.89005146 0,7.08254717 0,9.72825901 L0,30.0895369 C0,33.0479846 2.41173184,35.4545455 5.37653631,35.4545455 L19.952514,35.4545455 C22.6055866,35.4545455 24.7994413,33.5246141 25.2368715,30.9993139 C27.7675978,30.564494 29.7,28.3719983 29.7,25.7246141 L29.7,9.87208405 C29.7,8.82684391 29.2927374,7.84348199 28.5536313,7.10596055 Z" id="Files" fill="#013A51"></path>
                            <path d="M23.1418994,20.5151372 C23.1418994,21.0686964 22.6910615,21.5185678 22.1363128,21.5185678 L11.9346369,21.5185678 C11.3798883,21.5185678 10.9307263,21.0686964 10.9307263,20.5151372 C10.9307263,19.961578 11.3798883,19.5117067 11.9346369,19.5117067 L22.1363128,19.5117067 C22.6910615,19.5117067 23.1418994,19.961578 23.1418994,20.5151372 Z" id="Path" fill="#0ED094"></path>
                            <path d="M23.1418994,14.0915094 C23.1418994,14.646741 22.6910615,15.09494 22.1363128,15.09494 L11.9346369,15.09494 C11.3798883,15.09494 10.9307263,14.646741 10.9307263,14.0915094 C10.9307263,13.5379503 11.3798883,13.0880789 11.9346369,13.0880789 L22.1363128,13.0880789 C22.6910615,13.0880789 23.1418994,13.5379503 23.1418994,14.0915094 Z" id="Path" fill="#0ED094"></path>
                        </g>
                    </g>
                </g>
            </g>
        </g>
    </g>
</svg>