<?xml version="1.0" encoding="UTF-8"?>
<svg width="394px" height="269px" viewBox="0 0 394 269" version="1.1" xmlns="http://www.w3.org/2000/svg" xmlns:xlink="http://www.w3.org/1999/xlink">
    <!-- Generator: sketchtool 51.1 (57501) - http://www.bohemiancoding.com/sketch -->
    <title>C35A724C-4CED-4E55-87F9-39B367BE72EC</title>
    <desc>Created with sketchtool.</desc>
    <defs>
        <linearGradient x1="50%" y1="34.6731374%" x2="50%" y2="100%" id="linearGradient-1">
            <stop stop-color="#D8F0F9" offset="0%"></stop>
            <stop stop-color="#F4F4F4" offset="100%"></stop>
        </linearGradient>
        <path d="M230.550817,218.863582 C251.480306,216.99718 264.599528,214.553476 264.563307,212.046662 C264.495004,207.322719 217.751374,204.162044 160.159057,204.988682 C102.565705,205.81532 55.9317726,210.314757 56.0000749,215.039734 C56.0549238,218.849098 86.4701579,221.641459 128.449183,222.14634 C107.519694,224.011707 94.4004723,226.455411 94.4366932,228.96326 C94.5049956,233.687203 141.248626,236.847879 198.840943,236.02124 C256.434295,235.194602 303.068227,230.695166 302.999925,225.970188 C302.946111,222.160824 272.529842,219.367428 230.550817,218.863582" id="path-2"></path>
    </defs>
    <g id="Design" stroke="none" stroke-width="1" fill="none" fill-rule="evenodd">
        <g id="5a-Creation" transform="translate(-536.000000, -3358.000000)">
            <g id="Section-5" transform="translate(0.000000, 3043.000000)">
                <g id="Illu_centre" transform="translate(535.000000, 315.000000)">
                    <g id="back" transform="translate(14.000000, 32.133312)">
                        <path d="M53.9664538,213.745916 C53.9664538,213.745916 16.4747731,200.591804 3.97541176,148.61702 C-8.52394958,96.6422358 17.1343193,65.6177815 53.3453277,59.0728087 C86.0024706,53.1694999 118.954168,82.2432957 143.325361,64.0842046 C167.696555,45.9251134 182.69963,-6.67850117 246.419479,1.46421496 C310.139328,9.6069311 317.701697,72.8493348 314.583261,99.1511421 C311.464824,125.452949 294.515126,177.536816 257.715008,213.745916 L53.9664538,213.745916 Z" id="Shape" fill="url(#linearGradient-1)" fill-rule="nonzero"></path>
                        <mask id="mask-3" fill="white">
                            <use xlink:href="#path-2"></use>
                        </mask>
                        <use id="Mask" fill="#11ABEC" transform="translate(179.500000, 220.504961) scale(-1, 1) translate(-179.500000, -220.504961) " xlink:href="#path-2"></use>
                        <polygon id="Stroke-103" stroke="#58676D" stroke-width="0.639999924" mask="url(#mask-3)" points="233.555126 -16.5408768 223.277731 -7.53191429 214.287412 -17.8242048 224.564807 -26.8331674"></polygon>
                    </g>
                    <g id="ligne" transform="translate(43.095798, 3.849984)">
                        <path d="M0.166487395,0.481247999 C0.166487395,0.481247999 -6.62107563,103.025572 208.00679,90.9943716 C277.969916,85.2193956 282.669983,39.1992537 257.607227,13.5583603 C232.544471,-12.0825331 132.184588,13.6738598 183.462706,104.597648 C224.194487,176.797681 332.795496,135.987851 350.545613,118.200925" id="Shape" stroke="#013A51" stroke-width="1.39999998" stroke-linecap="round" stroke-linejoin="round"></path>
                        <polygon id="Shape" stroke="#3799D0" stroke-width="0.639999924" points="136 8 139.469325 22.1758079 149 14.593399"></polygon>
                    </g>
                    <g id="cheveux" transform="translate(240.959664, 0.000000)" fill="#0B3E5D" fill-rule="nonzero">
                        <path d="M6.16003361,73.0341963 C6.16003361,73.0341963 -1.4407563,66.6560561 0.326571429,59.9185842 C2.09389916,53.1811122 4.572,53.7136933 2.80467227,47.6884684 C1.03734454,41.6632434 0.147277311,37.588677 5.27636975,33.8670258 C10.4054622,30.1453746 12.883563,25.8911423 13.415042,17.7355929 C13.946521,9.58004349 27.9186555,-3.17623679 44.0103025,0.725080318 C60.1019496,4.62639743 64.7059664,15.7849344 62.9386387,25.7114764 C61.1713109,35.6380185 54.6142689,30.1453746 55.5107395,42.1958245 C56.4072101,54.2462744 57.0987731,56.0172671 53.2119328,60.2714994 C49.3250924,64.5257317 44.3688908,64.5257317 41.0071261,68.779964 C37.6453613,73.0341963 25.2676639,87.0353047 11.1162353,79.5920023 C-3.03519328,72.1487 6.16003361,73.0341963 6.16003361,73.0341963 Z" id="Shape"></path>
                    </g>
                    <g id="femme" transform="translate(179.487395, 46.199808)" fill-rule="nonzero">
                        <path d="M71.1349412,3.00298751 C71.1349412,3.00298751 67.2545042,5.87764222 66.9151261,10.106208 C66.5757479,14.3347737 65.231042,16.1955993 64.0464202,16.8757632 C62.8617983,17.555927 58.6419832,23.812151 65.3975294,29.9015423 C65.5511255,30.3305405 65.4206353,30.8099968 65.070958,31.101454 C65.070958,31.101454 57.5854286,30.1004582 54.7423361,29.818126 C51.8992437,29.5357938 40.2131092,28.2524658 33.0797647,32.384782 C25.9464202,36.5170981 24.6657479,36.87643 24.454437,38.801422 C24.454437,38.801422 13.7031933,47.5473023 7.95937815,55.5488523 C2.21556303,63.5504024 7.95937815,74.8501054 7.95937815,74.8501054 C7.95937815,74.8501054 4.75769748,79.3417534 4.75769748,80.079667 C4.75769748,80.8175806 6.99247059,88.2929662 7.63280672,88.2929662 C8.27314286,88.2929662 10.0788908,86.6952228 11.039395,84.6675646 C11.9998992,82.6399063 11.3531597,78.8925886 13.2741681,78.1610916 C15.1951765,77.4295947 18.4865042,75.8126014 20.9582017,76.5569316 C23.4298992,77.3012619 24.0318151,78.6102564 25.5109916,78.6102564 C26.9901681,78.6102564 23.8076975,75.196604 22.8535966,74.0223588 C22.3532561,73.3896426 21.7817094,72.8169107 21.1503025,72.3155326 C21.1503025,72.3155326 22.1044034,66.8806385 21.6817815,63.7878181 C21.2591597,60.6949976 30.1982521,58.1347582 30.1982521,58.1347582 C30.1982521,58.1347582 25.7158992,70.1852081 26.5803529,78.5075902 C27.4448067,86.8299722 8.04902521,96.4741821 0.0768403361,125.227146 L58.0528739,125.227146 L54.2108571,100.920914 C54.2108571,100.920914 55.6195966,100.356249 55.0561008,98.0911754 L71.7048403,80.8368305 C71.7048403,80.8368305 75.0025714,79.6066901 77.3846218,77.7715311 C77.3846218,77.7715311 79.8435126,84.4320034 85.9267059,79.2216917 C92.0098992,74.0113801 97.8305546,66.9640549 94.7441345,47.5216357 C91.6577143,28.0792166 94.8914118,30.4405401 95.480521,27.7904678 C96.0696303,25.1403955 95.1859664,23.6645683 95.1859664,23.6645683 L93.565916,28.374382 C93.6493446,26.2623009 93.6001552,24.1470527 93.4186387,22.0411583 C93.124084,20.2765823 88.1294622,16.2661824 88.1294622,16.2661824 C88.1294622,16.2661824 86.5094118,16.7089305 87.098521,19.3590028 C87.6876303,22.0090751 88.1294622,23.7800678 87.5403529,26.1349747 C86.8708065,28.6947578 86.8708065,31.3842424 87.5403529,33.9440255 C88.2767395,37.3320114 87.9821849,38.801422 85.6193445,43.5176524 C85.6193445,43.5176524 80.1764874,37.4795941 74.1509244,34.9706879 C73.6080978,34.0642884 73.6080978,32.9318497 74.1509244,32.0254502 C74.1509244,32.0254502 78.5628403,31.582702 80.6183193,30.1004582 C82.6737983,28.6182143 84.3258655,18.9355046 84.3258655,18.9355046 L81.8605714,5.40922751 L71.1349412,3.00298751 Z" id="Shape" fill="#EA9F91"></path>
                        <path d="M74.0548739,3.65748479 L71.1349412,3.01582079 C71.1349412,3.01582079 67.2545042,5.8904755 66.9151261,10.1190413 C66.5757479,14.347607 65.231042,16.2084326 64.0464202,16.8885964 C62.8617983,17.5687603 59.1862689,23.0293209 64.2129076,28.7208806 C63.1051261,21.8999923 66.4220672,21.4572441 66.4220672,20.603831 C66.4220672,19.7504179 65.1926218,19.551502 65.7176975,18.2296742 C66.2427731,16.9078464 69.0538487,18.7622553 70.0207563,11.2868697 C70.5778487,6.9492211 72.5180672,4.74831359 74.0548739,3.65748479 Z" id="Shape" fill="#000000" opacity="0.140000001"></path>
                        <path d="M65.7433109,7.38555262 C70.0962475,8.40389337 74.6318991,8.33779947 78.9534454,7.19305342 C78.9534454,7.19305342 79.5937815,12.0825331 81.6364538,14.2898572 C83.6791261,16.4971814 84.6012101,18.1398412 83.8328067,21.6818265 C83.0644034,25.2238118 86.8039664,23.3116531 86.8039664,23.3116531 L84.6972605,9.68912637 L82.2063529,0.859829758 L71.0068739,0.282332159 L65.7433109,7.38555262 Z" id="Shape" fill="#0B3E5D"></path>
                        <rect id="Rectangle-path" fill="#DDDBDB" transform="translate(88.157878, 25.045400) rotate(18.770000) translate(-88.157878, -25.045400) " x="81.9113987" y="12.7447008" width="12.492958" height="24.6013977" rx="1.91999977"></rect>
                        <rect id="Rectangle-path" fill="#FFFFFF" transform="translate(88.541441, 25.174257) rotate(18.770000) translate(-88.541441, -25.174257) " x="82.6951719" y="12.8735577" width="11.6925378" height="24.6013977" rx="1.91999977"></rect>
                        <path d="M54.4990084,100.741248 L21.2783697,88.6458814 C15.1311429,96.0699338 5.23154622,106.663806 0.0832436975,125.220729 L58.0592773,125.220729 L54.2172605,100.914497 C54.3187563,100.870152 54.4135854,100.81184 54.4990084,100.741248 Z" id="Shape" fill="#0B3E5D"></path>
                        <path d="M10.9497479,84.8857303 L9.36811765,84.3082327 L8.01060504,88.2352164 C9.27900646,87.410748 10.2959891,86.2517811 10.9497479,84.8857303 Z" id="Shape" fill="#0B3E5D"></path>
                        <polygon id="Shape" fill="#0B3E5D" style="mix-blend-mode: multiply;" points="39.3038319 114.934855 30.0381681 124.604732 30.1918487 125.233563 42.5695462 125.233563"></polygon>
                        <path d="M24.3199664,85.1103127 L23.7948908,84.8087307 C23.3722689,85.3926449 22.9112269,86.6310564 22.4117647,87.2598871 L23.4427059,88.0042174 C23.4427059,88.0042174 36.7040672,98.3799242 54.3261176,100.869581 C54.6526891,100.670665 55.5171429,99.9584177 55.0561008,98.1040087 L55.164958,97.9885092 C51.7647731,97.7831767 42.0764874,95.5181028 24.3199664,85.1103127 Z" id="Shape" fill="#3799D1"></path>
                        <path d="M19.5366555,76.4029323 L21.3552101,72.4887819 C21.2335462,72.379699 21.1567059,72.3219492 21.1567059,72.3219492 C21.1567059,72.3219492 22.1108067,66.8870552 21.6881849,63.7942347 C21.265563,60.7014142 30.2046555,58.1411749 30.2046555,58.1411749 C30.2046555,58.1411749 29.9293109,58.8855051 29.5258992,60.1367499 L33.2846723,57.2107621 L31.3188403,48.7792972 C31.3188403,48.7792972 21.0222353,53.3607781 18.7362353,56.7166808 C16.4502353,60.0725835 17.9998487,62.613573 17.9998487,64.4166488 C17.9998487,66.2197246 18.1663361,68.0163838 17.5131933,69.5499608 C16.9176807,70.9680382 19.0307899,75.5751857 19.4342017,76.3772657 L19.5366555,76.4029323 Z" id="Shape" fill="#000000" opacity="0.140000001"></path>
                        <path d="M10.9497479,84.8857303 L9.36811765,84.3082327 L8.01060504,88.2352164 C9.27900646,87.410748 10.2959891,86.2517811 10.9497479,84.8857303 Z" id="Shape" fill="#0B3E5D"></path>
                        <path d="M93.5787227,37.9929253 C92.9383866,28.8620466 95.0322857,29.8951257 95.4997311,27.7968844 C96.082437,25.1403955 95.2051765,23.6709849 95.2051765,23.6709849 L93.5851261,28.3807986 C93.6685547,26.2687175 93.6193652,24.1534693 93.4378487,22.047575 C93.1432941,20.282999 88.1486723,16.272599 88.1486723,16.272599 C88.1486723,16.272599 86.5286218,16.7153472 87.1177311,19.3654195 C87.7068403,22.0154918 88.1486723,23.7864844 87.559563,26.1413913 C86.8900166,28.7011744 86.8900166,31.390659 87.559563,33.9504421 C87.8893515,35.2054649 87.9827286,36.5111038 87.8349076,37.8004261 L89.6534622,40.9445797 L93.5787227,37.9929253 Z" id="Shape" fill="#EA9F91"></path>
                        <path d="M87.098521,47.1687205 C90.7036134,40.1104165 89.5510084,36.0551001 88.3791933,32.0190335 C87.2073782,27.982967 89.5317983,24.5115647 89.5317983,21.9128255 C89.5317983,20.4626649 88.4944538,18.287424 87.6107899,16.6511808 C87.2009748,17.0425958 86.7783529,17.8318425 87.1241345,19.4039193 C87.7132437,22.0539916 88.1550756,23.8249843 87.5659664,26.1798911 C86.89642,28.7396743 86.89642,31.4291589 87.5659664,33.988942 C88.3023529,37.3769279 88.0077983,38.8463385 85.644958,43.5625688 C83.6271096,41.406399 81.3982233,39.4587969 78.9918655,37.749093 L68.3686891,71.9947006 L71.6472101,80.9266635 L71.7176471,80.8496638 C71.7176471,80.8496638 75.0153782,81.2218289 77.3974286,79.3866699 C77.3974286,79.3866699 79.0238824,82.1797628 82.8915126,81.0376009 C76.8979664,72.0607215 83.5062353,54.2270245 87.098521,47.1687205 Z" id="Shape" fill="#EA9F91"></path>
                        <path d="M74.1765378,35.0091877 C74.080656,34.8654915 74.0032068,34.7102719 73.9460168,34.5471897 C72.7421849,36.9919295 76.2960504,38.872005 76.2960504,38.872005 C77.7047899,44.2619826 74.375042,56.838597 64.008,51.5705355 C53.640958,46.3024741 60.0443193,34.1301081 60.0443193,34.1301081 C64.6483361,34.7717721 65.0645546,31.101454 65.0645546,31.101454 C65.0645546,31.101454 57.5790252,30.1004582 54.7359328,29.818126 C51.8928403,29.5357938 40.2067059,28.2524658 33.0733613,32.384782 C25.9400168,36.5170981 24.6593445,36.87643 24.4480336,38.801422 C25.5814286,38.2431743 28.6870588,44.1015666 30.48,48.8434636 C31.5420342,51.536116 32.0642475,54.412065 32.0168067,57.3070117 L30.1982521,58.1090917 C30.1982521,58.1090917 25.7158992,70.1595416 26.5803529,78.4819236 C26.7532437,80.1823332 26.0744874,81.9404926 24.8258319,83.9039844 C26.7218459,85.7594048 28.8354492,87.3775204 31.1203361,88.722881 C45.4510588,97.706177 55.0496975,98.0719255 55.0496975,98.0719255 L71.698437,80.8111639 C71.698437,80.8111639 74.9961681,81.1833291 77.3782185,79.34817 C73.1071765,60.348499 85.6257479,43.524069 85.6257479,43.524069 C85.6257479,43.524069 80.2085042,37.5437605 74.1765378,35.0091877 Z" id="Shape" fill="#FFFFFF"></path>
                        <path d="M24.2879496,78.2958411 C24.6643739,78.504551 25.0871952,78.614889 25.517395,78.6166731 C26.0552773,78.6166731 25.9848403,78.1803416 25.6326555,77.5643441 L25.6326555,77.7311768 C25.1596476,77.8535985 24.7067448,78.0437799 24.2879496,78.2958411 Z" id="Shape" fill="#FFFFFF"></path>
                        <path d="M34.0850924,67.175804 C35.4297983,66.3480574 38.7339328,68.4206321 38.7339328,68.4206321 C34.8086723,63.8648178 35.5322521,57.7561765 35.5322521,57.7561765 C35.5322521,57.7561765 32.0168067,58.994588 31.1907731,58.8919218 C30.8050188,58.7588702 30.4546231,58.5394188 30.1662353,58.2502578 C29.7564202,59.386003 25.7735294,70.6343729 26.5867563,78.5268401 C26.7596471,80.2272497 26.0808908,81.9854091 24.8322353,83.9489009 C26.6264088,85.7084969 28.6208825,87.2505277 30.7745546,88.5432151 C30.0509748,79.3545867 32.8300336,67.9458008 34.0850924,67.175804 Z" id="Shape" fill="#DDDBDB"></path>
                    </g>
                    <g id="plante" transform="translate(0.850420, 93.682944)" fill-rule="nonzero">
                        <ellipse id="Oval" fill="#072C3F" opacity="0.2" style="mix-blend-mode: multiply;" cx="40.3347731" cy="163.021155" rx="16.9561008" ry="2.54740607"></ellipse>
                        <path d="M29.4298487,130.860956 C29.4298487,130.860956 12.4545378,130.989289 13.4790756,123.802652 C14.5036134,116.616015 17.3210924,111.007872 10.9177311,108.454049 C4.51436975,105.900226 2.02346218,104.263983 4.6872605,94.0807754 C7.35105882,83.8975678 11.43,83.127571 5.55811765,79.7973348 C-0.313764706,76.4670987 -2.4012605,71.6802852 7.08852101,67.0089713 C16.5783025,62.3376574 8.48445378,45.9559756 16.533479,45.3913112 C24.5825042,44.8266469 16.6423361,58.0577586 26.138521,67.2656369 C35.6347059,76.4735153 19.6903361,76.8905969 21.6561681,81.5554942 C23.622,86.2203915 38.9452437,86.1883083 34.1043025,97.1928458 C29.2633613,108.197383 29.1929244,104.713148 35.9868908,108.704298 C42.7808571,112.695448 43.1074286,120.992164 32.1000504,130.835289 L29.4298487,130.860956 Z" id="Shape" fill="#92A5A3"></path>
                        <path d="M28.8791597,131.188204 C26.2829279,126.323196 24.0547044,121.269804 22.2132605,116.070601 C21.7714286,114.787273 21.2975798,113.503945 20.874958,112.169284 L19.6455126,108.229467 C18.9219328,105.579394 18.1727395,102.935739 17.6028403,100.247166 L17.1417983,98.2387581 C16.994521,97.5650109 16.8920672,96.8848471 16.7575966,96.2110999 C16.5142689,94.8636055 16.2517311,93.5161111 16.0276134,92.1622001 C15.6818319,89.4351281 15.2143866,86.727306 15.0478992,83.9874007 C14.5625023,78.5214321 14.4640711,73.0278755 14.7533445,67.5479691 C14.5789198,73.0253792 14.7929034,78.5082872 15.3936807,83.9553175 C15.611395,86.6823895 16.1300672,89.3773783 16.5270756,92.0787838 C16.7768067,93.4262782 17.064958,94.7609393 17.3338992,96.102017 C17.4747731,96.743681 17.596437,97.4430948 17.756521,98.1104253 L18.2495798,100.099584 C18.889916,102.762489 19.6647227,105.380478 20.4395294,107.998468 L21.7202017,111.886951 C22.168437,113.170279 22.6614958,114.453607 23.1289412,115.736935 C25.0459324,120.835774 27.3404548,125.783946 29.9933445,130.540124 L28.8791597,131.188204 Z" id="Shape" fill="#0B3E5D"></path>
                        <path d="M47.2055798,130.860956 C47.2055798,130.860956 47.9803866,125.220729 60.5565882,124.957647 C73.1327899,124.694565 82.225563,122.159992 75.5852773,113.05478 C68.9449916,103.949568 63.7006387,97.6548439 73.6642689,94.106442 C83.6278992,90.5580401 87.028084,88.7100478 83.9096471,81.6260772 C80.7912101,74.5421067 76.0207059,71.5519524 87.8156975,65.6935601 C99.6106891,59.8351678 105.636252,55.4782693 99.0856134,47.5408856 C92.5349748,39.603502 84.6716471,38.0314252 84.6716471,24.6398975 C84.6716471,11.2483699 78.9086218,7.23155326 77.0708571,13.5711936 C75.2330924,19.9108339 76.5457815,30.4212902 66.3260168,33.8349426 C56.1062521,37.2485951 50.7338319,41.8749925 56.1702857,52.9565298 C61.6067395,64.038067 47.845916,65.9245592 42.8000672,72.2064497 C37.7542185,78.4883403 54.6078655,88.4662154 48.2813445,94.1128586 C41.9548235,99.7595018 31.9911933,96.8463473 31.7286555,107.36322 C31.4661176,117.880093 42.8000672,130.860956 42.8000672,130.860956 L47.2055798,130.860956 Z" id="Shape" fill="#92A5A3"></path>
                        <path d="M44.2472269,134.698107 C46.0657815,126.394974 48.0892437,118.175259 50.2791933,109.974793 C52.4691429,101.774327 54.793563,93.625194 57.3228908,85.5273943 C59.8522185,77.4295947 62.5736471,69.4023781 65.5576134,61.4649944 C68.5415798,53.5276107 71.8649244,45.7313932 75.6108908,38.1276748 C71.9609748,45.7763096 68.7849076,53.630277 65.8521681,61.5804939 C62.9194286,69.5307109 60.3772941,77.6220939 57.9376134,85.7134769 C55.4979328,93.8048599 53.3015798,102.005326 51.2332941,110.212208 C49.1650084,118.419091 47.2247899,126.677307 45.5214958,134.954772 L44.2472269,134.698107 Z" id="Shape" fill="#0B3E5D"></path>
                        <path d="M23.3850756,130.860956 C23.3850756,129.372295 30.9730588,128.15955 40.3411765,128.15955 C49.7092941,128.15955 57.2972773,129.372295 57.2972773,130.860956 C57.3063557,130.916195 57.3063557,130.97255 57.2972773,131.027788 L51.0283866,161.596661 C51.0283866,162.533491 46.2578824,163.297071 40.3731933,163.297071 C34.4885042,163.297071 29.7115966,162.533491 29.7115966,161.596661 L23.4491092,131.027788 C23.4181925,130.976358 23.3965195,130.919891 23.3850756,130.860956 Z" id="Shape" fill="#0B3E5D"></path>
                        <path d="M33.9826387,153.287113 C35.2633109,145.08023 41.2504538,143.809735 47.474521,143.347737 C51.2332941,143.071822 54.3133109,139.311671 56.1702857,136.360016 L50.9963697,161.596661 C50.9963697,162.533491 46.2258655,163.297071 40.3411765,163.297071 C34.4564874,163.297071 29.6795798,162.533491 29.6795798,161.596661 L29.4298487,160.390333 C31.0242857,159.896252 33.1950252,158.292092 33.9826387,153.287113 Z" id="Shape" fill="#0B3E5D" style="mix-blend-mode: multiply;"></path>
                        <path d="M20.1385714,83.4933195 C18.0958992,80.3491659 18.8130756,78.9246718 22.027563,75.9216843 C25.2420504,72.9186968 26.6571933,72.0717003 24.985916,69.3446283 C23.551563,66.9768881 22.5398319,65.2187288 22.629479,62.2414078 C23.4725084,64.138521 24.6751158,65.8535566 26.1705378,67.2913035 C35.6859328,76.4991819 19.7223529,76.9162635 21.6881849,81.5811607 C22.699916,83.9553175 27.1950756,85.1103127 30.7041176,87.1443876 C27.4640168,86.7529726 21.5921345,85.7391435 20.1385714,83.4933195 Z" id="Shape" fill="#B3C4C3"></path>
                        <ellipse id="Oval" fill="#B3C4C3" cx="40.2195126" cy="131.252371" rx="15.2335966" ry="1.95707519"></ellipse>
                        <path d="M42.8000672,130.860956 C42.8000672,130.860956 54.633479,122.031659 58.5203193,119.805085 C62.4071597,117.578511 61.0816639,111.874118 57.2972773,107.356804 C53.5128908,102.839489 45.2077311,95.8838513 56.1702857,89.2105457 C67.1328403,82.5372401 79.619395,77.8017598 74.3430252,68.3436325 C69.0666555,58.8855051 57.0923697,51.0187045 59.1990756,44.9293132 C61.3057815,38.8399218 69.3484034,36.6325977 68.2406218,31.0693708 C67.1328403,25.5061439 60.1467731,24.1137331 59.1990756,17.1580953 C58.2513782,10.2024576 57.9696303,0.590330878 52.4115126,0.526164479 C46.853395,0.461998079 49.9142017,13.8214425 49.6388571,16.8757632 C49.3635126,19.9300838 41.0327395,23.6774015 40.3411765,27.3733862 C39.6496134,31.0693708 48.5246723,36.4978482 46.5844538,40.7392473 C44.6442353,44.9806463 23.5323529,58.3272574 21.6113445,69.1777957 C19.6903361,80.0283339 41.6026387,86.7593892 32.4394286,94.106442 C23.2762185,101.453495 7.17816807,104.91848 32.164084,130.860956 L42.8000672,130.860956 Z" id="Shape" fill="#B3C4C3"></path>
                        <path d="M48.2813445,94.106442 C50.4456807,86.6246398 71.2117815,81.6132439 75.1754622,70.2301246 C77.8584706,78.4626737 66.4668908,82.9928215 56.3815966,89.2105457 C45.5471092,95.8838513 53.7626218,102.839489 57.4957815,107.356804 C61.2289412,111.874118 62.5480336,117.584928 58.7060168,119.805085 C57.8351597,120.312 56.5544874,121.158996 55.094521,122.166409 C56.458437,120.183667 57.3164874,117.92501 56.3751933,115.910185 C54.0507731,110.905205 45.8096471,102.614907 48.2813445,94.106442 Z" id="Shape" fill="#C9DBDB"></path>
                        <path d="M21.5985378,69.1777957 C23.5195462,58.3272574 44.6506387,44.9742296 46.5716471,40.7392473 C48.4926555,36.5042649 39.6304034,31.0693708 40.3283697,27.3733862 C40.3780663,27.1189228 40.4575923,26.8712347 40.5652941,26.6354726 C42.3518319,31.2939532 48.166084,33.7836095 50.0294622,37.0496793 C52.648437,41.6375768 45.7392101,47.2008037 36.5824034,56.9412632 C27.4255966,66.6817227 26.0360672,67.7918014 32.1448739,76.7558475 C38.2536807,85.7198935 39.3038319,90.2307914 37.9719328,94.0807754 C35.9612773,99.8557514 26.7852605,101.472745 21.8930924,101.909076 C24.755395,98.9510052 29.0520504,96.7757642 32.4202185,94.0807754 C41.5898319,86.7593892 19.6583193,80.0283339 21.5985378,69.1777957 Z" id="Shape" fill="#C9DBDB"></path>
                        <path d="M37.2099328,133.549528 C39.6688235,123.757735 41.8331597,113.863276 43.8374118,103.949568 C45.8416639,94.0358589 47.634605,84.0579838 49.1522017,74.0608587 C49.5556134,71.5583691 49.8693782,69.0494629 50.2343697,66.5469733 L50.7594454,62.7868222 L51.2076807,59.0202546 C51.4958319,56.5049317 51.8480168,53.9960255 52.0721345,51.4742859 L52.7765042,43.915484 C53.6493269,33.8259408 53.9336929,23.6939462 53.6281513,13.5711936 C54.0935223,23.6974197 53.9695137,33.8422188 53.2567563,43.9539839 L52.6740504,51.5320357 C52.4691429,54.0601919 52.1681849,56.5755147 51.9248571,59.0972542 L51.5342521,62.8830718 L51.0668067,66.6560561 C50.7402353,69.171379 50.4648908,71.6867019 50.1063025,74.1956081 C48.7423866,84.2440663 47.0775126,94.2476081 45.2525546,104.219067 C43.4275966,114.190525 41.4105378,124.110651 39.0733109,134.017943 L37.2099328,133.549528 Z" id="Shape" fill="#0B3E5D"></path>
                        <path d="M77.3013782,65.6935601 C80.2533277,63.0499045 94.4047563,57.3134283 96.9532941,52.9565298 C98.3300168,50.6080395 96.6779496,46.5398898 94.8529916,43.2096536 C96.367864,44.5475246 97.7825496,45.995169 99.0856134,47.5408856 C105.636252,55.4782693 99.6042857,59.8287512 87.8156975,65.6935601 C79.7410588,69.7103768 79.408084,72.3732824 81.002521,75.9216843 C78.2490756,71.7123684 75.7837815,67.0603045 77.3013782,65.6935601 Z" id="Shape" fill="#B3C4C3"></path>
                        <path d="M13.4790756,123.828318 C14.4972101,116.660932 17.3210924,111.033538 10.9177311,108.479716 C5.36601681,106.253141 2.74063866,104.725981 3.91245378,97.6548439 C5.53890756,103.782735 12.0895462,104.469316 15.6177983,106.355808 C19.741563,108.556715 17.9550252,116.673765 16.7191765,122.166409 C16.1433052,124.549224 16.5643274,127.064368 17.8845882,129.128463 C15.1503529,128.095384 13.1012773,126.452724 13.4790756,123.828318 Z" id="Shape" fill="#B3C4C3"></path>
                    </g>
                    <g id="table" transform="translate(100.726050, 170.682624)" fill="#013A51" fill-rule="nonzero">
                        <path d="M0.941294118,0.250248959 C-3.02398206,31.3905421 11.3290007,62.0216857 37.7729503,78.8538236 C64.2168999,95.6859616 97.9866463,95.6859616 124.430596,78.8538236 C150.874546,62.0216857 165.227528,31.3905421 161.262252,0.250248959 L0.941294118,0.250248959 Z" id="Shape"></path>
                    </g>
                    <g id="reveil" transform="translate(174.364706, 117.424512)" fill-rule="nonzero">
                        <path d="M40.9494958,23.2731532 C40.9524102,13.5269401 34.0808498,5.13748057 24.5409156,3.23998577 C15.0009813,1.34249097 5.45278975,6.46605857 1.74081498,15.4745389 C-1.97115978,24.4830192 1.1881298,34.8644863 9.28487395,40.2644159 L3.09922689,53.6559435 L38.9132269,53.6559435 L32.5098655,39.8152511 C37.8127261,35.9809295 40.9529438,29.8259456 40.9494958,23.2731532 Z" id="Shape" fill="#11ABEC"></path>
                        <path d="M11.3147395,27.7006348 C5.25715966,21.2839948 4.39910924,14.8224384 4.91137815,10.2281241 C1.21961946,14.6817814 -0.410985968,20.4969712 0.42559509,26.225667 C1.26217615,31.9543628 4.4872253,37.0575209 9.29768067,40.2644159 L3.09922689,53.6559435 L28.6358319,53.6559435 C27.7073445,37.0753458 22.3093109,39.3981695 11.3147395,27.7006348 Z" id="Shape" fill="#000000" opacity="0.2"></path>
                        <ellipse id="Oval" fill="#FFFFFF" cx="20.574" cy="23.2731532" rx="15.4641176" ry="15.4961856"></ellipse>
                        <ellipse id="Oval" fill="#0B3E5D" cx="20.574" cy="23.2731532" rx="1.12058824" ry="1.122912"></ellipse>
                        <rect id="Rectangle-path" fill="#0B3E5D" x="19.9912941" y="12.262199" width="1.19742857" height="10.4142067"></rect>
                        <rect id="Rectangle-path" fill="#0B3E5D" transform="translate(25.173654, 26.560526) rotate(126.800000) translate(-25.173654, -26.560526) " x="24.5749397" y="21.3534225" width="1.19742857" height="10.4142067"></rect>
                        <path d="M12.7618992,17.1003456 C13.4022353,17.1003456 15.2079832,15.5026022 16.1684874,13.474944 C17.1289916,11.4472857 16.4822521,7.69996798 18.4032605,6.96847102 C20.3242689,6.23697406 23.6155966,4.61998079 26.0872941,5.36431103 C28.5589916,6.10864126 29.1545042,7.38555262 30.6336807,7.38555262 C32.1128571,7.38555262 28.9303866,3.97190015 27.9762857,2.79765503 C27.4759452,2.1649388 26.9043985,1.59220685 26.2729916,1.0908288 C26.2729916,1.0908288 22.3413277,-0.397831679 18.8643025,0.17324928 C15.3872773,0.744330238 13.1012773,3.65106815 13.1012773,3.65106815 C13.1012773,3.65106815 9.89959664,8.14271614 9.89959664,8.88062974 C9.89959664,9.61854333 12.121563,17.1003456 12.7618992,17.1003456 Z" id="Shape" fill="#EA9F91"></path>
                    </g>
                    <g id="feuilles" transform="translate(92.094118, 8.166400)" fill="#C0E0ED" fill-rule="nonzero">
                        <path d="M14.3691429,43.6909016 C14.3691429,43.6909016 0.870857143,33.6937766 0.461042017,10.8954547 C0.461042017,10.8954547 20.644437,5.42847743 24.7297815,0.237415679 C24.7297815,0.237415679 23.231395,16.9206796 35.6154958,28.5219647 L29.0712605,33.1676121 C29.0712605,33.1676121 26.208958,29.888709 25.5237983,27.8418009 L19.7991933,30.9795378 C19.7991933,30.9795378 20.8877647,34.1236914 21.9827395,35.4711858 L17.0713613,38.2046745 C17.0713613,38.2046745 18.1599328,40.5274981 19.1140336,40.8034137 L14.3691429,43.6909016 Z M24.915479,40.0077503 L30.0381681,36.7994303 C31.1504556,38.7500985 32.7112955,40.4065678 34.590958,41.6311602 L30.3007059,44.4544818 C30.3007059,44.4544818 27.5984874,43.7679013 24.915479,40.0077503 Z" id="Shape"></path>
                    </g>
                    <g id="ordi" transform="translate(109.050420, 135.391104)">
                        <polygon id="Shape" fill="#FFFFFF" fill-rule="nonzero" points="12.2368235 35.4583525 0.0320168067 1.70682624 40.7637983 1.70682624 53.1350924 32.3591154 83.2052773 32.3591154 83.2052773 35.6316018"></polygon>
                        <polygon id="Shape" fill="#DBDCDD" fill-rule="nonzero" points="0.0320168067 1.70682624 2.11951261 0.263082239 42.6848067 0.263082239 55.4210924 32.1601996 53.1350924 32.1601996 40.7637983 1.70682624"></polygon>
                        <path d="M12.2368235,35.4583525 L36.345479,35.5161023 C35.4764658,34.1111994 34.2556675,32.958659 32.8044202,32.1730329 C27.6305042,29.407461 25.908,23.1897369 24.5312773,13.1669452 C23.8589244,8.30313214 20.5868067,4.42106495 17.3979328,1.70682624 L0.0384201681,1.70682624 L12.2368235,35.4583525 Z" id="Shape" fill="#DBDCDD" fill-rule="nonzero"></path>
                        <g id="logo" transform="translate(18.569748, 14.276097)"></g>
                    </g>
                </g>
            </g>
        </g>
    </g>
</svg>