<?xml version="1.0" encoding="UTF-8"?>
<svg width="1239px" height="220px" viewBox="0 0 1239 220" version="1.1" xmlns="http://www.w3.org/2000/svg" xmlns:xlink="http://www.w3.org/1999/xlink">
    <!-- Generator: sketchtool 51.1 (57501) - http://www.bohemiancoding.com/sketch -->
    <title>A3221386-A714-4195-93D1-6760AF3D06E7</title>
    <desc>Created with sketchtool.</desc>
    <defs></defs>
    <g id="Design" stroke="none" stroke-width="1" fill="none" fill-rule="evenodd">
        <g id="5a-Creation" transform="translate(-112.000000, -3898.000000)">
            <g id="Section-6" transform="translate(0.000000, 3811.000000)">
                <g id="Pattern" transform="translate(112.000000, 88.000000)">
                    <polygon id="Stroke-103" stroke="#58676D" points="145.0842 46.0453656 129.038834 60.0842 115 44.0388344 131.043645 30"></polygon>
                    <path d="M4.1979901,188.054373 C3.93827827,188.770684 3.71477343,189.50735 3.53138987,190.263978 C0.704503865,201.929678 6.94717784,213.909302 20.5580742,216.75302 C32.8764785,219.326457 44.9946679,212.66202 47.8215539,200.99632 C48.0049375,200.239888 48.1433069,199.482672 48.2403808,198.726827 L4.1979901,188.054373 Z" id="Fill-68" stroke="#FFFFFF" transform="translate(25.552176, 202.678549) rotate(-14.000000) translate(-25.552176, -202.678549) "></path>
                    <path d="M1197.5,40.5 C1220.47979,40.5 1233.97979,27 1238,0 L1157,0 C1161.02021,27 1174.52021,40.5 1197.5,40.5 Z" id="Oval-4" stroke="#58676D"></path>
                    <path d="M1080,69 C1091.34805,69 1098.01471,62.3333333 1100,49 L1060,49 C1061.98529,62.3333333 1068.65195,69 1080,69 Z" id="Oval-4-Copy-4" fill="#FFFFFF" opacity="0.300000012"></path>
                    <path d="M434,149 C445.348045,149 452.014712,142.333333 454,129 L414,129 C415.985288,142.333333 422.651955,149 434,149 Z" id="Oval-4-Copy-5" fill="#FFFFFF" opacity="0.300000012"></path>
                </g>
            </g>
        </g>
    </g>
</svg>