<?xml version="1.0" encoding="UTF-8"?>
<svg width="41px" height="41px" viewBox="0 0 41 41" version="1.1" xmlns="http://www.w3.org/2000/svg" xmlns:xlink="http://www.w3.org/1999/xlink">
    <!-- Generator: sketchtool 51.1 (57501) - http://www.bohemiancoding.com/sketch -->
    <title>FD94705A-CF81-49D1-BD9A-2EB32C70C95F</title>
    <desc>Created with sketchtool.</desc>
    <defs></defs>
    <g id="Design" stroke="none" stroke-width="1" fill="none" fill-rule="evenodd">
        <g id="5a-Creation" transform="translate(-395.000000, -4038.000000)">
            <g id="Section-6" transform="translate(0.000000, 3811.000000)">
                <g id="1" transform="translate(245.000000, 227.000000)">
                    <g id="Building-Icon" transform="translate(150.000000, 0.000000)">
                        <path d="M38.6810699,18.3242925 C38.6810699,16.8312736 37.4645502,15.6167453 35.973395,15.6167453 L29.395679,15.6167453 L29.395679,38.6792453 L38.6810699,38.6792453 L38.6810699,18.3242925 Z M27.0767489,5.02830189 C27.0767489,3.53528302 25.8602293,2.32075472 24.369074,2.32075472 L5.02853908,2.32075472 C3.53544979,2.32075472 2.31893014,3.53528302 2.31893014,5.02830189 L2.31893014,38.6792453 L27.0767489,38.6792453 L27.0767489,5.02830189 Z M41,18.3242925 L41,39.8396226 C41,40.4816981 40.4816737,41 39.841502,41 L1.1604321,41 C0.52026039,41 0,40.4816981 0,39.8396226 L0,5.02830189 C0,2.255 2.25510637,0 5.02853908,0 L24.369074,0 C27.1405727,0 29.395679,2.255 29.395679,5.02830189 L29.395679,13.2959906 L35.973395,13.2959906 C38.7448936,13.2959906 41,15.5509906 41,18.3242925 Z" id="Building" fill="#FFFFFF"></path>
                        <path d="M19.8298505,27.4777358 C19.1896788,27.4777358 18.6694184,27.9979717 18.6694184,28.6381132 L18.6694184,33.0707547 C18.6694184,33.7128302 19.1896788,34.2311321 19.8298505,34.2311321 C20.4700222,34.2311321 20.9902826,33.7128302 20.9902826,33.0707547 L20.9902826,28.6381132 C20.9902826,27.9979717 20.4700222,27.4777358 19.8298505,27.4777358 Z" id="Path" fill="#013A51"></path>
                        <path d="M9.56582858,27.4777358 C8.92565687,27.4777358 8.40733053,27.9979717 8.40733053,28.6381132 L8.40733053,33.0707547 C8.40733053,33.7128302 8.92565687,34.2311321 9.56582858,34.2311321 C10.2060003,34.2311321 10.7262607,33.7128302 10.7262607,33.0707547 L10.7262607,28.6381132 C10.7262607,27.9979717 10.2060003,27.4777358 9.56582858,27.4777358 Z" id="Path" fill="#013A51"></path>
                        <path d="M19.8298505,17.1233019 C19.1896788,17.1233019 18.6694184,17.6416038 18.6694184,18.2836792 L18.6694184,22.7163208 C18.6694184,23.3583962 19.1896788,23.8766981 19.8298505,23.8766981 C20.4700222,23.8766981 20.9902826,23.3583962 20.9902826,22.7163208 L20.9902826,18.2836792 C20.9902826,17.6416038 20.4700222,17.1233019 19.8298505,17.1233019 Z" id="Path" fill="#013A51"></path>
                        <path d="M9.56582858,17.1233019 C8.92565687,17.1233019 8.40733053,17.6416038 8.40733053,18.2836792 L8.40733053,22.7163208 C8.40733053,23.3583962 8.92565687,23.8766981 9.56582858,23.8766981 C10.2060003,23.8766981 10.7262607,23.3583962 10.7262607,22.7163208 L10.7262607,18.2836792 C10.7262607,17.6416038 10.2060003,17.1233019 9.56582858,17.1233019 Z" id="Path" fill="#013A51"></path>
                        <path d="M19.8298505,6.76886792 C19.1896788,6.76886792 18.6694184,7.28716981 18.6694184,7.92924528 L18.6694184,12.3618868 C18.6694184,13.0020283 19.1896788,13.5222642 19.8298505,13.5222642 C20.4700222,13.5222642 20.9902826,13.0020283 20.9902826,12.3618868 L20.9902826,7.92924528 C20.9902826,7.28716981 20.4700222,6.76886792 19.8298505,6.76886792 Z" id="Path" fill="#013A51"></path>
                        <path d="M10.7262607,7.92924528 L10.7262607,12.3618868 C10.7262607,13.0020283 10.2060003,13.5222642 9.56582858,13.5222642 C8.92565687,13.5222642 8.40733053,13.0020283 8.40733053,12.3618868 L8.40733053,7.92924528 C8.40733053,7.28716981 8.92565687,6.76886792 9.56582858,6.76886792 C10.2060003,6.76886792 10.7262607,7.28716981 10.7262607,7.92924528 Z" id="Path" fill="#013A51"></path>
                    </g>
                </g>
            </g>
        </g>
    </g>
</svg>