<?xml version="1.0" encoding="UTF-8"?>
<svg width="54px" height="62px" viewBox="0 0 54 62" version="1.1" xmlns="http://www.w3.org/2000/svg" xmlns:xlink="http://www.w3.org/1999/xlink">
    <!-- Generator: sketchtool 51.1 (57501) - http://www.bohemiancoding.com/sketch -->
    <title>2208F0A2-845D-4B43-8808-0C415CB664E5</title>
    <desc>Created with sketchtool.</desc>
    <defs></defs>
    <g id="Design" stroke="none" stroke-width="1" fill="none" fill-rule="evenodd">
        <g id="5a-Creation" transform="translate(-1004.000000, -4042.000000)">
            <g id="Section-6" transform="translate(0.000000, 3811.000000)">
                <g id="2" transform="translate(859.000000, 231.000000)">
                    <g id="Phone-Icon" transform="translate(145.000000, 0.000000)">
                        <path d="M36.6738406,37.4299057 C36.6738406,37.8921226 36.3539937,38.2885849 35.9294697,38.3524057 C32.0641682,38.9306604 28.1368358,38.7353302 24.3141806,37.7741509 C13.3482777,34.9931132 4.9159501,26.0195283 2.83016054,14.9031132 C2.49092897,13.1780189 2.32615935,11.4181132 2.32615935,9.52283019 C2.32615935,7.2929717 2.57234455,5.09599057 3.05889955,2.99377358 C3.15000746,2.60311321 3.53188528,2.32075472 3.96997863,2.32075472 L10.5937174,2.32075472 C12.2627367,2.32075472 13.6216015,3.6745283 13.6216015,5.34160377 L13.6216015,8.75698113 L9.69233063,10.4356604 C8.30632735,11.0274528 7.49217158,12.5011321 7.75774144,13.94 C9.38992992,22.8323585 16.0698842,30.2046226 24.777474,32.7207075 C26.3767086,33.1848585 28.0806203,32.3938679 28.7300065,30.8853774 L30.2226254,27.4100472 L33.6459566,27.4100472 C35.3149759,27.4100472 36.6738406,28.7657547 36.6738406,30.4308962 L36.6738406,37.4299057 Z M33.6459566,25.0892925 L29.4549928,25.0892925 C28.9897609,25.0892925 28.5691138,25.3658491 28.3849595,25.7913208 L26.5918783,29.9725472 C26.4057856,30.4076887 25.9056613,30.6300943 25.4249217,30.492783 C17.5566877,28.2184434 11.5203042,21.5559434 10.0451315,13.5203302 C9.97534669,13.1374057 10.2118396,12.7370755 10.6092251,12.5688208 L15.2421592,10.5903774 C15.6705602,10.4066509 15.9477608,9.98698113 15.9477608,9.52283019 L15.9477608,5.34160377 C15.9477608,2.39617925 13.5460013,0 10.5937174,0 L3.96997863,0 C2.45991351,0 1.12431035,1.0404717 0.792832646,2.47353774 C0.267508325,4.74400943 0,7.11698113 0,9.52283019 C0,11.5708962 0.178338884,13.4758491 0.544708982,15.3401887 C2.79526815,27.3307547 11.9002436,37.0199057 23.7423331,40.0233491 C26.3166161,40.6712264 28.9432377,41 31.5504747,41 C33.1186938,41 34.7062975,40.8800943 36.2725782,40.6460849 C37.827228,40.4140094 39,39.0331604 39,37.4299057 L39,30.4308962 C39,27.4854717 36.5982405,25.0892925 33.6459566,25.0892925 Z" id="Call" fill="#FFFFFF"></path>
                        <path d="M46.7356887,43.1399057 L46.7356887,46.7660849 C46.7356887,51.3921226 42.9721981,55.1556132 38.3461604,55.1556132 C33.7201227,55.1556132 29.9585661,51.3921226 29.9585661,46.7660849 L29.9585661,43.6504717 C36.4315378,43.1959906 21.1629057,43.1959906 27.6358774,43.6504717 L27.6358774,46.7660849 C27.6358774,52.6724057 32.4417736,57.4763679 38.3461604,57.4763679 C44.2524812,57.4763679 49.0545095,52.6724057 49.0545095,46.7660849 L49.0545095,43.1399057 C49.0545095,39.380283 52.1140378,36.3207547 55.8736604,36.3207547 C56.5138019,36.3207547 57.0321038,35.8024528 57.0321038,35.1603774 C57.0321038,34.5202358 56.5138019,34 55.8736604,34 C50.8337548,34 46.7356887,38.1 46.7356887,43.1399057 Z" id="Plug" fill="#013A51" transform="translate(41.516052, 45.738184) scale(1, -1) rotate(-89.000000) translate(-41.516052, -45.738184) "></path>
                    </g>
                </g>
            </g>
        </g>
    </g>
</svg>