<svg width="30" height="36" viewBox="0 0 30 36" xmlns="http://www.w3.org/2000/svg"><g fill="none" fill-rule="evenodd"><path d="M28 26.3c0 1.8-1.5 3.3-3.4 3.3H10a3.4 3.4 0 0 1-3.3-3.3V5.9c0-1.8 1.5-3.3 3.3-3.3h10.1c.5 0 1 .1 1.4.5l6 6c.3.3.5.8.5 1.3v15.9zM20.3 34H5.7a3.4 3.4 0 0 1-3.4-3.4V10.3c0-1.5 1-2.8 2.4-3.2v19.2c0 3 2.4 5.3 5.3 5.3h13.4a3.4 3.4 0 0 1-3.1 2.4zm8.6-26.3l-6-6A3.9 3.9 0 0 0 20 .5h-10C7.3.5 5.1 2.5 4.7 5a5.4 5.4 0 0 0-4.5 5.3v20.3c0 3 2.4 5.4 5.4 5.4h14.6c2.6 0 4.8-2 5.2-4.5a5.4 5.4 0 0 0 4.5-5.2V10.4c0-1-.4-2-1.1-2.7z" fill="#013A51"/><path d="M23.4 21c0 .6-.4 1-1 1H12.2a1 1 0 1 1 0-2h10.2c.6 0 1 .5 1 1zM23.4 14.6c0 .6-.4 1-1 1H12.2a1 1 0 1 1 0-2h10.2c.6 0 1 .5 1 1z" fill="#0ED094"/></g></svg>