<svg width="38" height="34" viewBox="0 0 38 34" xmlns="http://www.w3.org/2000/svg"><g fill="none" fill-rule="evenodd"><path d="M34.9 17.3L24 28a10.5 10.5 0 0 1-14.5.3l-2.8-2.5a1 1 0 0 0-.7-.3H2.8a.8.8 0 0 1-.8-.8v-3.4c0-.4.4-.8.8-.8H20c.4 0 .8.3.8.7a2.7 2.7 0 0 1-.3 1.1c-.4 1-1.4 1.7-2.5 1.7h-5.6a1 1 0 1 0 0 2H18c2 0 3.6-1.2 4.4-2.8l9.2-9.2c.9-1 2.4-1 3.3 0 .9.9.9 2.4 0 3.3m1.4-4.8a4.4 4.4 0 0 0-6.2 0l-7.5 7.6c-.5-1-1.4-1.6-2.6-1.6H2.8A2.8 2.8 0 0 0 0 21.3v3.4c0 1.6 1.3 2.8 2.8 2.8h3l2.5 2.3a12.5 12.5 0 0 0 17.3-.4l10.7-10.7a4.3 4.3 0 0 0 0-6.2" fill="#013A51"/><path d="M18.8 2a4.3 4.3 0 1 1 0 8.7 4.3 4.3 0 0 1 0-8.7m0 10.7a6.3 6.3 0 1 0 0-12.7 6.3 6.3 0 0 0 0 12.7" fill="#0ED094"/></g></svg>