<svg width="33" height="36" viewBox="0 0 33 36" xmlns="http://www.w3.org/2000/svg"><g fill="none" fill-rule="evenodd"><path d="M30.5 15.2a18 18 0 0 1-8.7 15.4l-5.1 3c-.3.2-.5.2-.8 0l-5-3A18 18 0 0 1 2 15.2v-4.8c0-.2.1-.5.4-.6l13.8-7.6 13.8 7.6c.3.1.4.4.4.6v4.8zm.7-7.2L16.8.1a1 1 0 0 0-1 0l-14.4 8C.5 8.4 0 9.3 0 10.3v4.8a20 20 0 0 0 9.7 17l5.1 3.2a2.9 2.9 0 0 0 3 0l5.1-3.1a20 20 0 0 0 9.7-17.1v-4.8c0-1-.5-1.9-1.4-2.4z" fill="#013A51"/><path d="M23.6 13.2c.4.4.4 1 0 1.4L14.9 23a1 1 0 0 1-1.5 0L9 18.7a1 1 0 0 1 0-1.4 1 1 0 0 1 1.5 0l3.7 3.5 7.9-7.6a1 1 0 0 1 1.5 0z" fill="#0ED094"/></g></svg>