<svg width="384" height="292" viewBox="0 0 384 292" xmlns="http://www.w3.org/2000/svg" xmlns:xlink="http://www.w3.org/1999/xlink"><defs><path d="M352 131.6l-.5 1.5c-2 8.2 2.4 16.6 11.9 18.5 8.6 1.8 17-2.8 19-11 .2-.5.3-1 .3-1.6l-30.8-7.4z" id="a"/><linearGradient x1="40.4%" y1="24%" x2="77.7%" y2="149.9%" id="b"><stop stop-color="#0ED094" stop-opacity="0" offset="0%"/><stop stop-color="#0ED094" offset="100%"/></linearGradient><path d="M118 10c14.2-1.3 23-3 23-4.6C141 2.2 109.4 0 70.4.6 31.5 1.2 0 4.2 0 7.4 0 10 20.6 12 49 12.2c-14.1 1.3-23 3-23 4.6 0 3.2 31.7 5.3 70.6 4.8 39-.6 70.4-3.6 70.4-6.8 0-2.6-20.6-4.5-49-4.8" id="c"/><path d="M6.2.3a76 76 0 0 0 58.5 102.5c44 9.2 87.3-14.6 97.4-56.3.7-2.7 1.2-5.4 1.5-8L6.2.2z" id="d"/><path d="M.5 4.5L25.8.3s8.2 9.4 5.6 31l-8.2 2s.2 1.2-.1 3.3l-4.4 1s1.3-2.5.5-8.2l-4.1.6s.6 2 .3 4l-4.4.7s.5-1.5 0-4.4l-3.4.7S9.7 13.5.5 4.5zm6.9 33l4.1-.6c0 1.2-.4 3.2-.4 3.2l3.6-.5c0 1.9-.5 3.3-.5 3.3l-7.7 1c.9-2 .9-6.3.9-6.3zm11 9.8c0 2.3-.7 4.6-.7 4.6l-5 1c.8-2.8.5-4.8.5-4.8l5.2-.8z" id="e"/><path d="M25 .4s.7 10.1 13 21.3l7.5-.8s1 4.5-3.6 7.2c-4.7 2.6-23 2.6-23 2.6s-3.3-.1-9.7-7.2C2.8 16.5 1.1 6.4.6 4L25.1.4z" id="f"/></defs><g fill="none" fill-rule="evenodd"><g transform="translate(0 52)"><path d="M34.4 163.4a82.9 82.9 0 0 0-10 15.5 112 112 0 0 0-6.7 17.3l-1.2 4.5-1 4.5c-.8 3-1.2 6.1-1.7 9.2-.3 1.5-.4 3-.6 4.6l-.5 4.6-.6 9.3.5-9.3.5-4.6c.1-1.6.2-3.1.5-4.6.5-3.1.9-6.2 1.6-9.2l1-4.6 1.2-4.5a112.6 112.6 0 0 1 11-25.7c1.6-2.6 3.4-5.2 5.5-7.5l.5.5z" fill="#11ABEC"/><path stroke="#58676D" stroke-width=".7" d="M21.5 179.9l-11.2 9.8-9.8-11.2 11.2-9.8z"/><path stroke="#3799D1" stroke-width=".7" d="M84 0l5.3 13.5L98 4z"/><path stroke="#58676D" stroke-width=".7" d="M377.6 61l-9.8 3.4 6.7 6.4z"/><use stroke="#58676D" stroke-width=".7" transform="rotate(-14 366.9 141.8)" xlink:href="#a"/></g><g transform="translate(114 78.3)"><path d="M204.1 136.8H2.1c-1.1 0-2-1-2-2.1V2.7C0 1.4 1 .4 2 .4h202c1.2 0 2.1 1 2.1 2.1v132c0 1.2-.9 2.2-2 2.2" stroke="#DCECF3" fill="#F8FDFF"/><ellipse fill="#8FBACD" cx="6.3" cy="7.7" rx="1.4" ry="1.4"/><ellipse fill="#8FBACD" cx="11.9" cy="7.7" rx="1.4" ry="1.4"/><ellipse fill="#8FBACD" cx="17.5" cy="7.7" rx="1.4" ry="1.4"/></g><path d="M304.4 122.8l-174.3-.5c-1.1 0-2-1-2-2.1V99.3c0-1.2 1-2.1 2-2l174.3.4c1.2 0 2.1 1 2.1 2v21c0 1.1-1 2-2.1 2" fill="#3799D0" opacity=".1"/><path d="M290.2 113.3l-174 8.6c-1.2 0-2.1-.8-2.2-2l-1-20.8c-.1-1.2.8-2.2 2-2.2l174-8.7c1.1 0 2.1.9 2.2 2l1 20.9c0 1.1-.8 2.1-2 2.2" fill="#000" opacity=".1"/><path d="M288.1 111.2l-174 8.6c-1.2.1-2.1-.8-2.2-2l-1-20.8c-.1-1.2.8-2.2 2-2.2l174-8.7c1.1 0 2.1.9 2.2 2l1 20.9c0 1.2-.8 2.1-2 2.2" fill="#FFF"/><path fill="#8FBACD" d="M172.4 109.5l-18.5 1-.1-3 18.5-1zM193.4 108.5l-18.5.9-.2-3 18.5-1zM214.4 107.4l-18.6 1-.1-3 18.5-1zM235.3 106.4l-18.5 1-.2-3 18.6-1zM265.4 104.9l-18.6 1-.1-3 18.5-1zM243.6 103.4a2.6 2.6 0 1 1-5.1.3 2.6 2.6 0 0 1 5-.3"/><path d="M273.7 100.4c.5 1.3 1.5 2 2.8 2 1.3-.1 2-.7 2.5-2l2 1.3c-1 1.8-2.3 2.5-4.5 2.6-2.6.2-4.6-1-5.3-3.8l-1.8.1v-1.2h1.6v-.7-.7h-1.7V97h1.8c.4-2.7 2.3-4.2 5-4.4 2.3 0 3.7.8 4.6 2.6l-2.1 1.3c-.5-1.2-1.2-2-2.5-1.9-1.3 0-2.2.9-2.6 2.2l3.7-.2-.2 1.2-3.6.2V99.2l3.5-.2-.1 1.2-3 .2z" fill="#11ABEC"/><g><path d="M110.2 47.6c-6 .5-5.8 9.5-19 7-13.4-2.5-17 8.3-20.7 19.1C67 84.6 62.3 84 60 82c-2.4-1.8-3.9-14.8-13.7-12.9-9.8 2-9.3 18.5-15.6 31.3-3.4 6.7-10.6 8.8-10.6 8.8l100.4-1.1V63c-.9-7.9-4-15.5-9.6-15.5h-.6" fill="url(#b)" transform="translate(184.7 94)"/><path d="M320.3 96c32-7.7 62.6 17 62.8 44.7a27 27 0 0 1-44 23c-17.8-16.4-21.7-35-36.1-33.8-12.4 1-20.6 22.5-26.7 22.6-6.2.2-5-9.5-14.4-9.3-9.2.2-13.2 18.8-16 26.3-1.3 3.6-2.5 6.3-5.4 6.9-3.5.7-6.2-1.3-7.8-6.7-1.6-5.3-2.3-10-4.3-12a5 5 0 0 0-7.8.5c-2.6 3.8-4.8 15.2-11.2 30.3-5.8 13.4-24.7 14.7-24.7 14.7" stroke="#013A51" stroke-width="1.4"/></g><g><path d="M145.5 153.4l-10.9-.2c-1.1 0-2-1-2-2.1l.1-10.9c0-1.1 1-2 2.2-2l10.8.2c1.2 0 2.1 1 2 2.1l-.1 10.8c0 1.2-1 2.1-2.1 2.1M166.4 153.8l-10.8-.2c-1.2 0-2-1-2-2.2l.1-10.8c0-1.2 1-2 2.2-2l10.8.1c1.2 0 2 1 2 2.2l-.1 10.8c0 1.2-1 2-2.2 2M187.4 154.1l-10.8-.2c-1.2 0-2.1-1-2-2l.1-11c0-1 1-2 2.1-2l10.9.2c1.1 0 2 1 2 2.1l-.1 10.9c0 1.1-1 2-2.2 2M145 174.4l-10.8-.2c-1.1 0-2-1-2-2.2l.2-10.8c0-1.1 1-2 2.1-2l10.9.1c1.1 0 2 1 2 2.2l-.2 10.8c0 1.2-1 2-2.1 2M166 174.7l-10.8-.2c-1.1 0-2-1-2-2l.2-11c0-1 1-2 2-2l11 .2c1 0 2 1 2 2.1l-.2 10.9c0 1.1-1 2-2.1 2M187 175.1l-10.8-.2c-1.1 0-2-1-2-2.1l.1-10.9c0-1.1 1-2 2.2-2l10.8.2c1.2 0 2.1 1 2 2.1l-.1 10.8c0 1.2-1 2.1-2.1 2.1M144.7 195.3l-10.8-.1c-1.2 0-2.1-1-2-2.2l.1-10.8c0-1.2 1-2.1 2.1-2l10.9.1c1.1 0 2 1 2 2.1l-.1 10.9c0 1.1-1 2-2.2 2M165.7 195.7l-10.8-.2c-1.2 0-2.1-1-2.1-2.1l.2-10.8c0-1.2 1-2.1 2.1-2.1l10.9.2c1.1 0 2 1 2 2.1l-.2 10.9c0 1.1-1 2-2.1 2M186.7 196l-10.9-.1c-1.1 0-2-1-2-2.1l.2-10.9c0-1.1 1-2 2.1-2l10.8.1c1.2 0 2.1 1 2.1 2.2l-.2 10.8c0 1.2-1 2.1-2.1 2" fill="#3799D0" opacity=".1"/><path fill="#8FBACD" d="M185.8 146.2h-3v-3h-1.2v3h-3.1v1l3 .1v3l1.1.1.1-3h3zM178 168l7.4.1V167l-7.3-.2zM177.7 188.3l7.4.1v-1.2h-7.4zM177.7 190.4l7.3.1v-1.2h-7.3z"/></g><g transform="translate(25.2 180)"><use fill="#11ABEC" xlink:href="#c" transform="translate(0 90.2)"/><use fill="#013A51" xlink:href="#d"/></g><g><path d="M169.2 92.5s-.1-1.6-.6-2.9c-.5-1.3-1-2.1-1-2.1l1.6-5.2L173 79h5s-4.8 3.1-5.5 6c-.7 3 1.3 3.7 1 7.4l-4.2.2" fill="#CACCCA"/><path d="M208.1 57.8a50.8 50.8 0 0 0-25.8 1c-3.2.8-6.8 1.4-9 4.4a58.1 58.1 0 0 0-9.7 20.4s2.1 3.3 5.8.6c0 0 2.1-5.2 10-11 5-3.7 14.9-.8 19.2.7 5.9 2 3.8 5 3.8 5H255.8c-.3-3.9-1.4-8-3.2-12.3-2.8-6.5-6-10.9-11.6-10.9s-11-.2-18.2 10.9c0 0-6.7-5.7-14.7-8.8z" fill="#063E5D"/><path d="M206 40s-2.8 4.8-1.5 8.6c1.3 3.8 3.6 4.2 4 7 .3 2.9-3.6 8.5 3.4 9.3 4.7.6 7.1-1.2 7.1-1.2s-.2-.8-2.4 2.8c0 0-1.6 8.3 3.5 8.4 6.8.2 9.6-8.8 10-14 0 0-3.3-.7-2.8-9.4 0 0 2-.2 2-4s-2.3-4.3-2.3-4.3-3.6-5.2-11.4-5c-7.8.2-9.6 1.7-9.6 1.7" fill="#98685F"/><path d="M168.6 92.5l-7.4.2-3.1 4.4s-.1 4.2 1.4 7.1c1.6 3 1.5 6.1 2.2 6 1.6-.2 5.1-5.2 5.9-8.3 0 0 .8-3.7 1-9.4" fill="#CACCCA"/><path d="M164 82.3s-1.3 5-4.1 8.3c-1.4 1.7-1.8 6.5-1.8 6.5s0 2.4.6 3c.7 1.1 2.9 5.5 3.2 6.8.4 1.3 3-3 3.3-5.1.5-2.2 1.4-9.3 1.4-9.3h2.6s0-1.3-.6-2.9c-.7-1.6-1.2-1.9.9-5.6 0 0-3.2 1.8-5.6-1.7" fill="#98685F"/><path d="M210.7 38.6l-5.5 3c-.7 1.8-1.5 4.7-.7 7 1.3 3.8 3.6 4.2 4 7 .3 2.2-2 6 .1 8l.8-.3s1.1-5.4-.2-6.6c-1.2-1.2-.4-1.9-.2-2.9.1-1-.7-3-.7-3-1.1-4.7 2.2-10.1 3.8-12.4l-1.4.2M165.6 90.8c-1.1 1-1.9 6.6-1.9 8.8 0 1.7-1.6 4.3-2.4 5.6l.6 1.7c.4 1.3 3-3 3.3-5.1.5-2.2 1.4-9.3 1.4-9.3h2c-.8-2.5-1.8-2.6-3-1.7M221.3 62L211 64.8h.8a12 12 0 0 0 6.3-.6c-.4.4-.9 1-1.6 2.3 0 0-1.3 6.4 2 8-1.2-5.5 3.5-9 5.1-10.9 1.6-1.9.9-3.5.9-3.5-2 2.6-3.3 2-3.3 2" fill="#000" opacity=".1"/><path d="M224.4 38.9s-1.6-5-7.7-5.2c-6 0-6.8 2.7-8.7 3.3-1.8.6-1.8 1-6.7.8-5-.2-5.8 7.3-1.6 9.4 4.8 2.4 6.9 1.3 8.1.7 1.3-.6 8.6-5.3 9.8-4 0 0 2.7.6 5-1.2 0 0-1 1.3-3.4 2 0 0 .7 1.2 0 2.4s-2.8 3.8-.6 5.8c2.2 2 2.2 1.8 2 2.8-.3 1-1 5.5-3.3 5s-2.5-1.7-7.1-2c-4.6-.1-4.9 4.1-4.2 5.9.8 1.7 2.3 3.6 6.4 3.2 4-.4 4.7-2.2 5.7-2.2s3.8-.3 3.8-2.6c0-2.2-.3-7 .5-7.6.7-.6.8-1.1.8-2.1s.4-4.7 1.6-4.7c1.2 0 1.6 3.7 0 5.8l-.8 1s1 0 1.8.6c.7.7 1.5 2.2.5 4.7 0 0 .1-.6 2.3-1 0 0-1.3-2.7-1-3.7 1.1-2.9 3.6-6.3 3.5-11.4-.2-5.1-6.7-5.7-6.7-5.7" fill="#FFF"/><path d="M205.1 70c-3.3-3.1-13.1-2-18.2-1.8-5 .2-6.8 2.2-10 4.7-2 1.5-3.6 4.7-4.7 7 1.6-1.9 4-4.3 7.3-6.8 4.9-3.6 14.8-.7 19 .8 6 2 4 5 4 5h8.6c-3.8-2.8-2.7-6-6-9" fill="#000" opacity=".1"/></g><g><path d="M68 143.6v6l.2 4s9.7 7.2 17.5 3.3c7.8-4 12.6-15.7 12.6-15.7s2.3-6.2 6.9-4.5c3.7 1.3 7.6-2.5 7.4-5.5-.2-3-1.7-7.2-2.7-6.8-1 .4 0 0 0 0l-.5 4.5-4.8 1.5h-6.5l-8.6 13.5-13.3 4-8.2-4.3zM72.6 180.8s7.3 2.6 8.6 2.6c1.3 0 1.9-2.7 3.7-1.5 1.9 1.2 7.4 6 11.6 7.7 4.3 1.7 4.3 7.6 4.3 7.6l8.3 2.1.6-8-24-22.1-7.7-1.7-8.9 7.8 1.2 3.4 2.3 2.1" fill="#CACCCA"/><path d="M35.1 181.3s4.2 12.3 17.6 17.8c13.3 5.5 14.2 4.8 13.5 7.8-.8 3-.8 7.7 1.7 11.9s-1.2 5.3-.6 9c.7 3.6 4.5 5.2 4.1 10.8-.3 5.6.7 12.3 7.6 14.4 7 2 5.3-7.6 5.3-7.6L75 194.7 46.3 184 35 181.3z" fill="#000" opacity=".1"/><path d="M29.1 123.6s2.4 2.8 6.9 4c5 1.3 16.5-.5 21.8-5.8 0 0 4.5-4.8 4.2-9.3-.2-4.5-2.7-5.6-1.7-9.6 1-4-1.3-5-4.5-8.5-3.2-3.4-3.8-5.2-3.5-11.1.4-6 1.2-14.2-6.7-18.6-8-4.4-17.8-3.2-23.5 2-5.6 5.2-10.6 16.6-7.3 24 3.3 7.5 4.1 8.4 3.8 13.7-.4 5.2.2 8 3.5 9.3 3.4 1.3 5.4 1.3 5.5 2.7.1 1.4-.1 5 1.5 7.2" fill="#063E5D"/><path d="M132 201.7c-.5-.1-3-1.3-6-4-3-2.5-12.6-7.4-13.1-7.7a28 28 0 0 1-2.2-2.2c.4-.5.7-1 .7-1.2 0-1-1.2-4.4-2.7-5.2 0 0-.2-.6-1.4.2 0 0-17-22.3-18.6-24.2-1.6-1.8-3-2.7-4.2-2.8 0 0-.3-1.8-.9-1.8-.5 0-12.2 3.8-13 4-.7.3-3 .6-3.5-.2-.6-.9 1.8-9.9 1.8-9.9s5.3 7 11.4 6.5c6.2-.6 14.7-14.7 15.8-16.7 1-2.1 2.2-5 3.3-5 1.1 0 3 1.1 6.5.3 1.9-.4 3.2-1.8 3.2-3 .1-1.2.2-5-.4-4.4-.6.5-.8 3.3-1.2 3.3-.4 0-2.5 1.2-3.3 1-.8-.4-1.8-3-6-2.1l-4.9-1.4s.1 2.8 1.2 4.2c0 0-8 8.1-12 9.2-4.2 1.1-6.3.6-6.6-.4-.3-1-3.7-10.4-7.3-13.9A7.2 7.2 0 0 0 60 123c-1.2.6-4.7 2.5-6.7 1.4-1.2-.7-2.2-2.8-2.8-4.2a7.6 7.6 0 0 0 3-3c1.3-2.2.3-4.8-.6-5.6-1.2-1.1-.8-2.3-.6-2.9.1-.5.8-3-2.4-4.8a7.7 7.7 0 0 0-9.5 1.8c-2.7 3-1.7 7.5-1.7 7.5.9 4.5 4 8 7.7 8h.1c.3 1 .6 3 .3 4-.4 1.3-.7 1.7-2.3 1.5-1.7-.3-7-.1-9.4 4.1V127s2.7-1 2.7-2.7c0-1.8-1-3-2.2-3.9 0 0 1.4-4 .2-6.5s-3-1.3-3-1.3-2.1 4.2-3 5.4c-.8 1.2.7 4.8.7 4.8s.4 1.1 1.1 1.6c0 0-7.8 12.6-9.2 20.5-1.4 8 3.7 8.6 4.6 8.7 1 .1 7.3-.1 11.4-2.4 0 0 3.7 4.1 3.9 4.7.2.6 1.7 1.7.3 4.3A24.5 24.5 0 0 0 56 191.7s1.9 1.2 4.1-1.1l11.8 4.1s1 0 1 2.1c0 2 2.6 20.1 2.6 20.1l-1 .2s-1 .3-1 1.6.5 4.2.6 4.7c0 0 .4 1 2.6 1v1.3c0 .4-.7 0-1.9 1.4-1.2 1.2-1.8 2.3-1.4 5.2.4 3 4 11 5 12.5 1.2 1.4 2.6 3 5 3 2.3 0 .3-4.2.4-5.9.3-4 .1-8.9-.7-11.9-.7-2.6-.7-5.4-.7-6 1.3-.3 1.6-.7 1.7-1.4.2-1.2-.2-4.5-.2-4.5s-.4-1.4-1.7-1.2l.4-21.2c0-3.3-.6-5.7-2-7.2-1.3-1.5-10.4-9.8-10.4-9.8s2.5-1.5 3-2.4c2 .2 7.2.8 7.7.7.6 0 .7-6 .7-6s.8-2.2 1-1.8c.3.3 9.2 11.4 19.2 16.9 0 0-.5.5-.7 1-.3.5 1 3.4 3.3 4.3.8.3 1.2.2 2.5-.6l1.3 1.4c.5.6-.3 1.6-.3 1.6-1.6 3.1 0 5.3 0 5.3l23.4 5.3c2-.2 1.2-2.6.7-2.7" fill="#EA9F91"/><path d="M84.5 154.6s-.2-1.8-.9-1.8-1.5 1.8-1.5 1.8 2-.2 2.4 0" fill="#0ED094"/><path d="M107.6 194.9l.6 2.5 15.2 5.1s2-2.4-1.5-3.3c-3.5-.9-8.6-5.4-10.5-5.7-1.8-.4-1.6-1.6-1.7-2.1 0-.6-1.7-1.8-1.7-1.8l-1.5 1.2v.3l.5-.3 1.3 1.4c.5.6-.3 1.6-.3 1.6l-.4 1.1" fill="#000" opacity=".1"/><path d="M75.6 217l.1.7s2.4 1.6 6.6-.2v-.6s.5-.1.9.2c.4.2.7.5.8 1.2l.3 3.3c0 1 0 1.5-.7 2-.8.5-3.4.7-4.2.7-.9 0-3 .3-4.2-.1-1.2-.5-1-1-1.1-1.7l-.4-3.1s-.6-2.4 1.9-2.5M101.6 186.5s4.6-4.3 5.9-5c0 0 1-.9 2 .3.8 1.2 1.7 3.1 2 4.5 0 0 0 .8-1.1 1.7l-3.8 3.2c-.2.2-1.3 1-2.9-.2-1.6-1.2-2.2-2.4-2.4-2.8-.2-.3-.6-1 .3-1.7" fill="#FFF"/><path d="M50.8 120.8l-.3-.7a7.6 7.6 0 0 0 3-3c1.3-2.2.3-4.8-.6-5.6-1.2-1.1-.8-2.3-.6-2.9.1-.5.8-3-2.4-4.8a7.4 7.4 0 0 0-5.4-.7c1.2 1.2 3.1 3.4 3 4.8 0 2.1 0 3.6 1 4.4.9.8 1 1 .6 1.7-.4.6.6 1 .6 3 0 2.1-2.1 4-2.1 4s.7 0 2-.5c0 0-1 1.3-3 1.3l.1.2c.2 1 .4 2.3.1 3 0 0 .3-1 1.2-1.6.9-.6 2.6-1.3 2.8-2.6M36.6 128.9c-.6.5-1 1-1.5 1.8 0 2.6-.1 8.4-.5 13.6 0 0-4.6 11.3-12 5.7 1 3 3.7 3.4 4.4 3.5 1 .1 7.3-.1 11.4-2.4 0 0 3.4-4.7 3.5-10 0-5.2-1-9.2-5.3-12.2M68.2 149.6l.7-2.9s5.3 7 11.4 6.5c3-.3 6.6-3.8 9.6-7.5-.1 0-7.2 5.6-12.5 3.6-5.2-2-8.5-9.4-8.5-9.4l-3.2 3 2.5 6.7zM61.9 182.3l-.2.2a18 18 0 0 0-4 5.6v.2l-.1.1v.2l-.3.7 3 1.3 11.7 4.1s1 0 1 2.1c0 2 2.6 20.1 2.6 20.1l-1 .2s-1 .3-1 1.6.5 4.2.6 4.7c0 0 .4.9 2.2 1H78c-1.2 0-2.4-1.2-2.6-1.7-.2-.5-.2-2-.2-3.4 0-1.3 2.2-1.7 2.2-3.2 0-1.5-3.4-11-2.5-15.2 1-4.2 1.6-4.8 1-6.2-.6-1.5-11.2-3.4-11.3-8.3 0-5 5.7-7.7 5.7-7.7l-1.5-1.3a30 30 0 0 0-7 4.9M104.8 189c-2.3-1.7-1.1-2.8-1-4.5 0-1.6-5.1-4.4-11.6-8.4-6.4-4-7.8-13.2-8.5-14.3-.4-.7-2.1-.7-3.5-.5-.6 3.6-.7 7.2-.6 9.4 0 0 .5 0 2.3-1 .4-.2.7-.7 1-.2a74.8 74.8 0 0 0 19 16.6l-1 1.2c-.2.5 1.4 3.3 3.6 4.2.8.3 1.5.3 2.5-.7l1-.8s-1 .8-3.2-1" fill="#000" opacity=".1"/><path d="M132.7 203.4c-.2 0-1.3.1-3.9-.7-1.7-.5-5.3-2.3-8-3.8a30.5 30.5 0 0 1-9.4-4.4c-1.2-1.1-3-1.4-3-1.4-2.4 3.5-.4 6-.4 6s22.1 5.4 23.4 5.3c.8 0 1.2-.5 1.3-1" fill="#246685"/><path d="M84.5 154.6s-.1-1-.3-1.3l-.2-.3-.4-.2h-.1l-1.8.6-4.3 1.3-6.7 2.2c-.8.2-3 .5-3.6-.3-.6-.9 1.8-9.9 1.8-9.9s.7-7.2.3-9a8 8 0 0 0-3.3-5.2c-2.3-1.8-3.5-2.5-4.3-4.5-.8-2-1.7-3.7-3-4.4l-2.7.9s3.4 5 4 10.6c.4 5.7-2.5 6.4-3.3 6.6-.9.2-7.4-.3-12.6-15.2-1.6 0-5 .2-7.4 2.4 0 0 3.4 2.1 4.6 6.3 1.1 4.2 1.3 9.6-2.8 15.9 0 0 3.7 4.1 3.9 4.7.2.6 1.7 1.7.3 4.3A24.5 24.5 0 0 0 56 191.7s1.9 1.2 4.1-1.1l-2.9-1.3s1-3.2 6.9-8.5 7.6-4.3 6-2c0 0 2.6-1.6 3.1-2.5 2 .2 7.2.8 7.7.7 0 0-.8 0-1-1.4a50 50 0 0 1 1.5-19.5 8 8 0 0 1 1.4-2.6c1.2-1.2 1.1 1 1.1 1h.5" fill="#FFF"/><path d="M79.6 170.7l3.1-1.5s-.3 7.3-1.7 7.8c-1.4.6-1.4-5.3-1.4-6.3" fill="#0ED094"/><path d="M31 117.2s-.3-3.6 1-6.8c1.2-3.1 2.3-3.8 2.3-3.8s1-.3 1.9 0c.8.3 3 2.4 3.5 6.2.6 3.7-4.1 3-4.1 3s-.3 2 1.3 4c1.6 1.9 3.4 1.7 3.4 1.7s.3-2.2 1.6-3.3c1.3-1 3.5.2 5.2 3.2 1.7 3 .4 5.4.4 5.4s-.6 1.4-3.8 1.4c-2 0-11-1.5-12.7-11" fill="#11ABEC"/><path d="M47.5 126.8s1.3-2.4-.4-5.4c-1.7-3-3.9-4.2-5.2-3.2-1.3 1-1.6 3.3-1.6 3.3s-1.8.2-3.4-1.8c-1.6-1.9-1.3-3.9-1.3-3.9s4.7.7 4.1-3c-.6-3.8-2.7-6-3.5-6.2-.9-.3-1.9 0-1.9 0s3.5 2 3.5 6.6c0 0 0 1.2-1.2 1.2s-2.5-.8-2.6.8c0 1.7 1.3 5.8 5 7.4 3.9 1.6 3-.4 3-1.3s.8-2 2-1.2c1 .7 2.9 3.6 3.4 6.8l.1-.1" fill="#000" opacity=".1"/><path d="M35 130.7s.2-1.2 0-3.8c0 0 2.8-1 2.8-2.7 0-1.8-1-3-2.2-3.9 0 0 1.4-4 .2-6.5s-3-1.3-3-1.3-2.1 4.2-3 5.4c-.8 1.2.7 4.8.7 4.8s.4 1.1 1.1 1.6c0 0-2 3.2-4 7.4l7.5-1z" fill="#EA9F91"/><path d="M99.1 107.8l-11.6 11s-1.6 1.7-.3 4l5.7 2.6 10.4 4.8s2 1.2 4.2 0l9.8-5.3s1.8-1 1.1-4l-1.8-7.7s-.7-1.6-2.8-2.5c-2.2-.9-9.7-2.9-9.7-2.9s-3.5-1.4-5 0" fill="#11ABEC"/><path d="M109.1 114.7l-10.3-3.5c1.7 2.6.1 3.8-1 5-1 1.4.5 2.9-3.1 3.8-3.7.9-5 3.9-5 3.9l3.2 1.5 10.4 4.8 1.4.5c-.8-1.3.3-3.1.3-3.1l4.1-12.9zM118.4 120.8l-1.8-7.6s-.3-.7-1.1-1.4c0 .2-.1.5-.5.8l-3.3 2s1 3.3.8 5.5c-.3 2.2-3.2 4-2.6 8.8l7.4-4s1.8-1 1.1-4" fill="#000" opacity=".1"/><path d="M104 118.9a4.8 4.8 0 1 1-9.7 0 4.8 4.8 0 0 1 9.7 0" fill="#FFF"/><path d="M100 115.8a.8.8 0 1 1-1.7 0 .8.8 0 0 1 1.7 0M98.6 121.4a.8.8 0 1 1 1 1.4.8.8 0 0 1-1-1.4M95.4 118.2a.8.8 0 1 1 1 1.4.8.8 0 0 1-1-1.4M101.9 118.2a.8.8 0 1 1 1 1.4.8.8 0 0 1-1-1.4M101 116a.8.8 0 1 1 .9 1.4.8.8 0 0 1-1-1.3M96.2 116a.8.8 0 1 1 1 1.3.8.8 0 0 1-1-1.4M96.2 120.5a.8.8 0 1 1 1 1.4.8.8 0 0 1-1-1.4M101 120.3a.8.8 0 1 1 .9 1.4.8.8 0 0 1-1-1.4M103 104.6l-2.7 1.1v4h1l3-1.6v-3.5z" fill="#11ABEC"/><path fill="#000" opacity=".1" d="M101.4 105.8l3-1.2v3.5l-3 1.7z"/><path fill="#11ABEC" d="M111.8 107l-2.8 1.2v4h1l3.1-1.6V107z"/><path fill="#000" opacity=".1" d="M110.1 108.3l3-1.2v3.5l-3 1.6z"/><path d="M46.4 127.7s4 8.2 14.3 8.7c10.3.6 16.5-15 26-15.5" stroke="#246685" stroke-width=".7"/><path d="M68.8 177.4l1.5 1.3s1-1.1.4-1.7c-.6-.5-2 .4-2 .4" fill="#0ED094"/><path d="M108.4 193s1.8.4 3 1.5c1.1 1.2 10.2 6 17.4 5.4l2.4 1.5c.9.3 1.2.2 1.5 1.1.2 1-.1 1.8-1.3 1.9A577 577 0 0 1 108 199s-2-2.5.4-6" fill="#FFF"/><path d="M48.6 99.4s-.1 6.7-9 8.5c0 0 .9 4 0 6.2-.7 2.3 2.2 5 2.2 5l-4.5-2.2-1-11.4L48 96.7l6.2 8.2-1.4 5.6s.5-2-.7-4.6c0 0-1.3-2.8-4.2-3 0 0 1.3-1 .7-3.5" fill="#063E5D"/><path d="M43 157.2v.1c.3.7.3 1.6-.4 2.8a9.5 9.5 0 0 0-.8 2.4l-.2.6c3.3-6.6 7.8-3.6 8.7-7.3.6-2.5-7-4.5-6.1-12.5.7-6.3-4-10.3-4-10.3a10.8 10.8 0 0 1 1.2 3 16.6 16.6 0 0 1-.4 9.9l-.2.5v.2c-1 2.7-2.4 4.5-2.4 4.5s3.7 4.1 3.9 4.7c0 .3.5.7.8 1.4M80 175.6c-.1-.7-.5-3.9-.3-8.1v-.7s-13.4-.6-15.7-1.4c-2.4-.7-2.4-2.3-2.2-3 .2-.8-2.8.7-1.5 3.3 1.3 2.5 10.3 10.2 10.8 11h.1v.7c0 .5-1 1.3-1 1.3s2.6-1.5 3.1-2.4c2 .2 7.2.8 7.7.7 0 0-.8 0-1-1.4" fill="#000" opacity=".1"/><path d="M57.3 189.3l2 1s-.4.7-1.5 1c-1.3.2-.5-2-.5-2" fill="#0ED094"/><path d="M78.6 229.5c-.8-.8-1.3-2.2-.6-3 .7-1 0-2.1 0-2.1l-1.8-.7-.4.6h1v1.4c0 .4-.7 0-1.9 1.4-1.2 1.2-1.8 2.3-1.4 5.2a37 37 0 0 0 2.6 7.7c2-.5 3.7-1.2 3.4-2.2-.8-2.2-.1-7.6-.9-8.3" fill="#000" opacity=".1"/><path d="M80.2 246.5l.7.5c.2.1.8.5 1.5.7-2.3-1.4-3-7.6-3.2-11-.7-2.7-1.1-5.4-1.3-6.5-.2-2-1.1-4.5-1.1-4.5 0 .2-.5.3-1 .5a5 5 0 0 0-1.9 2c-.7 1.1-.6 2.4-.6 3 0 .5.1 1.2.5 2.7l1.3 3.5 1.3 3.2 1.4 3 1.3 1.8 1 1" fill="#FFF"/><path d="M10 96c4.7.7 6.4 5.3 4.7 11-1.8 5.6-7 1.9-7.8 0-.8-2-1.6-11.8 3-11z" fill="#063E5D"/></g><g transform="translate(316.2 .4)"><use fill="#C0E0ED" xlink:href="#e"/></g><g transform="translate(257.4 210.5)"><mask id="g" fill="#fff"><use xlink:href="#f"/></mask><use fill="#0ED094" xlink:href="#f"/><path d="M11.9 26.2c4.7 4.4 7 4.5 7 4.5s18.3 0 23-2.6c4.6-2.7 3.6-7.2 3.6-7.2L19 23.6c-.6 8.6-7.1 2.7-7.1 2.6" fill="#0DA777" mask="url(#g)"/></g></g></svg>