<svg width="294" height="260" viewBox="0 0 294 260" xmlns="http://www.w3.org/2000/svg"><defs><linearGradient x1="71.9%" y1="7.2%" x2="71.9%" y2="100%" id="a"><stop stop-color="#D8F0F9" offset="0%"/><stop stop-color="#FFF" offset="100%"/></linearGradient></defs><g fill="none" fill-rule="evenodd"><path d="M32.7 179.4S3.7 166 .7 134 19.3 84.7 35.6 87c16.4 2.2 68.2 4.6 83.2-15 15-19.5 46.8-51.7 93-44 46.3 7.8 65.5 35 73.2 59 7.8 24.4 2 74-31.1 92.6h-221" fill="url(#a)" fill-rule="nonzero" transform="translate(6 29.7)"/><path d="M32.3 182s13.1-133.2 158-133.2c52.3 0 57.5 36.6 45.8 53.7-12.9 19-58.1 16.6-54.4-23 3.7-39.7 55-58.5 90-45.2" stroke="#FFF" opacity=".4"/><g fill-rule="nonzero"><path d="M260 209.3H38.8s-47.4 38.9 23 48.6c38.5 5.3 152.6 3 198.2-48.6z" fill="#11ABEC"/><path d="M49.4 220.7l75.2-21.8s8.4-4 20.7 0c12.3 3.8 90 25.8 90 25.8s16.9 4.2 0 5c-16.2 1-184-3.2-184-3.2s-19 .1-2-5.8z" fill-opacity=".2" fill="#000"/></g><g fill-rule="nonzero"><path fill="#0B3E5D" d="M168.4 185.1L154 222.7l18.3-37.6zM138.4 185.8L124 223.4l18.3-37.6z"/><path fill="#0B3E5D" d="M166 191.6l14.3 37.6-18.2-37.6zM192 187.7l14.3 37.6-18.3-37.6z"/><path fill="#92A5A3" d="M133.2 181l32-5.4 16.5-47 37.8 1.8 3.9 3-25.9 55.4-30 4.4-34.3-8z"/><path fill="#B3C4C3" d="M195 184.3l24.5-53.9-37.8-1.7-16.6 46.9-31.9 5.3 34.4 6.8z"/><path fill="#B3C4C3" style="mix-blend-mode:multiply" d="M195 184.3l-27.4 3.4-34.4-6.8 24.9-4.1 37 7.5"/></g><g fill-rule="nonzero"><path fill="#0B3E5D" d="M116.7 169.9l18.1 53.4-11-57.5zM184 175.6l36.6 64.3-29.6-63zM73.3 174.3L49 228.5l30.1-54.2z"/><path d="M242 173.7l-6.8-.1-.6-.2s-77.5-22-89.8-26a29.9 29.9 0 0 0-20.7.1l-75 22-2.3.8H42v3c-.6 2 9 2 9 2s167.3 4 183.6 3.2c6.2-.3 7.8-1 7.4-2v-2.8z" fill="#DBDCDD"/><path d="M49.1 166.4l75-21.8s8.4-4 20.7-.2c12.3 4 89.8 26 89.8 26s16.8 4.2 0 5.1c-16.3.8-183.7-3.3-183.7-3.3s-19 .2-1.8-5.8z" fill="#FFF"/><path d="M118.7 146.1l-6 1.8c-2.2 2.3-4.4 5.4-4 8.7 1 6.2 21.8 16 24.5 17.5l18.6.4-33.1-28.4z" fill="#DBDCDD"/></g><path fill="#DBDCDD" fill-rule="nonzero" d="M170 163.9v-5l-1.3-1.3.7-1.5-1.4-1.5h23.8l22 4.6-1.4 1.7.9.8-1 1 1.8 1.2v5.1h-22.3z"/><path d="M168 154.6l25.6 5.8M213.8 159.2l-20.2 1.2M169.4 156.1l23.6 5.7M168.7 157.6l24 5.9M170 159l23 5.8M170 159.8l22.4 5.8M170 161.8l22.1 5.6M193 161.8l19.4-.9M192.8 163.5l19.6-.7M193 164.8l21.1-1M192.4 165.6l21.7-1M192.1 167.4l21.9-.1" stroke="#FFF" stroke-width=".6"/><path d="M166.3 141.6h21.3s-.6 10 10.2 12.3h-20.1s-10.8 0-11.4-12.3zM193.6 143.4s9.2-2.3 14.4-12.8c0 0 8 1.6 19.3-1.9 0 0-3.7 14-15.2 18.5l-18.5-3.8z" fill="#FFF" fill-rule="nonzero"/><path d="M215.1 145.7s-2.5 2.3-3.8 2l-16-2s-3.5-1.9-1.7-5.2l17.5 2.2s.2 6 4 3z" fill="#DBDCDD" fill-rule="nonzero"/><g transform="matrix(-1 0 0 1 91 47.5)" fill-rule="nonzero"><ellipse fill-opacity=".2" fill="#000" cx="29.4" cy="121.4" rx="12.5" ry="1.9"/><path d="M21.4 97.5s-12.6 0-11.8-5.3c.7-5.3 2.8-9.5-2-11.4-4.7-2-6.5-3.1-4.5-10.7s5-8.2.6-10.7c-4.3-2.4-5.9-6 1.1-9.5s1-15.7 7-16c6-.5.1 9.3 7.1 16.2 7 6.9-4.7 7.2-3.3 10.7 1.5 3.4 12.8 3.4 9.2 11.6-3.6 8.2-3.6 5.6 1.4 8.6s5.3 9.1-2.9 16.5h-2z" fill="#92A5A3"/><path d="M21 97.7c-2-3.6-3.6-7.4-5-11.2l-1-3-.9-2.9-1.5-6-.3-1.4-.3-1.5-.6-3c-.2-2-.6-4.1-.7-6.1-.3-4.1-.4-8.2-.2-12.3-.1 4.1 0 8.2.5 12.2.1 2 .5 4 .8 6l.6 3 .3 1.6.4 1.5 1.6 5.8 1 3 1 2.8c1.4 3.8 3.1 7.5 5 11l-.7.5z" fill="#0B3E5D"/><path d="M34.5 97.5s.6-4.2 9.9-4.4c9.3-.2 16-2.1 11.1-8.9-4.9-6.8-8.8-11.5-1.4-14.1 7.4-2.6 9.9-4 7.6-9.3-2.3-5.3-5.9-7.5 2.9-11.9 8.7-4.3 13.2-7.6 8.3-13.5-4.8-5.9-10.6-7-10.6-17S58 5.4 56.6 10c-1.3 4.7-.4 12.6-8 15.1-7.5 2.5-11.5 6-7.4 14.2 4 8.3-6.2 9.7-10 14.4-3.7 4.7 8.8 12.1 4.1 16.3-4.7 4.2-12 2-12.2 9.9-.2 7.8 8.2 17.5 8.2 17.5h3.2z" fill="#92A5A3"/><path d="M32.3 100.3a419.8 419.8 0 0 1 15.8-54.5 193.5 193.5 0 0 1 .2 0 314 314 0 0 0-10.8 36.3c-1.5 6.1-3 12.3-4.2 18.4l-1-.2z" fill="#0B3E5D"/><path d="M16.9 97.5c0-1.1 5.6-2 12.5-2 7 0 12.6.9 12.6 2v.1l-4.6 22.8c0 .7-3.6 1.2-8 1.2-4.3 0-7.8-.5-7.8-1.2l-4.7-22.8v-.1z" fill="#0B3E5D"/><path d="M24.7 114.2c1-6.1 5.4-7 10-7.4 2.8-.2 5-3 6.5-5.2l-3.9 18.8c0 .7-3.5 1.2-7.9 1.2-4.3 0-7.8-.5-7.8-1.2l-.2-1c1.1-.3 2.8-1.5 3.3-5.2z" fill-opacity=".2" fill="#000"/><path d="M14.5 62.2c-1.5-2.3-1-3.4 1.4-5.6 2.4-2.3 3.4-3 2.2-5-1-1.7-1.8-3-1.8-5.2A12 12 0 0 0 19 50c7 6.9-4.8 7.2-3.4 10.7.8 1.7 4.1 2.6 6.7 4.1-2.4-.3-6.7-1-7.8-2.7z" fill="#B3C4C3"/><ellipse fill="#B3C4C3" cx="29.4" cy="97.8" rx="11.3" ry="1.5"/><path d="M31.3 97.5s8.7-6.6 11.6-8.3c2.9-1.6 1.9-5.9-1-9.2-2.7-3.4-8.9-8.6-.7-13.5 8-5 17.3-8.5 13.4-15.6-3.9-7-12.8-12.9-11.2-17.4 1.6-4.6 7.5-6.2 6.7-10.4-.8-4.1-6-5.1-6.7-10.3-.7-5.2-1-12.4-5-12.4-4.1 0-1.9 9.9-2 12.2-.3 2.2-6.4 5-7 7.8-.5 2.7 6.1 6.8 4.7 10-1.5 3.1-17.1 13-18.5 21.1-1.4 8.1 14.8 13.1 8 18.6-6.8 5.5-18.7 8-.2 27.4h7.9z" fill="#B3C4C3"/><path d="M35.3 70.1c1.6-5.6 17-9.3 20-17.8 2 6.1-6.5 9.5-14 14.2-8 5-2 10.1.8 13.5 2.8 3.3 3.8 7.6 1 9.2-.7.4-1.7 1-2.7 1.8 1-1.5 1.6-3.2 1-4.7-1.8-3.7-8-9.9-6-16.2zM15.6 51.5c1.4-8 17-18 18.5-21.2 1.4-3.1-5.2-7.2-4.7-10l.2-.5c1.3 3.5 5.6 5.4 7 7.8 2 3.4-3.2 7.6-10 14.8-6.7 7.3-7.7 8.1-3.2 14.8 4.5 6.7 5.3 10 4.3 12.9-1.5 4.3-8.3 5.5-12 5.8 2.2-2.2 5.4-3.8 7.9-5.8 6.8-5.5-9.5-10.5-8-18.6z" fill="#C9DBDB"/><path d="M27.1 99.5A488.6 488.6 0 0 0 36 55.2l.8-5.6.4-2.8.3-2.8.6-5.7.5-5.6c.7-7.5.9-15 .7-22.6.3 7.6.2 15.1-.3 22.6l-.4 5.7L38 44l-.3 2.8-.3 2.9-.7 5.6a494.4 494.4 0 0 1-8.2 44.5l-1.4-.3z" fill="#0B3E5D"/><path d="M56.8 49c2.2-2 12.7-6.3 14.5-9.6 1-1.7-.2-4.7-1.5-7.2 1.1 1 2.2 2 3.1 3.2 4.9 6 .4 9.2-8.3 13.5-6 3-6.2 5-5 7.7-2.1-3.2-4-6.6-2.8-7.7zM9.6 92.2c.7-5.3 2.8-9.5-2-11.4-4-1.7-6-2.8-5.1-8 1.2 4.5 6 5 8.6 6.4C14.2 81 13 87 12 91c-.5 1.8-.2 3.7.8 5.2-2-.8-3.5-2-3.2-4z" fill="#B3C4C3"/></g><g transform="translate(98 32.6)" fill-rule="nonzero"><path d="M33.7.5a7.4 7.4 0 0 0-6.5 11L.4 35.7 2.6 38 29.4 14a7.4 7.4 0 0 0 11.3-8.5c-1-3-3.8-5-7-5z" fill="#0ED094"/><path d="M30 11.4L31.2 3a1 1 0 1 1 1.9.3L32.2 9 47.4 7a1 1 0 0 1 .3 2L30 11.3z" fill="#FFF"/><path d="M98.8 64.2c-3.5 0-6.3.5-6.3 1V80c0 .6 2.8 1 6.3 1 3.4 0 6.2-.4 6.2-1V65.2c0-.5-2.8-1-6.2-1z" fill="#DBDCDD"/><ellipse fill="#0B3E5D" cx="98.7" cy="65.2" rx="5.3" ry="1"/><path d="M96.1 65.2s1-1.5-1-3c-2.1-1.7-2.2-3.3-.6-4.6 1.7-1.3 1.9-1.7.7-3.5-1-1.9-.5-2.7 1.6-4.1 2.1-1.4-1.3-2.5 0-6.3s7.6-3.8 10.3-3c2.6.9 5.8 3.6 4 6.8-1.6 3.2-6.2 2.3-6 4.6.2 2.3 2.4 2.4 1.6 4.2-.9 1.7-4.4.3-4.9 2-.5 1.6 1 1.8.3 3.3-.8 1.5-3.4 3.7-3.4 3.7-.8.2-1.7.2-2.6 0z" fill="#FFF"/><path d="M105 66c-1 .6-3.8 2.6-4.5 5.2-1 3.4-.5 4.2-.2 4.3.2 0 3.1-1.5 4.7-2.5v-7z" fill="#DBDCDD" style="mix-blend-mode:multiply"/></g><g fill-rule="nonzero"><path d="M143.7 96.4s-3.7-2-4.9-5.4c-1.2-3.3 3.5-7.5 3.4-11-.1-3.5-2.7-6.2-1.8-9 1-2.8 6.1-2 7-5.9.7-3.9 0-10.3 3.2-15.2 3.2-4.8 12.2-8.7 20-6.6 7.9 2.2 10.8 10.1 10.1 15.4-.7 5.2-2 7.8-6.5 12.6-4.6 4.8 1.7 9.7-.4 14.5-2.2 4.8-6.2 2.7-6.5 6.3-.3 3.6 1.3 7.8-6 9.2-7.5 1.3-17.6-4.9-17.6-4.9" fill="#0B3E5D"/><g fill="#EA9F91"><path d="M154.5 80s-4-.7-5.7 2.2c-1.6 3-3 3.8-3.9 4.4-.9.6-4.5 2.9-1.2 7.8a5.6 5.6 0 0 1-5.3 4.2c-1-1-2-1.8-3-2.6-1.4-1-12.2-7.4-12.2-7.4s-1.6-1.3-2.7.7c0 0-3.7-3.8-4.3-5.3-.6-1.5-1-4.4-1-8 .2-3.5 0-12.3.7-13.4.7-1.2 3.5-3.7 4.4-4.9 1-1.1 1-2.1.2-3.6-.6-1.5-1.3-4.7-2-4.6-.5.1-.5 5.4-.5 5.4l-2 1.4s1.9-1.3 1.4-6.2l.5-.3s-.2-.8-1.2-.3l-5 2.5s-.6-.1-1 2.1c-.5 2.2-1.5 5.8-1 5.8s4.1-2.4 4.1-2.4.3 1.1-.4 3.4c-.6 2.3-4.2 11.6-5.5 17.5-1 4.5-.8 9.2.7 13.6l3.6 9s-.7 2.2-.5 3.2c.2 1 3.3 4.8 3.3 4.8s-3 11.5-2.2 34.3c0 0-1.1 0-.7 2.5 0 0-1.8 6.6 1.6 11.8C117 163 127 167.8 135 172c8 4.2 11.3 5.5 11.3 7 0 1.7-1.8 14.2 1.7 21.7 3.5 7.6 6 9.6 8.2 16.6 2.2 6.9 1.3 8.8 2.7 9.1 1.3.3 3.5 1.3 5.7-.7 2.3-2.1 10.6-10 11.3-11.1.7-1-.4-2-3.3-.4a46.5 46.5 0 0 1-11.4 3.8c-1.1 0-3-.3-3.7-4.2-.7-3.8-1.6-18.2-1.6-18.2l10.2-22.3s1.8-3.1 0-5.2c-1.7-2-13.7-16.5-28.5-24.5.4-1 0-2.2-1-2.8 0 0 6.3-7.2 8.5-12.2a45 45 0 0 0 20.3 7c9.2 0 20.7-15.8 25.6-22.9 0 0-.7-.4-.7-.6v-7.3s3.2-2.6 3.5-4c.3-1.3-.2-1.9-1-.9-1 1-2.1 1.8-3.4 2.3-1.1.7-1.5.8-1.6 3.2v5.1s-5 5.9-14.1 10.8c-9.3 4.9-9 4-11 2.6s-5.2-6.6-5.2-6.6 1-.5.1-2.6-3-8.4-6-10.6c-2.9-2-4-2.9-4-3.6l.1-3.2s3 .9 6.3-2.3c0 0 3.8.5 3.8-2 0 0 .2-.9-1-1.8-1.3-.9-3.6-3.8-2.5-6.2 1-2.5 1.4-3.3.2-4.8zM202.8 98.6s1.2-.4 1.2 1.3v5.5s-3.5 2.8-4.3 2.9c-.7 0-.8-2-.4-3.5.5-1.6 3.7-5.1 3.7-5.1l-.2-1z"/><path d="M111.7 91.7c-2.8-4.1-3.5-9.8-3.5-14.5l-.3 1.1c-1 4.6-.8 9.3.7 13.7l3.6 9s-.7 2.2-.5 3.2l1 1.9 2.4.5 2.5-5.8s-.2-1.1-5.9-9.1zM147.5 88.2c1.8-.4 1.7-1.2 3.4-3.2a10 10 0 0 1 4.3-2.6c.2-.8 0-1.5-.7-2.3 0 0-4-.8-5.7 2.1-1.6 3-3 3.8-3.9 4.4-.9.6-4.5 2.9-1.2 7.8 0 0 2.5-3 2.5-4 0-.9-.6-1.9 1.3-2.2zM141.6 129l2.6 1.3 1-1.8a45 45 0 0 0 20.2 7c1.9 0 3.9-.6 5.9-1.8-11.5-.5-22.5-9.5-22.5-9.5l-7.2 4.8z" style="mix-blend-mode:multiply"/></g><path d="M147 198.1s-1.8 6.8-2.8 12.3a12 12 0 0 1-.7 2c-.1.2-1.8-.8-3.1 1.1-1.3 2-1.6 3.5-1.3 6.4.4 2.9.5 2.7.4 4.4 0 1.7-.4 5.6 3.5 8 4 2.4 4 0 3.4-1.4-.6-1.4-1.5-3.2-1.5-5.4s-.5-7 .8-9.8c1.2-2.7 4.9-10 4.9-10L147 198z" fill="#0B3E5D"/><path d="M147 198.1s-1.8 6.8-2.8 12.3a12 12 0 0 1-.7 2c-.1.2-1.8-.8-3.1 1.1-1.3 2-1.6 3.5-1.3 6.4.4 2.9.5 2.7.4 4.4 0 1.7-.4 5.6 3.5 8 4 2.4 4 0 3.4-1.4-.6-1.4-1.5-3.2-1.5-5.4s-.5-7 .8-9.8c1.2-2.7 4.9-10 4.9-10L147 198z" fill="#0B3E5D" style="mix-blend-mode:multiply"/><path d="M139.3 146.7l.3-2-2-1.1c.4-1.1 0-2.3-1-2.8l1.1-1.5-25 2 .2 2s-1.2 0-.8 2.5c-.3 1.2-.4 2.5-.5 3.8l27.7-2.9z" fill="#3799D1"/><path d="M139.5 224.3c0 1.7-.4 5.6 3.5 8 4 2.4 4 0 3.4-1.4-.6-1.4-1.5-3.2-1.5-5.4s-.5-6.8.7-9.6c-1.4-.8-2-2.5-2.2-3.5-.5 0-1.8-.6-3 1.1-1.4 2-1.6 3.5-1.3 6.4.4 2.9.5 2.7.4 4.4z" fill="#FFF"/><path d="M143 232.3c4 2.4 4 0 3.4-1.4-.6-1.4-1.5-3.2-1.5-5.4s-.5-6.8.7-9.6a4.4 4.4 0 0 1-1.8-2.2c-1 .7-2.6 2-2.9 3.6-.4 2.3.3 4.6-1.4 7-.1 1.7-.4 5.6 3.5 8z" fill="#DBDCDD"/><path d="M115.5 148.6l1-6-3-1.3h-.7v2s-1.1 0-.7 2.5l-.4 2.4 3.8.4z" fill="#3799D1" style="mix-blend-mode:multiply"/><path d="M172.7 214a46.7 46.7 0 0 1-11.4 3.8c-.7 0-1.4-.1-2-.5-1.4.2-2.4 2.1-2.4 2.1 1.4 5 .8 6.6 2 6.8 1.3.3 3.5 1.4 5.8-.7 2.2-2 10.5-10 11.2-11 .8-1-.4-2-3.2-.5z" fill="#FFF"/><path d="M175.7 213.3c-4.1 1.8-13.8 9.1-15.7 11-.6.5-1 1.2-1.3 2h.2c1.3.3 3.5 1.3 5.8-.7 2.2-2.1 10.5-10 11.2-11.1.4-.5.3-1-.2-1.2z" fill="#DBDCDD"/><path d="M123.2 88.6s-1.6-1.3-2.6.7v.6l1.7 1.5s-3.6 8.4-8.2 11.4l-2-1.9.1.2s-.7 2.1-.5 3c.2 1 3.3 5 3.3 5s-3 11.4-2.2 34.2c0 0 3 2.1 11.2 1.3s10.5-1.4 12.5-3.8c0 0 6.4-7.3 8.6-12.3l1-1.4s4.3-1.2 5.5-4.2c1.3-3 .6-4.2.6-4.2s2.1-2.2 3.5-2.6a1.4 1.4 0 0 1 1.8 1s1-.4.1-2.5-3-8.5-6-10.6c-2.2-1.6-3.4-2.4-3.9-3 .4 1 1.1 3.8.3 6.3-1 3.2-2.6 4.3-4.7 3.7-2.2-.5-4.6-3.2-4.6-7 0-4-.3-5.4-.3-5.4-1-1-2-1.8-3-2.6-1.4-1-12.2-7.4-12.2-7.4z" fill="#FFF"/><path d="M159.4 217.4c-.8-.6-1.4-1.6-1.8-3.7-.8-3.8-1.7-18.2-1.7-18.2l10.2-22.3s1.8-3.1 0-5.2c-1.7-2-13.7-16.5-28.5-24.5a45.2 45.2 0 0 1-14 3.7c-3.9.6-7.9.1-11.4-1.4 0 0-2 6.5 1.5 11.8C117 163 127 167.7 135 172c8 4.1 11.2 5.4 11.2 7 0 1.7-1.8 14.2 1.7 21.7 3.5 7.6 6 9.6 8.2 16.5l.7 2.4c1.3-2.1 2.5-2.1 2.5-2.1z" fill="#0B3E5D"/><path d="M154.5 209.2c-4-8.7-6.3-19.6-5.7-24.4.5-4.7.6-7.5-.8-8.1-1.4-.7-24.2-10.9-29.4-18-3.8-5.2-3.3-9.8-2.8-11.7-1.3-.3-2.5-.7-3.7-1.2 0 0-1.8 6.5 1.6 11.8C117 163 127 167.7 135 172c8 4.1 11.3 5.4 11.3 7 0 1.7-1.8 14.2 1.7 21.7 3.5 7.6 6 9.6 8.2 16.5l.7 2.4 1-1.3c-1-3-2-6-3.4-9zM136.5 146.7s.8 4.3 1.7 5.3c1 1 18.5 16 19.7 17.3 1 1.4 3.2 3.2 2 5-1.3 1.8-4 6.7-4 6.7l.2-5.5c-.1-1-18.7-22.3-19-23-.3-.8-.6-5.8-.6-5.8z" fill="#0B3E5D" style="mix-blend-mode:multiply"/><path d="M119.6 121.6c-2.1-4.7-2.2-6.2-.6-9.8 1.7-3.5-.7-3.8-1-8.2 0-1.3-.3-2.6-.6-4-1 1.3-2 2.3-3.3 3.2l-2-1.9.1.2s-.7 2.1-.5 3c.2 1 3.3 5 3.3 5s-3 11.4-2.2 34.2c0 0 1 .8 3.7 1.2 0-7 2.5-13.6 3-15.5.6-1.9 2.2-2.8 0-7.4z" fill="#DBDCDD"/></g><g transform="translate(0 1)"><path d="M183.1 64.1s3.6-10.2 8.5-14.3c0 0 5.4-2 9.8-2l-.5 2.9 4.8-3a20 20 0 0 1 9.3 1.5l-11.2 3.5-1 4.2c-.1 0-13.4 2.8-19.7 7.2z" fill="#11ABEC" fill-rule="nonzero"/><g style="mix-blend-mode:multiply" fill="#3799D1" fill-rule="nonzero"><path d="M201 50.6l.4-2.9h-.4A60.5 60.5 0 0 0 186.7 59l14.2-8.3zM205.8 47.7h-.2l-1.7 1.1z"/></g><g style="mix-blend-mode:multiply" fill="#3799D1" fill-rule="nonzero"><path d="M207.5 51.6l-1.7.5 1.7-.5zM203.8 52.8A87.7 87.7 0 0 0 183 64.1a70 70 0 0 1 19.6-7.2l1-4z"/></g><path d="M94 134.6l6 3.8 1.4 7.6 4.2-2.2 4.3 2.2s8.2-8.7 12-14c0 0-24.3 2.7-28 2.6z" fill="#11ABEC" fill-rule="nonzero"/><path fill="#3799D1" fill-rule="nonzero" style="mix-blend-mode:multiply" d="M102.6 140l15.2-6.4-17.8 4.8 1.4 7.6 4.1-2.2-4.8-3z"/><path stroke="#11ABEC" stroke-width=".8" d="M94.6 10.4l1.6 6.8 4.6-3.6zM273.9 161l-5-4.8-2 5.5zM160.4 145.1l.5 7 5-2.8z"/><path stroke="#58676D" stroke-width=".8" d="M130.6 8l-7.6 6.7-6.7-7.7 7.6-6.7zM275.7 126l-7.6 6.7-6.7-7.6 7.6-6.7z"/><ellipse fill="#0ED094" fill-rule="nonzero" cx="6.4" cy="174.8" rx="6.2" ry="6.2"/></g></g></svg>