<svg width="312" height="220" viewBox="0 0 312 220" xmlns="http://www.w3.org/2000/svg" xmlns:xlink="http://www.w3.org/1999/xlink"><defs><linearGradient x1="71.9%" y1="7.2%" x2="71.9%" y2="100%" id="a"><stop stop-color="#D8F0F9" offset="0%"/><stop stop-color="#FFF" offset="100%"/></linearGradient><path d="M108.9.5c9 .6 4 32.3 4 32.3 13.5 2.2-2.6 6.6-22.9 9.2-20.3 2.6-39.8.7-39.8.7 3-1.7 8.5-2.4 8.5-2.4-10.3.2-15 2.4-15 2.4L57 34.2l-4-.3-7.3 5.8c-6.1 4.7-17 2.6-22.5 2.2-5.6-.4-37-4.2-16.3-9.2C7 32.7 3.1.9 11 .5H109z" id="b"/></defs><g fill="none" fill-rule="evenodd"><path d="M24.3 143.8S-6 120.7 1.4 91.1c7.3-29.6 47.5-32.2 66.7-25.6 19.2 6.7 45-.4 50-23.2 4.8-22.8 28.8-44.2 70.5-42.2a82.4 82.4 0 0 1 75.5 53.7c8 24 7 57.8-14.6 92.2l-225.2-2.2z" transform="translate(40 44.5)" fill="url(#a)" fill-rule="nonzero"/><path d="M311.7 194c-.1-5.3-60.9-8.3-135.7-6.6-74.7 1.6-135.3 7.3-135.2 12.7.1 4.2 39 7 92.8 7-9 1.6-14.3 3.4-14.2 5.2 0 4.6 36 7.6 80.3 6.6 44.2-1 80-5.6 80-10.2-.1-2.4-9.7-4.3-25-5.5 34.5-2.5 57-5.9 57-9.2z" fill="#11ABEC" fill-rule="nonzero"/><g transform="translate(26.2 38.3)" fill-rule="nonzero"><path d="M1.8 102a43 43 0 0 0 57 52 42.9 42.9 0 0 0 26.7-37L1.8 102z" fill="#0B3E5D"/><ellipse fill="#0ED094" cx="87.9" cy="6.3" rx="6" ry="6.1"/></g><path d="M215.8 71.4c-.4 1.5-.8 3-1.4 4.6-12.7 36.8-42.4 40.2-42.4 40.2" stroke="#11ABEC" stroke-width="1.6" stroke-linecap="round" stroke-linejoin="round"/><path d="M37.7 80.5S4 106 6.3 149.8c2.1 38.8 35.3 52 55.4 38.8C93.3 167.7 127.3 87.8 143 66.5c15.7-21.3 38.6-38.7 56-32.4 14 5.2 10.5 9.8 2.3 10" stroke="#11ABEC" stroke-width="1.6" stroke-linecap="round"/><path d="M135.2 78.3c.8-.2 1.2-1 1.2-1.7-.1-1.3-.7 0-2.2.4a125 125 0 0 0-7.2 2.5 8.1 8.1 0 0 0-3.7 3s-18.1 2.4-20.2 3.7c0 0-4.8-11.7-11-15.3-6.2-3.6-9.4 2.2-9.4 2.2-.6-1-1.2-2-1.6-3 0 0 4-5.3 2.8-6.8-1.1-1.5-2.4-1.9-3-5.6-.5-3.7-1-4.2-1-4.2-2.8-5.4-10-2.8-10-2.8s2 4-.6 5.3c-2.6 1.2-2.7 2.5-2.3 3.9.3 1.3 3.1 2.2 3.2 3.3.1 1.1-1.2 1.4-1.2 1.4-2 1-.8 2.6 1 3.3a12 12 0 0 1 5.7 4.9c.9 1.2 1 2.8.6 4.2 0 0-6.3-1.6-9.5 1.7-3.2 3.2-5.4 10.4.7 20.5 0 0 1 2.5 7.4 8.6 3.2 3 6 6.5 8.4 10.3 0 0-3 16.5-7 28.6a97.7 97.7 0 0 0-14 23.7c-4 9.4-4.8 10.2-4.8 10.2l-3.1 1.5v5.1l4.4 8.1H64l-4.3-13.5s24.4-27.3 25.7-29.2c1.3-1.9 7.3-14.5 10.5-20.4l8.6 5 12.8-6s-5.2-7.1-12.2-15c0 0 2-6.6.8-17l14-7.8c1.7-1.1 3.8-1.8 5.9-1.8 3.3 0 8.6-1 9.5-1.8.8-.7 3.1-3.4 3.1-6.4 0-3-3.2-3-3.2-3z" fill="#98685F" fill-rule="nonzero"/><path d="M136.4 76.6c-.1-1.3-.7 0-2.2.4a125 125 0 0 0-7.2 2.5 8.1 8.1 0 0 0-3.7 3l-1.6.2.5 2.2s2.4-1 2.4-1.2c.1-.2 1.4-3 2.4-3.6.7-.4 5.4-1.3 8.3-1.8.7-.3 1.1-1 1-1.7z" fill="#98685F" fill-rule="nonzero" style="mix-blend-mode:multiply"/><path d="M186.3 38.3c-3.5-3.7-4.3-8 2.2-9.3 11.6-2.2 28 5 29.5 24.8" stroke="#3799D0" stroke-width="1.6" stroke-linecap="round"/><path d="M233.6 12.7c-12.2-8.2-30.6-2.4-41 13-10.4 15.5-9 34.7 3.3 43 12.2 8.2 30.6 2.4 41-13 10.4-15.5 9-34.7-3.3-43zM206 53.6c-5.6-3.8-6.3-12.7-1.5-19.8 4.8-7 13.2-9.8 18.8-6 5.6 3.9 6.3 12.7 1.5 19.8-4.8 7-13.2 9.8-18.8 6z" fill="#063E5D" fill-rule="nonzero"/><path d="M201.2 44.3a30.1 30.1 0 0 1-15-6" stroke="#3799D0" stroke-width="1.6" stroke-linecap="round"/><g style="mix-blend-mode:multiply" fill-rule="nonzero"><path d="M72.8 50.1c2 1.6 3.3 3.8 4 6.2 0 0 .6 2.4 1.5 3 .8.7 1.8.5 1.5 2.5-.1 1.7.3 5.6 1.3 8.3.3-.5 4-5.3 2.8-6.8-1-1.5-2.4-1.9-3-5.6-.5-3.7-1-4.2-1-4.2-1.6-3.1-4.8-3.6-7-3.4z" fill="#000" opacity=".1"/><path d="M81.8 71.7z" fill="#98685F"/></g><g fill-rule="nonzero"><path d="M83.3 118s-3 16.6-7 28.7a97.7 97.7 0 0 0-14 23.7l-2.3 5.5a3.1 3.1 0 0 0 3 2c6.8-7.5 21.4-23.9 22.4-25.3 1.3-1.9 9.7-13.2 12.8-19l6.3 3.6 12.8-6s-5.2-7.1-12.2-15L83.3 118z" fill="#FFF"/><path fill="#DBDCDD" d="M98.2 133.5l5.5-10.8 8 11.1-7.2 3.4z"/></g><g fill="#063E5D" fill-rule="nonzero"><path d="M57.5 180.6a2 2 0 0 0 2.2 1.2l4.1 9.1c.3.6 1.3 1.4 3.9 2 2.6.6 3.3 1.2 3.5 2.4.1 1.2-11.6.6-12.5.5-.8-.1-6.5-11-6.5-12 0-.8 0-2 5.3-3.2z"/><path d="M58.7 195.8c.8 0 12.6.7 12.5-.5-.1-1.2-1-1.8-3.5-2.4l-.7-.2s-6.5.6-7.6-.8a73.3 73.3 0 0 1-4-10.7c-3.1 1-3.2 2-3.2 2.7 0 .8 5.7 11.8 6.5 11.9z" style="mix-blend-mode:multiply"/></g><g><path d="M120.6 85.7l2.5-1.2s-.6 0-.6-1.9c-3.5.5-17.6 2.5-19.4 3.6 0 0-4.8-11.7-11-15.3-6.2-3.6-9.4 2.2-9.4 2.2 1 1.9 2.7 3.4 4.7 4.2 0 0 1.5 5-6 4.5 0 0-2.7-2.8-5.1-4.8 0 0-6.3-1.6-9.5 1.7-3.2 3.2-5.4 10.4.7 20.5 0 0 1 2.5 7.4 8.6 3.2 3 6 6.5 8.4 10.3 0 0 13 8.5 21.8-2 0 0 2-6.6.8-17l14-7.7c1-.6 2-1.1 3.2-1.5 0 0 .3-3.3-2.5-4.2z" fill="#063E5D" fill-rule="nonzero"/><path d="M75.8 72l.5 2c.3.6.3 1.6 0 3a15 15 0 0 0 1.8 1.6c-.7-3.5 1.3-5.3 2.3-6.5 1-1.2.5-2.2.5-2.2-1.3 1.6-2.1 1.2-2.1 1.2-2.4.8-3.4 1-3 .8z" fill="#000" opacity=".1"/><path d="M68.5 93.3s.4-.7 2.4.7c2 1.5 8.6 7.7 17.5 7.5 9-.3 28.4-8.3 28.4-8.3l-10.9 6s1.4 9-.8 17c-1 1.2-2.1 2.2-3.4 3 0 0-1-6-5-7.9-4-1.7-13.3-3.4-19.4-8.6-6.2-5.1-9.6-8.2-8.8-9.4zM85.6 85.8s8.8 5.6 15 4.1c0 0-7.3 2.6-10.6.3-3.2-2.3-4.4-4.4-4.4-4.4z" fill="#063E5D" fill-rule="nonzero" style="mix-blend-mode:multiply"/><g style="mix-blend-mode:multiply" fill="#063E5D" fill-rule="nonzero"><path d="M103.1 86.2S97 70.7 89 69.7c0 0 4 1.1 5 7.1 0 0 6.8 5.2 10 12.4l14.5-3.2c-5 1-10.2 1-15.3.2zM118.4 86l1.2-.2-1.2.2z"/></g></g><g fill-rule="nonzero"><path d="M71.4 63.1c-.5-1.2-.4-1.2-3-2.3-2.5-1.1-1.3-3.6-.2-3.8 1-.2 7.7-1 10.4-3s3.6-4.6 3.4-6.9c-.2-2.3-1.7-4.8-3.6-5.3-2-.6-4 0-5.4 1.5-1.7 2-3.8 3.5-6 4.6-2.7 1.1-5.8 3-6.4 5.9-.7 2.8.7 4.5.7 4.5s-1.5 2-.5 5c1 3.2 4.7 4.9 6.5 5.4 1 .3 2.8.7 4.7 1.7 1.8 1-1.5-2.4-.6-7.3z" fill="#063E5D"/><path d="M75.8 72s3 .6 5.4-1a7.2 7.2 0 0 0 3.6-5.7 4 4 0 0 0-4.5-4c-2.4.3-4.3 3-5.1 4.3-.8 1.3-1.6 2.2-3.1 1.1s-.2-2.3-.7-3.6c-.5-1.2-1.8 6.2-.1 7 2 .8 4.1 2.3 5.2 5l-.7-3.1z" fill="#FFF"/></g><g fill-rule="nonzero"><path d="M284.4 133.4l-5.5-2.9s-8.8.2-25.6 5c-8.3-2.5-16.9-4.3-25.5-5.4-15-2-63.3-4.1-63.3-4.1s3.7-1.1 5.4-2.7l-3.2-.2s-1 2-4.4 3.2c0 0-20.1-1.8-43 5 0 0 7.2-4.6 24.2-9.5h-4.1s-12.7 2.6-27.4 10.8l-10.3-2.8-5.3 2.1s8.8.3 13.7 1.6c0 0-18 1.5-33.5 9.5l-3 6a81 81 0 0 1 31.6-13c-5.5 2.2-10.6 5-15.4 8.4 0 0 3.3-2.2 9.1-3.6 0 0-7 4.6-11.7 15.8a22 22 0 0 0 2.8 22.9c2.8 4 12.9 12.5 26.4 14.8 13.6 2.3 41.6 5.5 68.2 4.8 26.6-.7 49.4-1.7 67.2-13.4 0 0 7.1-3.3 12.3-15.5 0 0 5-5.2 7-14 2.2-8.6-11.7-18-11.7-18s13 .9 16 1.8l2.8-2.8-22.3-.6s14.6-3.4 28.5-3.2zm-19.6 13.5s4.2 3.4 3.7 7.4c-.6 4-4.4 10.7-4.4 10.7s3-8.5.7-18z" fill="#C9DBDB"/><path d="M278.2 137.2l-22.3-.6s14.6-3.3 28.5-3.2l-5.5-2.9s-8.9.2-25.6 5c-8.3-2.5-16.9-4.3-25.5-5.4-15-2-63.3-4.1-63.3-4.1s3.7-1.1 5.4-2.7l-3.2-.2s-1 2-4.4 3.2c0 0-20.1-1.8-43 5 0 0 7.2-4.6 24.2-9.5h-4.1s-12.7 2.6-27.4 10.9l-10.3-3-5.3 2.2s8.8.3 13.7 1.6c0 0-18 1.5-33.5 9.5l-3 6a81 81 0 0 1 31.6-13c-5.5 2.2-10.6 5-15.4 8.4 0 0 3.3-2.2 9.1-3.6a26.1 26.1 0 0 0-5 4.7c.9.3 1.7 1 2.3 2.4 1.7 3.6 7.3 2.8 10.7 2-3.2 1-8.3 3.1-10.7 6 .4-.3 3.1-3.1 12.2-4.2a28.9 28.9 0 0 0-13.2 8.8l5.3-1a16 16 0 0 1 9.6-7.3s-4.2 4.8 4.5 5.6c8.7.8 8.9 1 12.2 5 3.3 3.7 7.1 4.8 15.3 2.4a36.3 36.3 0 0 1 25.4-.2c10.7 3.7 18.4 6.5 27.2 1.5 9-5 15.9-6.6 29.8-1.5 14 5.2 22.6 6.5 25.8 0 2.4-4.8 10 1.6 13.8 5.2a33 33 0 0 0 7-14c2.2-8.6-11.7-18-11.7-18s13 .9 16 1.8l2.8-2.8zm-13.4 9.7s4.2 3.4 3.7 7.4c-.6 4-4.4 10.7-4.4 10.7s3-8.5.7-18z" fill="#A7C0C0"/><path d="M175.2 135.4s-23.4-1-45 4.4 2.2 7.5 8 8c5.9.4 17.2 2.7 23.6-2.4l7.7-6.3 4.1.3-14 9.2s5-2.4 15.6-2.6c0 0-5.7.7-8.8 2.6 0 0 20.4 2 41.6-.8 21.2-2.7 34.6-6.2 20.4-8.6a470.2 470.2 0 0 0-50.6-4h-1.4a4.9 4.9 0 0 1 3.3-2.8l-3.2-.8c-1 1-1.4 2.4-1.3 3.8z" fill="#94AAA9"/></g><g><g transform="translate(119.3 105.8)"><mask id="c" fill="#fff"><use xlink:href="#b"/></mask><path fill="#063E5D" fill-rule="nonzero" mask="url(#c)" d="M69.1 47.2L80.3 8.7 69.6 5.2 57 15.8l5.5 6.2 4.6-3.6-7.8 25.9z"/><path fill="#DBDCDD" fill-rule="nonzero" mask="url(#c)" d="M18 30l-4.7-2.3-1.5 4.3-2.2-1.3L23 39l2.3-4.1 4.6 4 9.4-9.2-14.6-9.3z"/><path fill="#063E5D" fill-rule="nonzero" mask="url(#c)" d="M31.7 40.2L23.6 1 12.5 2.8 6.3 18l7.7 3 2.5-5.4 5 26.6z"/><path d="M40.9 26.6l-1.7 3-9.4 9.4-4.6-4.1-2.3 4-13.3-8.2 2.2 1.3-3.4-2c-4.3 5.8-4.3 15.8-4.3 15.8l51.4 3.5A29.5 29.5 0 0 0 41 26.6zM66.4 47.2s4.5-14.6 12.2-22.6c7.7-8 17-11.3 22.9-9.2 5.8 2.1 11.7 10 9.5 23.6a91 91 0 0 1-9.8 26.5L66.4 47.2z" fill="#FFF" fill-rule="nonzero" mask="url(#c)"/><path d="M46 20.3c-10.3-1.3-20 8-21.5 21C22.8 54 29.8 65.5 40 66.8c10.2 1.2 19.8-8.1 21.4-21C63.1 33 56.2 21.6 46 20.3zm-4.4 34c-4.7-.6-7.9-5.9-7.1-11.8.7-5.9 5.1-10.2 9.8-9.6 4.7.5 8 5.8 7.2 11.7-.8 6-5.2 10.3-9.9 9.7z" fill="#063E5D" fill-rule="nonzero" mask="url(#c)"/></g><path stroke="#58676D" stroke-width=".8" d="M21.9 65.4l-11 9.6-9.7-11 11-9.6z"/><path stroke="#3799D0" stroke-width=".8" d="M275.7 26.4l4.8 19.7L294 35.5z"/><path stroke="#11ABEC" stroke-width=".8" d="M125.2 11.4l1.7 6.8 4.5-3.6z"/><path stroke="#58676D" stroke-width=".8" d="M161.2 9l-7.6 6.7-6.7-7.7 7.7-6.7z"/></g><g><path d="M243.9 103.3s3.5-1.7 3.8-5.8c.3-4 1.2-6.7 6.7-9 5.4-2.2 5.2-6.6 5.7-9.3.5-2.7 4.9-8.1 13.4-6 8.5 2.3 12 9.8 10.5 16.6-1.5 6.8-5.8 6.9-6 10-.2 3 1 8.8-1.7 11.8s-7.9 1.9-9.9 2.8c-2 .9-3.2 2.5-3.7 5.9-.5 3.3-6 5.2-8.8.5l-10-17.5z" fill="#063E5D" fill-rule="nonzero"/><path d="M256.7 77.8c2 2.3.9 5.3-2.3 7.3-3.1 2-4.1-1.9-3.7-3.1.4-1.3 4-6.5 6-4.2z" fill="#063E5D"/><path d="M255 109.4l-1 .9c.6-.9.5-2-.2-2.7-1-1.3-3.2-2-2.8-5.4.3-3.3 2.7-2.4 2.7-2.4-.4-.4-.9-.6-1.4-.8-2-.6-3.4.5-4.4 1.3-1 .7-1.4 1.5-3.6 1.5a3.9 3.9 0 0 0-4 3 6.8 6.8 0 0 0-4.4-2.2 25 25 0 0 0-13.8 4c-6.4 3.6-7.8 6.6-8.5 8.1-.7 1.6 0 4.5 2 5.4l-1.8.5c-.8.2-3 4.9-2.4 5 .6 0 4.9-.3 6.6-2.5 1.7-2.2 4-1.1 4.6-.8.6.3 1.3 1 1.5 1 3.5 2.6 5.2 7.5 5.2 7.5l10.5 2 8 1.7s5-4.3 5.6-7.3c.7-3 1.3-7.3-.8-9.9 0 0 1.8-1 2.5-2.1.6-1.2 1.3-4.8 1.3-5.4 0-.7-.6-1.2-1.5-.4z" fill="#FFF" fill-rule="nonzero"/><path d="M234.8 131.8l-1.3-2.5a21.6 21.6 0 0 0-6.6-5.9c-1.8-1-2.5-4.3-2.5-4.3l-1.4.2a11 11 0 0 0-.8 2.8l.4.2c.7.2 1.4 1 1.5 1 3.5 2.5 5.2 7.5 5.2 7.5l5.5 1z" fill="#DBDCDD" fill-rule="nonzero"/><path d="M255 109.4l-1 .9c.6-.9.5-2-.2-2.7-1-1.3-3.2-2-2.8-5.4.3-3.3 2.7-2.4 2.7-2.4a3 3 0 0 0-1.4-.8c-2-.6-3.4.5-4.4 1.3-1 .7-1.4 1.5-3.6 1.5a3.9 3.9 0 0 0-4 3 6.8 6.8 0 0 0-4.4-2.2 25 25 0 0 0-13.8 4c-6.4 3.6-7.8 6.6-8.5 8.1-.7 1.6 0 4.5 2 5.4l-1.8.5c-.8.2-3 4.9-2.4 5 .6 0 4.9-.3 6.6-2.5 1.7-2.2 4-1.1 4.6-.8.6.3 1.3 1 1.5 1 .1 0 1.2.1.3-1.3 0 0-.9-1.2-.7-1.8.1-.7 2.7-2.3.5-8 0 0 2-3.2 10.4-2.4 0 0 3-2.2 5.6-2.3 0 1 0 2 .2 3 0 0-9.3 4.3-1 10.3 0 0-2.7 4.3-3.7 8.1-.2.7-.3 1.3-.3 2a6.1 6.1 0 0 0 .8 3.6c1.7 2.7 6.6 3.5 11.6 0 0 0 4.9-4.3 5.5-7.3.7-3 1.3-7.3-.7-10 0 0 1.8-.8 2.4-2 .7-1.2 1.4-4.8 1.4-5.5 0-.6-.6-1.1-1.5-.3z" fill="#EA9F91" fill-rule="nonzero"/><path d="M240.2 107.5c0 1 0 2 .2 3.1l-2.7 1.9s-1.9 3 2.9 6.8c0 0 3.3-4.6 4.5-6 0 0-3-.4-4.1-2.3-1.1-1.8 0-3.1 0-3.2.5-.4 1-.7 1.7-.9.9-.3.9-1.3.9-1.5 0-.3.1-.5.4-.6h.7c.8.4 3.3-2.7 6.2-2.6.4-3.3 2.8-2.4 2.8-2.4-.4-.4-.9-.7-1.4-.8-2-.6-3.4.5-4.4 1.3-1 .7-1.4 1.4-3.6 1.4a3.9 3.9 0 0 0-4 3.1c-.1.9-.2 1.8-.1 2.7zM234.6 109.8c1-.7 2.3-1.4 3.5-1.9-1-.4-3.7-1-7.5-.8-5.3.4-9.6 2.2-11.2 3.2 0 0 3.8-.1 4.8 2 0 0 2-3.3 10.4-2.5zM251.3 117.4l-1.3-.5c-.6-.4-2-1.1-2.5.5s-.4 6.7-2 13.7c0 0 6-8.3 5.8-13.7z" fill="#000" fill-rule="nonzero" opacity=".1"/></g></g></svg>