<?xml version="1.0" encoding="UTF-8"?>
<svg width="1109px" height="306px" viewBox="0 0 1109 306" version="1.1" xmlns="http://www.w3.org/2000/svg" xmlns:xlink="http://www.w3.org/1999/xlink">
    <!-- Generator: sketchtool 51.2 (57519) - http://www.bohemiancoding.com/sketch -->
    <title>54C7A9B4-9939-4D81-A8BE-6CD8376A58E3</title>
    <desc>Created with sketchtool.</desc>
    <defs></defs>
    <g id="Design" stroke="none" stroke-width="1" fill="none" fill-rule="evenodd">
        <g id="4a-Features" transform="translate(-150.000000, -1581.000000)">
            <g id="Section-2" transform="translate(0.000000, 1328.000000)">
                <g id="Pattern" transform="translate(150.000000, 254.000000)">
                    <polygon id="Stroke-103" stroke="#58676D" points="182.0842 16.0453656 166.038834 30.0842 152 14.0388344 168.043645 0"></polygon>
                    <polygon id="Stroke-103-Copy" stroke="#FFFFFF" points="1108.0842 290.045366 1092.03883 304.0842 1078 288.038834 1094.04364 274"></polygon>
                    <path d="M4.1979901,139.054373 C3.93827827,139.770684 3.71477343,140.50735 3.53138987,141.263978 C0.704503865,152.929678 6.94717784,164.909302 20.5580742,167.75302 C32.8764785,170.326457 44.9946679,163.66202 47.8215539,151.99632 C48.0049375,151.239888 48.1433069,150.482672 48.2403808,149.726827 L4.1979901,139.054373 Z" id="Fill-68" stroke="#FFFFFF" transform="translate(25.552176, 153.678549) rotate(-14.000000) translate(-25.552176, -153.678549) "></path>
                    <path d="M1067.5,85.5 C1090.47979,85.5 1103.97979,72 1108,45 L1027,45 C1031.02021,72 1044.52021,85.5 1067.5,85.5 Z" id="Oval-4" stroke="#58676D"></path>
                    <path d="M1023,99 C1034.34805,99 1041.01471,92.3333333 1043,79 L1003,79 C1004.98529,92.3333333 1011.65195,99 1023,99 Z" id="Oval-4-Copy-4" fill="#FFFFFF" opacity="0.300000012"></path>
                    <path d="M300,263 C311.348045,263 318.014712,256.333333 320,243 L280,243 C281.985288,256.333333 288.651955,263 300,263 Z" id="Oval-4-Copy-5" fill="#FFFFFF" opacity="0.300000012"></path>
                    <path d="M793.467074,6.47836163 C849.653414,-6.92049621 903.172852,36.128043 903.487831,84.6004537 C903.829773,137.234631 848.484193,145.24386 826.423419,124.896088 C795.279734,96.1709716 788.417608,63.7732769 763.16415,65.8144136 C741.486988,67.5669294 727.121747,105.120665 716.390406,105.370151 C705.659065,105.62086 707.529329,88.6338083 691.249703,88.9896925 C675.073028,89.3419078 668.128786,121.881467 663.329342,134.963576 C660.987224,141.351147 658.730897,146.113392 653.783155,147.081984 C647.626974,148.286609 642.839786,144.746112 640.052775,135.36471 C637.313562,126.137402 636.009525,117.790633 632.536179,114.272149 C628.291931,109.972186 621.7791,110.896752 618.783737,115.295774 C614.246571,121.96096 610.452118,141.873355 599.21338,168.164762 C589.14999,191.709377 556,194 556,194" id="Stroke-35" stroke="#013A51" stroke-width="1.40799986"></path>
                </g>
            </g>
        </g>
    </g>
</svg>