<svg width="11" height="11" xmlns="http://www.w3.org/2000/svg"><path d="M8.803 10.986c-.972 0-2.008-.276-3.076-.82-.985-.501-1.958-1.22-2.814-2.077C2.057 7.232 1.34 6.26.839 5.273.296 4.203.02 3.168.02 2.196c0-.631.588-1.24.84-1.473.364-.334.935-.725 1.35-.725.207 0 .449.135.762.425.234.217.497.51.76.848.158.205.95 1.248.95 1.749 0 .41-.464.696-.955.997a5.41 5.41 0 0 0-.528.351c-.152.122-.18.186-.183.2.521 1.3 2.115 2.894 3.414 3.415.012-.004.076-.03.2-.183a5.41 5.41 0 0 0 .35-.528c.303-.491.589-.956.998-.956.501 0 1.545.792 1.748.95.34.264.632.527.85.76.289.314.424.556.424.762 0 .416-.39.99-.724 1.354-.233.254-.843.844-1.474.844h.001z" fill="#013A51" fill-rule="nonzero"/></svg>