<svg width="101" height="26" xmlns="http://www.w3.org/2000/svg"><g fill="none" fill-rule="evenodd"><path d="M36.5 20.4c-1.5 0-2.8-.6-3.6-1.8a8.3 8.3 0 0 1-1.4-5c0-2.1.5-3.8 1.4-5a4.4 4.4 0 0 1 3.7-1.8c1.6 0 2.9.7 3.8 2L40.3 6V2h3.6v18.3h-2.7l-.7-1.7h-.2c-.8 1.3-2 2-3.7 2zm1.3-2.8c.9 0 1.5-.3 2-.8.4-.5.6-1.5.7-2.7v-.4c0-1.4-.2-2.4-.7-3-.4-.7-1.1-1-2.1-1-.8 0-1.4.4-1.9 1-.4.7-.6 1.7-.6 3s.2 2.3.6 3c.5.6 1.1.9 2 .9zm12.6-4c0 1.3.2 2.3.7 3 .4.6 1 1 2 1s1.7-.4 2.1-1c.4-.7.6-1.7.6-3s-.2-2.3-.6-3c-.4-.6-1.1-.9-2-.9-1 0-1.7.3-2.2 1-.4.6-.6 1.6-.6 3zm9 0a7 7 0 0 1-1.6 5 6.1 6.1 0 0 1-4.7 1.8c-1.3 0-2.4-.2-3.3-.8-1-.5-1.7-1.3-2.3-2.4a8 8 0 0 1-.7-3.6 7 7 0 0 1 1.6-5 6.2 6.2 0 0 1 4.8-1.8c1.2 0 2.3.3 3.3.8 1 .6 1.7 1.4 2.2 2.4a8 8 0 0 1 .8 3.6zm12.3 6.6l-.4-1.7H71c-.4.6-1 1.1-1.7 1.4-.7.4-1.5.5-2.4.5-1.5 0-2.7-.4-3.4-1.2-.8-.8-1.2-2-1.2-3.6V7.1H66v7.6c0 1 .1 1.7.5 2.2.3.5.8.7 1.6.7 1 0 1.7-.3 2.1-1 .5-.7.7-1.8.7-3.4V7.1h3.6v13.1h-2.8zm18-13.1v1.8l-2 .5c.3.6.5 1.3.5 2a4 4 0 0 1-1.5 3.3c-1 .8-2.3 1.2-4 1.2H82l-.6-.1c-.3.3-.5.6-.5 1s.7.7 2 .7H85c1.4 0 2.5.3 3.3 1 .8.5 1.1 1.5 1.1 2.7a4 4 0 0 1-1.9 3.5 10 10 0 0 1-5.5 1.3c-1.8 0-3.2-.3-4.2-1a3 3 0 0 1-1.5-2.6c0-.8.3-1.5.8-2 .5-.6 1.2-1 2.2-1.2-.4-.1-.7-.4-1-.7-.3-.4-.4-.8-.4-1.2 0-.5.1-.9.4-1.2a5 5 0 0 1 1.3-1c-.7-.3-1.3-.8-1.7-1.5-.4-.6-.6-1.4-.6-2.3 0-1.4.5-2.5 1.4-3.3a6 6 0 0 1 4-1.2 10.2 10.2 0 0 1 2.3.3h4.6zM79.5 22c0 .5.3.9.8 1.1.4.3 1 .5 2 .5a7 7 0 0 0 3-.6c.7-.3 1-.8 1-1.4 0-.5-.2-.9-.6-1-.4-.2-1-.3-2-.3H82c-.7 0-1.2.1-1.7.4-.4.4-.7.8-.7 1.3zm1.3-10.7c0 .7.2 1.2.5 1.7.4.4.9.6 1.5.6.7 0 1.2-.2 1.5-.6.3-.5.5-1 .5-1.7 0-1.6-.7-2.4-2-2.4s-2 .8-2 2.4zm20.2 5c0 1.3-.5 2.3-1.4 3-1 .7-2.3 1-4.2 1l-2.4-.1-2-.6v-3a12.5 12.5 0 0 0 4.5 1.1c1.3 0 2-.4 2-1.1 0-.3-.1-.5-.3-.7l-.9-.6-1.7-.8c-1-.4-1.7-.8-2.2-1.2-.5-.3-.8-.7-1-1.2-.3-.5-.4-1-.4-1.7 0-1.2.5-2 1.4-2.7.9-.7 2.2-1 3.8-1 1.6 0 3.2.4 4.7 1l-1.1 2.6-1.9-.7-1.7-.2c-1 0-1.6.3-1.6.8 0 .4.2.6.5.9l2.2 1c1 .4 1.8.8 2.3 1.2.5.3.8.8 1 1.2.3.5.4 1 .4 1.7z" fill="#013A51"/><path d="M21 4l-8.7 8.8L8.4 9c-.2-.2-.5-.3-.8-.3-.4 0-.6.1-.9.3l-1.6 1.7c-.2.2-.3.5-.3.8 0 .3 0 .6.3.8l6.3 6.4c.3.2.5.3.9.3.3 0 .6-.1.8-.3L23.4 8.2A12 12 0 1 1 21 4.1z" fill="#11ABEC"/></g></svg>