<svg width="1124" height="296" xmlns="http://www.w3.org/2000/svg"><g fill="none" fill-rule="evenodd"><path stroke="#58676D" d="M182 32l-16 14-14-16 16-14z"/><path d="M1123.4 282l-13.4-15.4-15.4 13.5 13.5 15.3 15.3-13.4z" stroke="#979797" stroke-width=".9"/><path d="M1.3 160.7l-.1 2.3c0 12 9 22 23 21.5 12.5-.4 22.6-9.8 22.6-21.8l-.2-2.3-45.3.3z" stroke="#FFF"/><path d="M1067.5 101.5c23 0 36.5-13.5 40.5-40.5h-81c4 27 17.5 40.5 40.5 40.5z" stroke="#0ED094"/><path d="M583 20c11.3 0 18-6.7 20-20h-40c2 13.3 8.7 20 20 20z" fill="#002635"/><circle fill="#0ED094" fill-rule="nonzero" cx="288.5" cy="253.5" r="8.5"/></g></svg>