<?xml version="1.0" encoding="UTF-8"?>
<svg width="1022px" height="600px" viewBox="0 0 1022 600" version="1.1" xmlns="http://www.w3.org/2000/svg" xmlns:xlink="http://www.w3.org/1999/xlink">
    <!-- Generator: sketchtool 51.1 (57501) - http://www.bohemiancoding.com/sketch -->
    <title>40DCC270-E302-4184-B71D-DC0E216CA539</title>
    <desc>Created with sketchtool.</desc>
    <defs></defs>
    <g id="Design" stroke="none" stroke-width="1" fill="none" fill-rule="evenodd">
        <g id="3a-Team" transform="translate(-294.000000, -2014.000000)">
            <g id="Section-2" transform="translate(0.000000, 1868.000000)">
                <g id="Pattern-2" transform="translate(294.000000, 146.000000)">
                    <polygon id="Stroke-103" stroke="#58676D" points="594.0842 24.0453656 578.038834 38.0842 564 22.0388344 580.043645 8"></polygon>
                    <polygon id="Stroke-103-Copy" fill="#3799D0" points="515.0842 468.045366 499.038834 482.0842 485 466.038834 501.043645 452"></polygon>
                    <path d="M4.1979901,569.054373 C3.93827827,569.770684 3.71477343,570.50735 3.53138987,571.263978 C0.704503865,582.929678 6.94717784,594.909302 20.5580742,597.75302 C32.8764785,600.326457 44.9946679,593.66202 47.8215539,581.99632 C48.0049375,581.239888 48.1433069,580.482672 48.2403808,579.726827 L4.1979901,569.054373 Z" id="Fill-68" stroke="#FFFFFF" transform="translate(25.552176, 583.678549) rotate(-14.000000) translate(-25.552176, -583.678549) "></path>
                    <path d="M913,20 C924.348045,20 931.014712,13.3333333 933,0 L893,0 C894.985288,13.3333333 901.651955,20 913,20 Z" id="Oval-4-Copy-4" fill="#002635"></path>
                    <path d="M1021.47515,504.45 L982.524852,504.45 C984.571585,517.229394 991.036899,523.55 1002,523.55 C1012.9631,523.55 1019.42842,517.229394 1021.47515,504.450011 Z" id="Oval-4-Copy-6" stroke="#14C754" stroke-width="0.899999976"></path>
                    <path d="M999,216 C1010.34805,216 1017.01471,209.333333 1019,196 L979,196 C980.985288,209.333333 987.651955,216 999,216 Z" id="Oval-4-Copy-5" fill="#3799D0"></path>
                </g>
            </g>
        </g>
    </g>
</svg>